%TF.GenerationSoftware,KiCad,Pcbnew,(6.0.9)*%
%TF.CreationDate,2023-01-10T17:41:50+01:00*%
%TF.ProjectId,gbcart,67626361-7274-42e6-9b69-6361645f7063,rev?*%
%TF.SameCoordinates,Original*%
%TF.FileFunction,Legend,Top*%
%TF.FilePolarity,Positive*%
%FSLAX46Y46*%
G04 Gerber Fmt 4.6, Leading zero omitted, Abs format (unit mm)*
G04 Created by KiCad (PCBNEW (6.0.9)) date 2023-01-10 17:41:50*
%MOMM*%
%LPD*%
G01*
G04 APERTURE LIST*
%ADD10C,0.150000*%
%ADD11C,0.120000*%
G04 APERTURE END LIST*
D10*
%TO.C,R4*%
X118197333Y-81578380D02*
X117864000Y-81102190D01*
X117625904Y-81578380D02*
X117625904Y-80578380D01*
X118006857Y-80578380D01*
X118102095Y-80626000D01*
X118149714Y-80673619D01*
X118197333Y-80768857D01*
X118197333Y-80911714D01*
X118149714Y-81006952D01*
X118102095Y-81054571D01*
X118006857Y-81102190D01*
X117625904Y-81102190D01*
X119054476Y-80911714D02*
X119054476Y-81578380D01*
X118816380Y-80530761D02*
X118578285Y-81245047D01*
X119197333Y-81245047D01*
%TO.C,J3*%
X130652380Y-73231333D02*
X131366666Y-73231333D01*
X131509523Y-73278952D01*
X131604761Y-73374190D01*
X131652380Y-73517047D01*
X131652380Y-73612285D01*
X130652380Y-72850380D02*
X130652380Y-72231333D01*
X131033333Y-72564666D01*
X131033333Y-72421809D01*
X131080952Y-72326571D01*
X131128571Y-72278952D01*
X131223809Y-72231333D01*
X131461904Y-72231333D01*
X131557142Y-72278952D01*
X131604761Y-72326571D01*
X131652380Y-72421809D01*
X131652380Y-72707523D01*
X131604761Y-72802761D01*
X131557142Y-72850380D01*
%TO.C,J2*%
X113057666Y-65809380D02*
X113057666Y-66523666D01*
X113010047Y-66666523D01*
X112914809Y-66761761D01*
X112771952Y-66809380D01*
X112676714Y-66809380D01*
X113486238Y-65904619D02*
X113533857Y-65857000D01*
X113629095Y-65809380D01*
X113867190Y-65809380D01*
X113962428Y-65857000D01*
X114010047Y-65904619D01*
X114057666Y-65999857D01*
X114057666Y-66095095D01*
X114010047Y-66237952D01*
X113438619Y-66809380D01*
X114057666Y-66809380D01*
%TO.C,D2*%
X102632380Y-110974095D02*
X101632380Y-110974095D01*
X101632380Y-110736000D01*
X101680000Y-110593142D01*
X101775238Y-110497904D01*
X101870476Y-110450285D01*
X102060952Y-110402666D01*
X102203809Y-110402666D01*
X102394285Y-110450285D01*
X102489523Y-110497904D01*
X102584761Y-110593142D01*
X102632380Y-110736000D01*
X102632380Y-110974095D01*
X101727619Y-110021714D02*
X101680000Y-109974095D01*
X101632380Y-109878857D01*
X101632380Y-109640761D01*
X101680000Y-109545523D01*
X101727619Y-109497904D01*
X101822857Y-109450285D01*
X101918095Y-109450285D01*
X102060952Y-109497904D01*
X102632380Y-110069333D01*
X102632380Y-109450285D01*
%TO.C,C7*%
X138749833Y-86365142D02*
X138702214Y-86412761D01*
X138559357Y-86460380D01*
X138464119Y-86460380D01*
X138321261Y-86412761D01*
X138226023Y-86317523D01*
X138178404Y-86222285D01*
X138130785Y-86031809D01*
X138130785Y-85888952D01*
X138178404Y-85698476D01*
X138226023Y-85603238D01*
X138321261Y-85508000D01*
X138464119Y-85460380D01*
X138559357Y-85460380D01*
X138702214Y-85508000D01*
X138749833Y-85555619D01*
X139083166Y-85460380D02*
X139749833Y-85460380D01*
X139321261Y-86460380D01*
%TO.C,C4*%
X108820833Y-81735142D02*
X108773214Y-81782761D01*
X108630357Y-81830380D01*
X108535119Y-81830380D01*
X108392261Y-81782761D01*
X108297023Y-81687523D01*
X108249404Y-81592285D01*
X108201785Y-81401809D01*
X108201785Y-81258952D01*
X108249404Y-81068476D01*
X108297023Y-80973238D01*
X108392261Y-80878000D01*
X108535119Y-80830380D01*
X108630357Y-80830380D01*
X108773214Y-80878000D01*
X108820833Y-80925619D01*
X109677976Y-81163714D02*
X109677976Y-81830380D01*
X109439880Y-80782761D02*
X109201785Y-81497047D01*
X109820833Y-81497047D01*
%TO.C,R2*%
X116684380Y-67222666D02*
X116208190Y-67556000D01*
X116684380Y-67794095D02*
X115684380Y-67794095D01*
X115684380Y-67413142D01*
X115732000Y-67317904D01*
X115779619Y-67270285D01*
X115874857Y-67222666D01*
X116017714Y-67222666D01*
X116112952Y-67270285D01*
X116160571Y-67317904D01*
X116208190Y-67413142D01*
X116208190Y-67794095D01*
X115779619Y-66841714D02*
X115732000Y-66794095D01*
X115684380Y-66698857D01*
X115684380Y-66460761D01*
X115732000Y-66365523D01*
X115779619Y-66317904D01*
X115874857Y-66270285D01*
X115970095Y-66270285D01*
X116112952Y-66317904D01*
X116684380Y-66889333D01*
X116684380Y-66270285D01*
%TO.C,U8*%
X130810095Y-79856380D02*
X130810095Y-80665904D01*
X130857714Y-80761142D01*
X130905333Y-80808761D01*
X131000571Y-80856380D01*
X131191047Y-80856380D01*
X131286285Y-80808761D01*
X131333904Y-80761142D01*
X131381523Y-80665904D01*
X131381523Y-79856380D01*
X132000571Y-80284952D02*
X131905333Y-80237333D01*
X131857714Y-80189714D01*
X131810095Y-80094476D01*
X131810095Y-80046857D01*
X131857714Y-79951619D01*
X131905333Y-79904000D01*
X132000571Y-79856380D01*
X132191047Y-79856380D01*
X132286285Y-79904000D01*
X132333904Y-79951619D01*
X132381523Y-80046857D01*
X132381523Y-80094476D01*
X132333904Y-80189714D01*
X132286285Y-80237333D01*
X132191047Y-80284952D01*
X132000571Y-80284952D01*
X131905333Y-80332571D01*
X131857714Y-80380190D01*
X131810095Y-80475428D01*
X131810095Y-80665904D01*
X131857714Y-80761142D01*
X131905333Y-80808761D01*
X132000571Y-80856380D01*
X132191047Y-80856380D01*
X132286285Y-80808761D01*
X132333904Y-80761142D01*
X132381523Y-80665904D01*
X132381523Y-80475428D01*
X132333904Y-80380190D01*
X132286285Y-80332571D01*
X132191047Y-80284952D01*
%TO.C,U3*%
X102354380Y-91947904D02*
X103163904Y-91947904D01*
X103259142Y-91900285D01*
X103306761Y-91852666D01*
X103354380Y-91757428D01*
X103354380Y-91566952D01*
X103306761Y-91471714D01*
X103259142Y-91424095D01*
X103163904Y-91376476D01*
X102354380Y-91376476D01*
X102354380Y-90995523D02*
X102354380Y-90376476D01*
X102735333Y-90709809D01*
X102735333Y-90566952D01*
X102782952Y-90471714D01*
X102830571Y-90424095D01*
X102925809Y-90376476D01*
X103163904Y-90376476D01*
X103259142Y-90424095D01*
X103306761Y-90471714D01*
X103354380Y-90566952D01*
X103354380Y-90852666D01*
X103306761Y-90947904D01*
X103259142Y-90995523D01*
%TO.C,MH1*%
X122131666Y-106219523D02*
X122131666Y-104949523D01*
X122555000Y-105856666D01*
X122978333Y-104949523D01*
X122978333Y-106219523D01*
X123583095Y-106219523D02*
X123583095Y-104949523D01*
X123583095Y-105554285D02*
X124308809Y-105554285D01*
X124308809Y-106219523D02*
X124308809Y-104949523D01*
X125578809Y-106219523D02*
X124853095Y-106219523D01*
X125215952Y-106219523D02*
X125215952Y-104949523D01*
X125095000Y-105130952D01*
X124974047Y-105251904D01*
X124853095Y-105312380D01*
X117263333Y-106219523D02*
X117263333Y-104949523D01*
X117686666Y-105856666D01*
X118110000Y-104949523D01*
X118110000Y-106219523D01*
X118896190Y-106219523D02*
X118775238Y-106159047D01*
X118714761Y-106098571D01*
X118654285Y-105977619D01*
X118654285Y-105614761D01*
X118714761Y-105493809D01*
X118775238Y-105433333D01*
X118896190Y-105372857D01*
X119077619Y-105372857D01*
X119198571Y-105433333D01*
X119259047Y-105493809D01*
X119319523Y-105614761D01*
X119319523Y-105977619D01*
X119259047Y-106098571D01*
X119198571Y-106159047D01*
X119077619Y-106219523D01*
X118896190Y-106219523D01*
X120408095Y-105372857D02*
X120408095Y-106219523D01*
X119863809Y-105372857D02*
X119863809Y-106038095D01*
X119924285Y-106159047D01*
X120045238Y-106219523D01*
X120226666Y-106219523D01*
X120347619Y-106159047D01*
X120408095Y-106098571D01*
X121012857Y-105372857D02*
X121012857Y-106219523D01*
X121012857Y-105493809D02*
X121073333Y-105433333D01*
X121194285Y-105372857D01*
X121375714Y-105372857D01*
X121496666Y-105433333D01*
X121557142Y-105554285D01*
X121557142Y-106219523D01*
X121980476Y-105372857D02*
X122464285Y-105372857D01*
X122161904Y-104949523D02*
X122161904Y-106038095D01*
X122222380Y-106159047D01*
X122343333Y-106219523D01*
X122464285Y-106219523D01*
X122887619Y-106219523D02*
X122887619Y-105372857D01*
X122887619Y-104949523D02*
X122827142Y-105010000D01*
X122887619Y-105070476D01*
X122948095Y-105010000D01*
X122887619Y-104949523D01*
X122887619Y-105070476D01*
X123492380Y-105372857D02*
X123492380Y-106219523D01*
X123492380Y-105493809D02*
X123552857Y-105433333D01*
X123673809Y-105372857D01*
X123855238Y-105372857D01*
X123976190Y-105433333D01*
X124036666Y-105554285D01*
X124036666Y-106219523D01*
X125185714Y-105372857D02*
X125185714Y-106400952D01*
X125125238Y-106521904D01*
X125064761Y-106582380D01*
X124943809Y-106642857D01*
X124762380Y-106642857D01*
X124641428Y-106582380D01*
X125185714Y-106159047D02*
X125064761Y-106219523D01*
X124822857Y-106219523D01*
X124701904Y-106159047D01*
X124641428Y-106098571D01*
X124580952Y-105977619D01*
X124580952Y-105614761D01*
X124641428Y-105493809D01*
X124701904Y-105433333D01*
X124822857Y-105372857D01*
X125064761Y-105372857D01*
X125185714Y-105433333D01*
X126758095Y-106219523D02*
X126758095Y-104949523D01*
X126758095Y-105554285D02*
X127483809Y-105554285D01*
X127483809Y-106219523D02*
X127483809Y-104949523D01*
X128270000Y-106219523D02*
X128149047Y-106159047D01*
X128088571Y-106098571D01*
X128028095Y-105977619D01*
X128028095Y-105614761D01*
X128088571Y-105493809D01*
X128149047Y-105433333D01*
X128270000Y-105372857D01*
X128451428Y-105372857D01*
X128572380Y-105433333D01*
X128632857Y-105493809D01*
X128693333Y-105614761D01*
X128693333Y-105977619D01*
X128632857Y-106098571D01*
X128572380Y-106159047D01*
X128451428Y-106219523D01*
X128270000Y-106219523D01*
X129419047Y-106219523D02*
X129298095Y-106159047D01*
X129237619Y-106038095D01*
X129237619Y-104949523D01*
X130386666Y-106159047D02*
X130265714Y-106219523D01*
X130023809Y-106219523D01*
X129902857Y-106159047D01*
X129842380Y-106038095D01*
X129842380Y-105554285D01*
X129902857Y-105433333D01*
X130023809Y-105372857D01*
X130265714Y-105372857D01*
X130386666Y-105433333D01*
X130447142Y-105554285D01*
X130447142Y-105675238D01*
X129842380Y-105796190D01*
%TO.C,U1*%
X120402380Y-75691904D02*
X121211904Y-75691904D01*
X121307142Y-75644285D01*
X121354761Y-75596666D01*
X121402380Y-75501428D01*
X121402380Y-75310952D01*
X121354761Y-75215714D01*
X121307142Y-75168095D01*
X121211904Y-75120476D01*
X120402380Y-75120476D01*
X121402380Y-74120476D02*
X121402380Y-74691904D01*
X121402380Y-74406190D02*
X120402380Y-74406190D01*
X120545238Y-74501428D01*
X120640476Y-74596666D01*
X120688095Y-74691904D01*
%TO.C,JP1*%
X138395666Y-88095380D02*
X138395666Y-88809666D01*
X138348047Y-88952523D01*
X138252809Y-89047761D01*
X138109952Y-89095380D01*
X138014714Y-89095380D01*
X138871857Y-89095380D02*
X138871857Y-88095380D01*
X139252809Y-88095380D01*
X139348047Y-88143000D01*
X139395666Y-88190619D01*
X139443285Y-88285857D01*
X139443285Y-88428714D01*
X139395666Y-88523952D01*
X139348047Y-88571571D01*
X139252809Y-88619190D01*
X138871857Y-88619190D01*
X140395666Y-89095380D02*
X139824238Y-89095380D01*
X140109952Y-89095380D02*
X140109952Y-88095380D01*
X140014714Y-88238238D01*
X139919476Y-88333476D01*
X139824238Y-88381095D01*
X143589714Y-87320380D02*
X143018285Y-87320380D01*
X143304000Y-87320380D02*
X143304000Y-86320380D01*
X143208761Y-86463238D01*
X143113523Y-86558476D01*
X143018285Y-86606095D01*
X136220666Y-86320380D02*
X136839714Y-86320380D01*
X136506380Y-86701333D01*
X136649238Y-86701333D01*
X136744476Y-86748952D01*
X136792095Y-86796571D01*
X136839714Y-86891809D01*
X136839714Y-87129904D01*
X136792095Y-87225142D01*
X136744476Y-87272761D01*
X136649238Y-87320380D01*
X136363523Y-87320380D01*
X136268285Y-87272761D01*
X136220666Y-87225142D01*
%TO.C,R3*%
X117700380Y-67222666D02*
X117224190Y-67556000D01*
X117700380Y-67794095D02*
X116700380Y-67794095D01*
X116700380Y-67413142D01*
X116748000Y-67317904D01*
X116795619Y-67270285D01*
X116890857Y-67222666D01*
X117033714Y-67222666D01*
X117128952Y-67270285D01*
X117176571Y-67317904D01*
X117224190Y-67413142D01*
X117224190Y-67794095D01*
X116700380Y-66889333D02*
X116700380Y-66270285D01*
X117081333Y-66603619D01*
X117081333Y-66460761D01*
X117128952Y-66365523D01*
X117176571Y-66317904D01*
X117271809Y-66270285D01*
X117509904Y-66270285D01*
X117605142Y-66317904D01*
X117652761Y-66365523D01*
X117700380Y-66460761D01*
X117700380Y-66746476D01*
X117652761Y-66841714D01*
X117605142Y-66889333D01*
%TO.C,C1*%
X131405333Y-87635142D02*
X131357714Y-87682761D01*
X131214857Y-87730380D01*
X131119619Y-87730380D01*
X130976761Y-87682761D01*
X130881523Y-87587523D01*
X130833904Y-87492285D01*
X130786285Y-87301809D01*
X130786285Y-87158952D01*
X130833904Y-86968476D01*
X130881523Y-86873238D01*
X130976761Y-86778000D01*
X131119619Y-86730380D01*
X131214857Y-86730380D01*
X131357714Y-86778000D01*
X131405333Y-86825619D01*
X132357714Y-87730380D02*
X131786285Y-87730380D01*
X132072000Y-87730380D02*
X132072000Y-86730380D01*
X131976761Y-86873238D01*
X131881523Y-86968476D01*
X131786285Y-87016095D01*
%TO.C,MH2*%
X122131666Y-81219523D02*
X122131666Y-79949523D01*
X122555000Y-80856666D01*
X122978333Y-79949523D01*
X122978333Y-81219523D01*
X123583095Y-81219523D02*
X123583095Y-79949523D01*
X123583095Y-80554285D02*
X124308809Y-80554285D01*
X124308809Y-81219523D02*
X124308809Y-79949523D01*
X124853095Y-80070476D02*
X124913571Y-80010000D01*
X125034523Y-79949523D01*
X125336904Y-79949523D01*
X125457857Y-80010000D01*
X125518333Y-80070476D01*
X125578809Y-80191428D01*
X125578809Y-80312380D01*
X125518333Y-80493809D01*
X124792619Y-81219523D01*
X125578809Y-81219523D01*
%TO.C,C8*%
X112355333Y-69093142D02*
X112307714Y-69140761D01*
X112164857Y-69188380D01*
X112069619Y-69188380D01*
X111926761Y-69140761D01*
X111831523Y-69045523D01*
X111783904Y-68950285D01*
X111736285Y-68759809D01*
X111736285Y-68616952D01*
X111783904Y-68426476D01*
X111831523Y-68331238D01*
X111926761Y-68236000D01*
X112069619Y-68188380D01*
X112164857Y-68188380D01*
X112307714Y-68236000D01*
X112355333Y-68283619D01*
X112926761Y-68616952D02*
X112831523Y-68569333D01*
X112783904Y-68521714D01*
X112736285Y-68426476D01*
X112736285Y-68378857D01*
X112783904Y-68283619D01*
X112831523Y-68236000D01*
X112926761Y-68188380D01*
X113117238Y-68188380D01*
X113212476Y-68236000D01*
X113260095Y-68283619D01*
X113307714Y-68378857D01*
X113307714Y-68426476D01*
X113260095Y-68521714D01*
X113212476Y-68569333D01*
X113117238Y-68616952D01*
X112926761Y-68616952D01*
X112831523Y-68664571D01*
X112783904Y-68712190D01*
X112736285Y-68807428D01*
X112736285Y-68997904D01*
X112783904Y-69093142D01*
X112831523Y-69140761D01*
X112926761Y-69188380D01*
X113117238Y-69188380D01*
X113212476Y-69140761D01*
X113260095Y-69093142D01*
X113307714Y-68997904D01*
X113307714Y-68807428D01*
X113260095Y-68712190D01*
X113212476Y-68664571D01*
X113117238Y-68616952D01*
%TO.C,U4*%
X106074380Y-95503904D02*
X106883904Y-95503904D01*
X106979142Y-95456285D01*
X107026761Y-95408666D01*
X107074380Y-95313428D01*
X107074380Y-95122952D01*
X107026761Y-95027714D01*
X106979142Y-94980095D01*
X106883904Y-94932476D01*
X106074380Y-94932476D01*
X106407714Y-94027714D02*
X107074380Y-94027714D01*
X106026761Y-94265809D02*
X106741047Y-94503904D01*
X106741047Y-93884857D01*
%TO.C,U7*%
X127194095Y-68000380D02*
X127194095Y-68809904D01*
X127241714Y-68905142D01*
X127289333Y-68952761D01*
X127384571Y-69000380D01*
X127575047Y-69000380D01*
X127670285Y-68952761D01*
X127717904Y-68905142D01*
X127765523Y-68809904D01*
X127765523Y-68000380D01*
X128146476Y-68000380D02*
X128813142Y-68000380D01*
X128384571Y-69000380D01*
%TO.C,R5*%
X120647833Y-83918380D02*
X120314500Y-83442190D01*
X120076404Y-83918380D02*
X120076404Y-82918380D01*
X120457357Y-82918380D01*
X120552595Y-82966000D01*
X120600214Y-83013619D01*
X120647833Y-83108857D01*
X120647833Y-83251714D01*
X120600214Y-83346952D01*
X120552595Y-83394571D01*
X120457357Y-83442190D01*
X120076404Y-83442190D01*
X121552595Y-82918380D02*
X121076404Y-82918380D01*
X121028785Y-83394571D01*
X121076404Y-83346952D01*
X121171642Y-83299333D01*
X121409738Y-83299333D01*
X121504976Y-83346952D01*
X121552595Y-83394571D01*
X121600214Y-83489809D01*
X121600214Y-83727904D01*
X121552595Y-83823142D01*
X121504976Y-83870761D01*
X121409738Y-83918380D01*
X121171642Y-83918380D01*
X121076404Y-83870761D01*
X121028785Y-83823142D01*
%TO.C,U5*%
X141562380Y-101345904D02*
X142371904Y-101345904D01*
X142467142Y-101298285D01*
X142514761Y-101250666D01*
X142562380Y-101155428D01*
X142562380Y-100964952D01*
X142514761Y-100869714D01*
X142467142Y-100822095D01*
X142371904Y-100774476D01*
X141562380Y-100774476D01*
X141562380Y-99822095D02*
X141562380Y-100298285D01*
X142038571Y-100345904D01*
X141990952Y-100298285D01*
X141943333Y-100203047D01*
X141943333Y-99964952D01*
X141990952Y-99869714D01*
X142038571Y-99822095D01*
X142133809Y-99774476D01*
X142371904Y-99774476D01*
X142467142Y-99822095D01*
X142514761Y-99869714D01*
X142562380Y-99964952D01*
X142562380Y-100203047D01*
X142514761Y-100298285D01*
X142467142Y-100345904D01*
%TO.C,C2*%
X101605142Y-78420166D02*
X101652761Y-78467785D01*
X101700380Y-78610642D01*
X101700380Y-78705880D01*
X101652761Y-78848738D01*
X101557523Y-78943976D01*
X101462285Y-78991595D01*
X101271809Y-79039214D01*
X101128952Y-79039214D01*
X100938476Y-78991595D01*
X100843238Y-78943976D01*
X100748000Y-78848738D01*
X100700380Y-78705880D01*
X100700380Y-78610642D01*
X100748000Y-78467785D01*
X100795619Y-78420166D01*
X100795619Y-78039214D02*
X100748000Y-77991595D01*
X100700380Y-77896357D01*
X100700380Y-77658261D01*
X100748000Y-77563023D01*
X100795619Y-77515404D01*
X100890857Y-77467785D01*
X100986095Y-77467785D01*
X101128952Y-77515404D01*
X101700380Y-78086833D01*
X101700380Y-77467785D01*
%TO.C,D1*%
X117625904Y-69358380D02*
X117625904Y-68358380D01*
X117864000Y-68358380D01*
X118006857Y-68406000D01*
X118102095Y-68501238D01*
X118149714Y-68596476D01*
X118197333Y-68786952D01*
X118197333Y-68929809D01*
X118149714Y-69120285D01*
X118102095Y-69215523D01*
X118006857Y-69310761D01*
X117864000Y-69358380D01*
X117625904Y-69358380D01*
X119149714Y-69358380D02*
X118578285Y-69358380D01*
X118864000Y-69358380D02*
X118864000Y-68358380D01*
X118768761Y-68501238D01*
X118673523Y-68596476D01*
X118578285Y-68644095D01*
%TO.C,J1*%
X123498266Y-110444780D02*
X123498266Y-111159066D01*
X123450647Y-111301923D01*
X123355409Y-111397161D01*
X123212552Y-111444780D01*
X123117314Y-111444780D01*
X124498266Y-111444780D02*
X123926838Y-111444780D01*
X124212552Y-111444780D02*
X124212552Y-110444780D01*
X124117314Y-110587638D01*
X124022076Y-110682876D01*
X123926838Y-110730495D01*
X146222076Y-111944780D02*
X146841123Y-111944780D01*
X146507790Y-112325733D01*
X146650647Y-112325733D01*
X146745885Y-112373352D01*
X146793504Y-112420971D01*
X146841123Y-112516209D01*
X146841123Y-112754304D01*
X146793504Y-112849542D01*
X146745885Y-112897161D01*
X146650647Y-112944780D01*
X146364933Y-112944780D01*
X146269695Y-112897161D01*
X146222076Y-112849542D01*
X147222076Y-112040019D02*
X147269695Y-111992400D01*
X147364933Y-111944780D01*
X147603028Y-111944780D01*
X147698266Y-111992400D01*
X147745885Y-112040019D01*
X147793504Y-112135257D01*
X147793504Y-112230495D01*
X147745885Y-112373352D01*
X147174457Y-112944780D01*
X147793504Y-112944780D01*
X100417314Y-112944780D02*
X99845885Y-112944780D01*
X100131600Y-112944780D02*
X100131600Y-111944780D01*
X100036361Y-112087638D01*
X99941123Y-112182876D01*
X99845885Y-112230495D01*
%TO.C,C5*%
X136911142Y-83224666D02*
X136958761Y-83272285D01*
X137006380Y-83415142D01*
X137006380Y-83510380D01*
X136958761Y-83653238D01*
X136863523Y-83748476D01*
X136768285Y-83796095D01*
X136577809Y-83843714D01*
X136434952Y-83843714D01*
X136244476Y-83796095D01*
X136149238Y-83748476D01*
X136054000Y-83653238D01*
X136006380Y-83510380D01*
X136006380Y-83415142D01*
X136054000Y-83272285D01*
X136101619Y-83224666D01*
X136006380Y-82319904D02*
X136006380Y-82796095D01*
X136482571Y-82843714D01*
X136434952Y-82796095D01*
X136387333Y-82700857D01*
X136387333Y-82462761D01*
X136434952Y-82367523D01*
X136482571Y-82319904D01*
X136577809Y-82272285D01*
X136815904Y-82272285D01*
X136911142Y-82319904D01*
X136958761Y-82367523D01*
X137006380Y-82462761D01*
X137006380Y-82700857D01*
X136958761Y-82796095D01*
X136911142Y-82843714D01*
%TO.C,R6*%
X108291333Y-64614380D02*
X107958000Y-64138190D01*
X107719904Y-64614380D02*
X107719904Y-63614380D01*
X108100857Y-63614380D01*
X108196095Y-63662000D01*
X108243714Y-63709619D01*
X108291333Y-63804857D01*
X108291333Y-63947714D01*
X108243714Y-64042952D01*
X108196095Y-64090571D01*
X108100857Y-64138190D01*
X107719904Y-64138190D01*
X109148476Y-63614380D02*
X108958000Y-63614380D01*
X108862761Y-63662000D01*
X108815142Y-63709619D01*
X108719904Y-63852476D01*
X108672285Y-64042952D01*
X108672285Y-64423904D01*
X108719904Y-64519142D01*
X108767523Y-64566761D01*
X108862761Y-64614380D01*
X109053238Y-64614380D01*
X109148476Y-64566761D01*
X109196095Y-64519142D01*
X109243714Y-64423904D01*
X109243714Y-64185809D01*
X109196095Y-64090571D01*
X109148476Y-64042952D01*
X109053238Y-63995333D01*
X108862761Y-63995333D01*
X108767523Y-64042952D01*
X108719904Y-64090571D01*
X108672285Y-64185809D01*
%TO.C,U6*%
X127000095Y-67324380D02*
X127000095Y-68133904D01*
X127047714Y-68229142D01*
X127095333Y-68276761D01*
X127190571Y-68324380D01*
X127381047Y-68324380D01*
X127476285Y-68276761D01*
X127523904Y-68229142D01*
X127571523Y-68133904D01*
X127571523Y-67324380D01*
X128476285Y-67324380D02*
X128285809Y-67324380D01*
X128190571Y-67372000D01*
X128142952Y-67419619D01*
X128047714Y-67562476D01*
X128000095Y-67752952D01*
X128000095Y-68133904D01*
X128047714Y-68229142D01*
X128095333Y-68276761D01*
X128190571Y-68324380D01*
X128381047Y-68324380D01*
X128476285Y-68276761D01*
X128523904Y-68229142D01*
X128571523Y-68133904D01*
X128571523Y-67895809D01*
X128523904Y-67800571D01*
X128476285Y-67752952D01*
X128381047Y-67705333D01*
X128190571Y-67705333D01*
X128095333Y-67752952D01*
X128047714Y-67800571D01*
X128000095Y-67895809D01*
%TO.C,U2*%
X102010380Y-104647904D02*
X102819904Y-104647904D01*
X102915142Y-104600285D01*
X102962761Y-104552666D01*
X103010380Y-104457428D01*
X103010380Y-104266952D01*
X102962761Y-104171714D01*
X102915142Y-104124095D01*
X102819904Y-104076476D01*
X102010380Y-104076476D01*
X102105619Y-103647904D02*
X102058000Y-103600285D01*
X102010380Y-103505047D01*
X102010380Y-103266952D01*
X102058000Y-103171714D01*
X102105619Y-103124095D01*
X102200857Y-103076476D01*
X102296095Y-103076476D01*
X102438952Y-103124095D01*
X103010380Y-103695523D01*
X103010380Y-103076476D01*
%TO.C,Y1*%
X107412190Y-74739690D02*
X107888380Y-74739690D01*
X106888380Y-75073023D02*
X107412190Y-74739690D01*
X106888380Y-74406357D01*
X107888380Y-73549214D02*
X107888380Y-74120642D01*
X107888380Y-73834928D02*
X106888380Y-73834928D01*
X107031238Y-73930166D01*
X107126476Y-74025404D01*
X107174095Y-74120642D01*
%TO.C,C3*%
X98245142Y-69762666D02*
X98292761Y-69810285D01*
X98340380Y-69953142D01*
X98340380Y-70048380D01*
X98292761Y-70191238D01*
X98197523Y-70286476D01*
X98102285Y-70334095D01*
X97911809Y-70381714D01*
X97768952Y-70381714D01*
X97578476Y-70334095D01*
X97483238Y-70286476D01*
X97388000Y-70191238D01*
X97340380Y-70048380D01*
X97340380Y-69953142D01*
X97388000Y-69810285D01*
X97435619Y-69762666D01*
X97340380Y-69429333D02*
X97340380Y-68810285D01*
X97721333Y-69143619D01*
X97721333Y-69000761D01*
X97768952Y-68905523D01*
X97816571Y-68857904D01*
X97911809Y-68810285D01*
X98149904Y-68810285D01*
X98245142Y-68857904D01*
X98292761Y-68905523D01*
X98340380Y-69000761D01*
X98340380Y-69286476D01*
X98292761Y-69381714D01*
X98245142Y-69429333D01*
%TO.C,U9*%
X102354380Y-97281904D02*
X103163904Y-97281904D01*
X103259142Y-97234285D01*
X103306761Y-97186666D01*
X103354380Y-97091428D01*
X103354380Y-96900952D01*
X103306761Y-96805714D01*
X103259142Y-96758095D01*
X103163904Y-96710476D01*
X102354380Y-96710476D01*
X103354380Y-96186666D02*
X103354380Y-95996190D01*
X103306761Y-95900952D01*
X103259142Y-95853333D01*
X103116285Y-95758095D01*
X102925809Y-95710476D01*
X102544857Y-95710476D01*
X102449619Y-95758095D01*
X102402000Y-95805714D01*
X102354380Y-95900952D01*
X102354380Y-96091428D01*
X102402000Y-96186666D01*
X102449619Y-96234285D01*
X102544857Y-96281904D01*
X102782952Y-96281904D01*
X102878190Y-96234285D01*
X102925809Y-96186666D01*
X102973428Y-96091428D01*
X102973428Y-95900952D01*
X102925809Y-95805714D01*
X102878190Y-95758095D01*
X102782952Y-95710476D01*
%TO.C,R1*%
X128060380Y-83478666D02*
X127584190Y-83812000D01*
X128060380Y-84050095D02*
X127060380Y-84050095D01*
X127060380Y-83669142D01*
X127108000Y-83573904D01*
X127155619Y-83526285D01*
X127250857Y-83478666D01*
X127393714Y-83478666D01*
X127488952Y-83526285D01*
X127536571Y-83573904D01*
X127584190Y-83669142D01*
X127584190Y-84050095D01*
X128060380Y-82526285D02*
X128060380Y-83097714D01*
X128060380Y-82812000D02*
X127060380Y-82812000D01*
X127203238Y-82907238D01*
X127298476Y-83002476D01*
X127346095Y-83097714D01*
%TO.C,C6*%
X129545142Y-84770166D02*
X129592761Y-84817785D01*
X129640380Y-84960642D01*
X129640380Y-85055880D01*
X129592761Y-85198738D01*
X129497523Y-85293976D01*
X129402285Y-85341595D01*
X129211809Y-85389214D01*
X129068952Y-85389214D01*
X128878476Y-85341595D01*
X128783238Y-85293976D01*
X128688000Y-85198738D01*
X128640380Y-85055880D01*
X128640380Y-84960642D01*
X128688000Y-84817785D01*
X128735619Y-84770166D01*
X128640380Y-83913023D02*
X128640380Y-84103500D01*
X128688000Y-84198738D01*
X128735619Y-84246357D01*
X128878476Y-84341595D01*
X129068952Y-84389214D01*
X129449904Y-84389214D01*
X129545142Y-84341595D01*
X129592761Y-84293976D01*
X129640380Y-84198738D01*
X129640380Y-84008261D01*
X129592761Y-83913023D01*
X129545142Y-83865404D01*
X129449904Y-83817785D01*
X129211809Y-83817785D01*
X129116571Y-83865404D01*
X129068952Y-83913023D01*
X129021333Y-84008261D01*
X129021333Y-84198738D01*
X129068952Y-84293976D01*
X129116571Y-84341595D01*
X129211809Y-84389214D01*
%TO.C,C9*%
X121055833Y-82601142D02*
X121008214Y-82648761D01*
X120865357Y-82696380D01*
X120770119Y-82696380D01*
X120627261Y-82648761D01*
X120532023Y-82553523D01*
X120484404Y-82458285D01*
X120436785Y-82267809D01*
X120436785Y-82124952D01*
X120484404Y-81934476D01*
X120532023Y-81839238D01*
X120627261Y-81744000D01*
X120770119Y-81696380D01*
X120865357Y-81696380D01*
X121008214Y-81744000D01*
X121055833Y-81791619D01*
X121532023Y-82696380D02*
X121722500Y-82696380D01*
X121817738Y-82648761D01*
X121865357Y-82601142D01*
X121960595Y-82458285D01*
X122008214Y-82267809D01*
X122008214Y-81886857D01*
X121960595Y-81791619D01*
X121912976Y-81744000D01*
X121817738Y-81696380D01*
X121627261Y-81696380D01*
X121532023Y-81744000D01*
X121484404Y-81791619D01*
X121436785Y-81886857D01*
X121436785Y-82124952D01*
X121484404Y-82220190D01*
X121532023Y-82267809D01*
X121627261Y-82315428D01*
X121817738Y-82315428D01*
X121912976Y-82267809D01*
X121960595Y-82220190D01*
X122008214Y-82124952D01*
D11*
%TO.C,R4*%
X118196379Y-82676000D02*
X118531621Y-82676000D01*
X118196379Y-81916000D02*
X118531621Y-81916000D01*
%TO.C,J3*%
X132340000Y-79808000D02*
X133740000Y-79808000D01*
X144560000Y-79808000D02*
X147060000Y-79808000D01*
X132340000Y-79808000D02*
X132340000Y-65988000D01*
X144560000Y-65988000D02*
X147060000Y-65988000D01*
X132340000Y-65988000D02*
X133740000Y-65988000D01*
X136260000Y-65988000D02*
X142040000Y-65988000D01*
X147060000Y-79808000D02*
X147060000Y-65988000D01*
X142040000Y-79808000D02*
X136260000Y-79808000D01*
%TO.C,J2*%
X116241000Y-66307000D02*
X116641000Y-65857000D01*
X119191000Y-60257000D02*
X119191000Y-63057000D01*
X119491000Y-63057000D02*
X119191000Y-63057000D01*
X111491000Y-63057000D02*
X111191000Y-63057000D01*
X116641000Y-65857000D02*
X117041000Y-66307000D01*
X111191000Y-63057000D02*
X111191000Y-64607000D01*
X117041000Y-66307000D02*
X116241000Y-66307000D01*
X119491000Y-63057000D02*
X119491000Y-64607000D01*
X111491000Y-60257000D02*
X111491000Y-63057000D01*
%TO.C,D2*%
X101180000Y-108736000D02*
X99480000Y-108736000D01*
X99480000Y-108736000D02*
X99480000Y-111286000D01*
X101180000Y-108736000D02*
X101180000Y-111286000D01*
%TO.C,C7*%
X139177752Y-83593000D02*
X138655248Y-83593000D01*
X139177752Y-85063000D02*
X138655248Y-85063000D01*
%TO.C,C4*%
X108726248Y-82323000D02*
X109248752Y-82323000D01*
X108726248Y-83793000D02*
X109248752Y-83793000D01*
%TO.C,R2*%
X115442000Y-66888379D02*
X115442000Y-67223621D01*
X114682000Y-66888379D02*
X114682000Y-67223621D01*
%TO.C,U8*%
X131572000Y-84364000D02*
X130772000Y-84364000D01*
X131572000Y-81244000D02*
X129772000Y-81244000D01*
X131572000Y-81244000D02*
X132372000Y-81244000D01*
X131572000Y-84364000D02*
X132372000Y-84364000D01*
%TO.C,U3*%
X106062000Y-91886000D02*
X106062000Y-90486000D01*
X103742000Y-90486000D02*
X103742000Y-92386000D01*
D10*
%TO.C,U1*%
X118675000Y-80105000D02*
X118000000Y-80105000D01*
X118675000Y-80105000D02*
X118675000Y-79430000D01*
X108325000Y-80105000D02*
X109000000Y-80105000D01*
X118100000Y-69755000D02*
X118100000Y-68480000D01*
X108325000Y-69755000D02*
X109000000Y-69755000D01*
X118675000Y-69755000D02*
X118675000Y-70430000D01*
X108325000Y-69755000D02*
X108325000Y-70430000D01*
X108325000Y-80105000D02*
X108325000Y-79430000D01*
X118675000Y-69755000D02*
X118100000Y-69755000D01*
D11*
%TO.C,JP1*%
X142704000Y-85918000D02*
X142704000Y-87868000D01*
X137204000Y-85918000D02*
X142704000Y-85918000D01*
X142704000Y-87868000D02*
X137204000Y-87868000D01*
X137204000Y-87868000D02*
X137204000Y-85918000D01*
%TO.C,R3*%
X116458000Y-66888379D02*
X116458000Y-67223621D01*
X115698000Y-66888379D02*
X115698000Y-67223621D01*
%TO.C,C1*%
X131833252Y-86333000D02*
X131310748Y-86333000D01*
X131833252Y-84863000D02*
X131310748Y-84863000D01*
%TO.C,C8*%
X112783252Y-66321000D02*
X112260748Y-66321000D01*
X112783252Y-67791000D02*
X112260748Y-67791000D01*
%TO.C,U4*%
X107462000Y-94742000D02*
X107462000Y-92792000D01*
X117582000Y-94742000D02*
X117582000Y-96692000D01*
X117582000Y-94742000D02*
X117582000Y-92792000D01*
X107462000Y-94742000D02*
X107462000Y-98192000D01*
%TO.C,U7*%
X127256000Y-67708000D02*
X129156000Y-67708000D01*
X128656000Y-65388000D02*
X127256000Y-65388000D01*
%TO.C,R5*%
X120982121Y-81916000D02*
X120646879Y-81916000D01*
X120982121Y-82676000D02*
X120646879Y-82676000D01*
%TO.C,U5*%
X133000000Y-100584000D02*
X133000000Y-109784000D01*
X141320000Y-100584000D02*
X141320000Y-109784000D01*
X133000000Y-100584000D02*
X133000000Y-91384000D01*
X141320000Y-100584000D02*
X141320000Y-90109000D01*
%TO.C,C2*%
X100303000Y-77992248D02*
X100303000Y-78514752D01*
X98833000Y-77992248D02*
X98833000Y-78514752D01*
%TO.C,D1*%
X119864000Y-66206000D02*
X117314000Y-66206000D01*
X119864000Y-67906000D02*
X117314000Y-67906000D01*
X119864000Y-67906000D02*
X119864000Y-66206000D01*
%TO.C,C5*%
X134139000Y-82796748D02*
X134139000Y-83319252D01*
X135609000Y-82796748D02*
X135609000Y-83319252D01*
%TO.C,R6*%
X108625621Y-63372000D02*
X108290379Y-63372000D01*
X108625621Y-62612000D02*
X108290379Y-62612000D01*
%TO.C,U6*%
X127762000Y-77587000D02*
X125812000Y-77587000D01*
X127762000Y-68717000D02*
X129712000Y-68717000D01*
X127762000Y-77587000D02*
X129712000Y-77587000D01*
X127762000Y-68717000D02*
X124312000Y-68717000D01*
%TO.C,U2*%
X113518000Y-103886000D02*
X113518000Y-101936000D01*
X103398000Y-103886000D02*
X103398000Y-107336000D01*
X113518000Y-103886000D02*
X113518000Y-105836000D01*
X103398000Y-103886000D02*
X103398000Y-101936000D01*
%TO.C,Y1*%
X106436000Y-80163500D02*
X106436000Y-64188500D01*
X106436000Y-64188500D02*
X101336000Y-64188500D01*
X101336000Y-64188500D02*
X101336000Y-80163500D01*
%TO.C,C3*%
X100303000Y-69857252D02*
X100303000Y-69334748D01*
X98833000Y-69857252D02*
X98833000Y-69334748D01*
%TO.C,U9*%
X106062000Y-97220000D02*
X106062000Y-95820000D01*
X103742000Y-95820000D02*
X103742000Y-97720000D01*
%TO.C,R1*%
X129158000Y-83479621D02*
X129158000Y-83144379D01*
X128398000Y-83479621D02*
X128398000Y-83144379D01*
%TO.C,C6*%
X126265000Y-81548248D02*
X126265000Y-82070752D01*
X127735000Y-81548248D02*
X127735000Y-82070752D01*
%TO.C,C9*%
X124872500Y-83084000D02*
X116812500Y-83084000D01*
X116812500Y-87604000D02*
X124872500Y-87604000D01*
X116812500Y-83084000D02*
X116812500Y-87604000D01*
%TD*%
M02*
