%TF.GenerationSoftware,KiCad,Pcbnew,(6.0.9)*%
%TF.CreationDate,2023-01-10T17:41:50+01:00*%
%TF.ProjectId,gbcart,67626361-7274-42e6-9b69-6361645f7063,rev?*%
%TF.SameCoordinates,Original*%
%TF.FileFunction,Copper,L1,Top*%
%TF.FilePolarity,Positive*%
%FSLAX46Y46*%
G04 Gerber Fmt 4.6, Leading zero omitted, Abs format (unit mm)*
G04 Created by KiCad (PCBNEW (6.0.9)) date 2023-01-10 17:41:50*
%MOMM*%
%LPD*%
G01*
G04 APERTURE LIST*
G04 Aperture macros list*
%AMRoundRect*
0 Rectangle with rounded corners*
0 $1 Rounding radius*
0 $2 $3 $4 $5 $6 $7 $8 $9 X,Y pos of 4 corners*
0 Add a 4 corners polygon primitive as box body*
4,1,4,$2,$3,$4,$5,$6,$7,$8,$9,$2,$3,0*
0 Add four circle primitives for the rounded corners*
1,1,$1+$1,$2,$3*
1,1,$1+$1,$4,$5*
1,1,$1+$1,$6,$7*
1,1,$1+$1,$8,$9*
0 Add four rect primitives between the rounded corners*
20,1,$1+$1,$2,$3,$4,$5,0*
20,1,$1+$1,$4,$5,$6,$7,0*
20,1,$1+$1,$6,$7,$8,$9,0*
20,1,$1+$1,$8,$9,$2,$3,0*%
%AMFreePoly0*
4,1,6,1.000000,0.000000,0.500000,-0.750000,-0.500000,-0.750000,-0.500000,0.750000,0.500000,0.750000,1.000000,0.000000,1.000000,0.000000,$1*%
%AMFreePoly1*
4,1,7,0.700000,0.000000,1.200000,-0.750000,-1.200000,-0.750000,-0.700000,0.000000,-1.200000,0.750000,1.200000,0.750000,0.700000,0.000000,0.700000,0.000000,$1*%
G04 Aperture macros list end*
%TA.AperFunction,SMDPad,CuDef*%
%ADD10RoundRect,0.160000X-0.197500X-0.160000X0.197500X-0.160000X0.197500X0.160000X-0.197500X0.160000X0*%
%TD*%
%TA.AperFunction,SMDPad,CuDef*%
%ADD11R,1.500000X0.800000*%
%TD*%
%TA.AperFunction,SMDPad,CuDef*%
%ADD12RoundRect,0.362500X0.637500X-0.362500X0.637500X0.362500X-0.637500X0.362500X-0.637500X-0.362500X0*%
%TD*%
%TA.AperFunction,SMDPad,CuDef*%
%ADD13R,0.400000X1.650000*%
%TD*%
%TA.AperFunction,ComponentPad*%
%ADD14O,1.100000X1.500000*%
%TD*%
%TA.AperFunction,SMDPad,CuDef*%
%ADD15R,1.350000X2.000000*%
%TD*%
%TA.AperFunction,ComponentPad*%
%ADD16O,1.350000X1.700000*%
%TD*%
%TA.AperFunction,SMDPad,CuDef*%
%ADD17R,2.000000X1.500000*%
%TD*%
%TA.AperFunction,SMDPad,CuDef*%
%ADD18R,1.430000X2.500000*%
%TD*%
%TA.AperFunction,SMDPad,CuDef*%
%ADD19R,1.825000X0.700000*%
%TD*%
%TA.AperFunction,SMDPad,CuDef*%
%ADD20R,0.450000X0.600000*%
%TD*%
%TA.AperFunction,SMDPad,CuDef*%
%ADD21RoundRect,0.250000X0.337500X0.475000X-0.337500X0.475000X-0.337500X-0.475000X0.337500X-0.475000X0*%
%TD*%
%TA.AperFunction,SMDPad,CuDef*%
%ADD22RoundRect,0.250000X-0.337500X-0.475000X0.337500X-0.475000X0.337500X0.475000X-0.337500X0.475000X0*%
%TD*%
%TA.AperFunction,SMDPad,CuDef*%
%ADD23RoundRect,0.160000X-0.160000X0.197500X-0.160000X-0.197500X0.160000X-0.197500X0.160000X0.197500X0*%
%TD*%
%TA.AperFunction,SMDPad,CuDef*%
%ADD24RoundRect,0.150000X-0.512500X-0.150000X0.512500X-0.150000X0.512500X0.150000X-0.512500X0.150000X0*%
%TD*%
%TA.AperFunction,SMDPad,CuDef*%
%ADD25R,0.400000X1.500000*%
%TD*%
%TA.AperFunction,SMDPad,CuDef*%
%ADD26R,0.550000X1.500000*%
%TD*%
%TA.AperFunction,SMDPad,CuDef*%
%ADD27R,1.500000X0.550000*%
%TD*%
%TA.AperFunction,SMDPad,CuDef*%
%ADD28FreePoly0,180.000000*%
%TD*%
%TA.AperFunction,SMDPad,CuDef*%
%ADD29FreePoly1,180.000000*%
%TD*%
%TA.AperFunction,SMDPad,CuDef*%
%ADD30FreePoly0,0.000000*%
%TD*%
%TA.AperFunction,SMDPad,CuDef*%
%ADD31RoundRect,0.150000X0.150000X-0.725000X0.150000X0.725000X-0.150000X0.725000X-0.150000X-0.725000X0*%
%TD*%
%TA.AperFunction,SMDPad,CuDef*%
%ADD32R,1.500000X0.400000*%
%TD*%
%TA.AperFunction,SMDPad,CuDef*%
%ADD33RoundRect,0.160000X0.197500X0.160000X-0.197500X0.160000X-0.197500X-0.160000X0.197500X-0.160000X0*%
%TD*%
%TA.AperFunction,SMDPad,CuDef*%
%ADD34RoundRect,0.075000X-0.075000X0.712500X-0.075000X-0.712500X0.075000X-0.712500X0.075000X0.712500X0*%
%TD*%
%TA.AperFunction,SMDPad,CuDef*%
%ADD35RoundRect,0.250000X-0.475000X0.337500X-0.475000X-0.337500X0.475000X-0.337500X0.475000X0.337500X0*%
%TD*%
%TA.AperFunction,SMDPad,CuDef*%
%ADD36R,0.600000X0.450000*%
%TD*%
%TA.AperFunction,ConnectorPad*%
%ADD37R,1.300000X6.000000*%
%TD*%
%TA.AperFunction,ConnectorPad*%
%ADD38R,1.000000X5.500000*%
%TD*%
%TA.AperFunction,SMDPad,CuDef*%
%ADD39RoundRect,0.150000X-0.825000X-0.150000X0.825000X-0.150000X0.825000X0.150000X-0.825000X0.150000X0*%
%TD*%
%TA.AperFunction,SMDPad,CuDef*%
%ADD40R,2.000000X7.875000*%
%TD*%
%TA.AperFunction,SMDPad,CuDef*%
%ADD41RoundRect,0.250000X0.475000X-0.337500X0.475000X0.337500X-0.475000X0.337500X-0.475000X-0.337500X0*%
%TD*%
%TA.AperFunction,SMDPad,CuDef*%
%ADD42RoundRect,0.160000X0.160000X-0.197500X0.160000X0.197500X-0.160000X0.197500X-0.160000X-0.197500X0*%
%TD*%
%TA.AperFunction,SMDPad,CuDef*%
%ADD43RoundRect,0.250000X-0.787500X-1.025000X0.787500X-1.025000X0.787500X1.025000X-0.787500X1.025000X0*%
%TD*%
%TA.AperFunction,ViaPad*%
%ADD44C,0.800000*%
%TD*%
%TA.AperFunction,Conductor*%
%ADD45C,0.250000*%
%TD*%
G04 APERTURE END LIST*
D10*
%TO.P,R4,1*%
%TO.N,Net-(U1-Pad33)*%
X117766500Y-82296000D03*
%TO.P,R4,2*%
%TO.N,GND*%
X118961500Y-82296000D03*
%TD*%
D11*
%TO.P,J3,1,DAT2*%
%TO.N,unconnected-(J3-Pad1)*%
X137600000Y-76103000D03*
%TO.P,J3,2,DAT3/CD*%
%TO.N,Net-(J3-Pad2)*%
X137600000Y-75003000D03*
%TO.P,J3,3,CMD*%
%TO.N,Net-(J3-Pad3)*%
X137600000Y-73903000D03*
%TO.P,J3,4,VDD*%
%TO.N,+3.3V*%
X137600000Y-72803000D03*
%TO.P,J3,5,CLK*%
%TO.N,Net-(J3-Pad5)*%
X137600000Y-71703000D03*
%TO.P,J3,6,VSS*%
%TO.N,GND*%
X137600000Y-70603000D03*
%TO.P,J3,7,DAT0*%
%TO.N,Net-(J3-Pad7)*%
X137600000Y-69503000D03*
%TO.P,J3,8,DAT1*%
%TO.N,unconnected-(J3-Pad8)*%
X137600000Y-68403000D03*
D12*
%TO.P,J3,9,SHIELD*%
%TO.N,GND*%
X143300000Y-66023000D03*
X135000000Y-79773000D03*
X135000000Y-66023000D03*
X143300000Y-79773000D03*
%TD*%
D13*
%TO.P,J2,1,VBUS*%
%TO.N,Net-(D1-Pad2)*%
X116641000Y-64757000D03*
%TO.P,J2,2,D-*%
%TO.N,Net-(J2-Pad2)*%
X115991000Y-64757000D03*
%TO.P,J2,3,D+*%
%TO.N,Net-(J2-Pad3)*%
X115341000Y-64757000D03*
%TO.P,J2,4,ID*%
%TO.N,unconnected-(J2-Pad4)*%
X114691000Y-64757000D03*
%TO.P,J2,5,GND*%
%TO.N,GND*%
X114041000Y-64757000D03*
D14*
%TO.P,J2,6,Shield*%
%TO.N,unconnected-(J2-Pad6)*%
X117761000Y-64877000D03*
D15*
X118071000Y-62807000D03*
D16*
X112611000Y-61877000D03*
D17*
X112441000Y-64877000D03*
D18*
X116301000Y-61607000D03*
D19*
X112341000Y-63557000D03*
D15*
X112591000Y-62807000D03*
D17*
X118191000Y-64857000D03*
D14*
X112921000Y-64877000D03*
D16*
X118071000Y-61877000D03*
D19*
X118291000Y-63557000D03*
D18*
X114381000Y-61607000D03*
%TD*%
D20*
%TO.P,D2,1,K*%
%TO.N,+5V*%
X100330000Y-109186000D03*
%TO.P,D2,2,A*%
%TO.N,Net-(D2-Pad2)*%
X100330000Y-111286000D03*
%TD*%
D21*
%TO.P,C7,1*%
%TO.N,GND*%
X139954000Y-84328000D03*
%TO.P,C7,2*%
%TO.N,+5V*%
X137879000Y-84328000D03*
%TD*%
D22*
%TO.P,C4,1*%
%TO.N,GND*%
X107950000Y-83058000D03*
%TO.P,C4,2*%
%TO.N,+5V*%
X110025000Y-83058000D03*
%TD*%
D23*
%TO.P,R2,1*%
%TO.N,Net-(J2-Pad3)*%
X115062000Y-66458500D03*
%TO.P,R2,2*%
%TO.N,Net-(R2-Pad2)*%
X115062000Y-67653500D03*
%TD*%
D24*
%TO.P,U8,1,VIN*%
%TO.N,+5V*%
X130434500Y-81854000D03*
%TO.P,U8,2,GND*%
%TO.N,GND*%
X130434500Y-82804000D03*
%TO.P,U8,3,INH*%
%TO.N,Net-(R1-Pad1)*%
X130434500Y-83754000D03*
%TO.P,U8,4,BYP*%
%TO.N,Net-(C1-Pad1)*%
X132709500Y-83754000D03*
%TO.P,U8,5,VOUT*%
%TO.N,+3.3V*%
X132709500Y-81854000D03*
%TD*%
D25*
%TO.P,U3,1*%
%TO.N,Net-(U3-Pad1)*%
X104252000Y-92516000D03*
%TO.P,U3,2*%
%TO.N,/MOSI*%
X104902000Y-92516000D03*
%TO.P,U3,3,GND*%
%TO.N,GND*%
X105552000Y-92516000D03*
%TO.P,U3,4*%
%TO.N,/GB.D7*%
X105552000Y-89856000D03*
%TO.P,U3,5,VCC*%
%TO.N,+5V*%
X104252000Y-89856000D03*
%TD*%
D26*
%TO.P,U1,1,PE6*%
%TO.N,unconnected-(U1-Pad1)*%
X117500000Y-69230000D03*
%TO.P,U1,2,UVCC*%
%TO.N,+5V*%
X116700000Y-69230000D03*
%TO.P,U1,3,D-*%
%TO.N,Net-(R3-Pad2)*%
X115900000Y-69230000D03*
%TO.P,U1,4,D+*%
%TO.N,Net-(R2-Pad2)*%
X115100000Y-69230000D03*
%TO.P,U1,5,UGND*%
%TO.N,GND*%
X114300000Y-69230000D03*
%TO.P,U1,6,UCAP*%
%TO.N,Net-(U1-Pad6)*%
X113500000Y-69230000D03*
%TO.P,U1,7,VBUS*%
%TO.N,Net-(D1-Pad2)*%
X112700000Y-69230000D03*
%TO.P,U1,8,PB0*%
%TO.N,/SS*%
X111900000Y-69230000D03*
%TO.P,U1,9,PB1*%
%TO.N,/SCL*%
X111100000Y-69230000D03*
%TO.P,U1,10,PB2*%
%TO.N,/MOSI*%
X110300000Y-69230000D03*
%TO.P,U1,11,PB3*%
%TO.N,/MISO*%
X109500000Y-69230000D03*
D27*
%TO.P,U1,12,PB7*%
%TO.N,unconnected-(U1-Pad12)*%
X107800000Y-70930000D03*
%TO.P,U1,13,~{RESET}*%
%TO.N,Net-(U1-Pad13)*%
X107800000Y-71730000D03*
%TO.P,U1,14,VCC*%
%TO.N,+5V*%
X107800000Y-72530000D03*
%TO.P,U1,15,GND*%
%TO.N,GND*%
X107800000Y-73330000D03*
%TO.P,U1,16,XTAL2*%
%TO.N,Net-(C3-Pad2)*%
X107800000Y-74130000D03*
%TO.P,U1,17,XTAL1*%
%TO.N,Net-(C2-Pad2)*%
X107800000Y-74930000D03*
%TO.P,U1,18,PD0*%
%TO.N,/IRQ*%
X107800000Y-75730000D03*
%TO.P,U1,19,PD1*%
%TO.N,unconnected-(U1-Pad19)*%
X107800000Y-76530000D03*
%TO.P,U1,20,PD2*%
%TO.N,unconnected-(U1-Pad20)*%
X107800000Y-77330000D03*
%TO.P,U1,21,PD3*%
%TO.N,unconnected-(U1-Pad21)*%
X107800000Y-78130000D03*
%TO.P,U1,22,PD5*%
%TO.N,unconnected-(U1-Pad22)*%
X107800000Y-78930000D03*
D26*
%TO.P,U1,23,GND*%
%TO.N,GND*%
X109500000Y-80630000D03*
%TO.P,U1,24,AVCC*%
%TO.N,+5V*%
X110300000Y-80630000D03*
%TO.P,U1,25,PD4*%
%TO.N,unconnected-(U1-Pad25)*%
X111100000Y-80630000D03*
%TO.P,U1,26,PD6*%
%TO.N,unconnected-(U1-Pad26)*%
X111900000Y-80630000D03*
%TO.P,U1,27,PD7*%
%TO.N,/GB.~{RST}*%
X112700000Y-80630000D03*
%TO.P,U1,28,PB4*%
%TO.N,unconnected-(U1-Pad28)*%
X113500000Y-80630000D03*
%TO.P,U1,29,PB5*%
%TO.N,unconnected-(U1-Pad29)*%
X114300000Y-80630000D03*
%TO.P,U1,30,PB6*%
%TO.N,unconnected-(U1-Pad30)*%
X115100000Y-80630000D03*
%TO.P,U1,31,PC6*%
%TO.N,unconnected-(U1-Pad31)*%
X115900000Y-80630000D03*
%TO.P,U1,32,PC7*%
%TO.N,Net-(U1-Pad32)*%
X116700000Y-80630000D03*
%TO.P,U1,33,~{HWB}/PE2*%
%TO.N,Net-(U1-Pad33)*%
X117500000Y-80630000D03*
D27*
%TO.P,U1,34,VCC*%
%TO.N,+5V*%
X119200000Y-78930000D03*
%TO.P,U1,35,GND*%
%TO.N,GND*%
X119200000Y-78130000D03*
%TO.P,U1,36,PF7*%
%TO.N,Net-(R1-Pad1)*%
X119200000Y-77330000D03*
%TO.P,U1,37,PF6*%
%TO.N,unconnected-(U1-Pad37)*%
X119200000Y-76530000D03*
%TO.P,U1,38,PF5*%
%TO.N,Net-(U1-Pad38)*%
X119200000Y-75730000D03*
%TO.P,U1,39,PF4*%
%TO.N,Net-(U1-Pad39)*%
X119200000Y-74930000D03*
%TO.P,U1,40,PF1*%
%TO.N,Net-(U1-Pad40)*%
X119200000Y-74130000D03*
%TO.P,U1,41,PF0*%
%TO.N,Net-(U1-Pad41)*%
X119200000Y-73330000D03*
%TO.P,U1,42,AREF*%
%TO.N,unconnected-(U1-Pad42)*%
X119200000Y-72530000D03*
%TO.P,U1,43,GND*%
%TO.N,GND*%
X119200000Y-71730000D03*
%TO.P,U1,44,AVCC*%
%TO.N,+5V*%
X119200000Y-70930000D03*
%TD*%
D28*
%TO.P,JP1,1,A*%
%TO.N,/GB.~{WR}*%
X141954000Y-86868000D03*
D29*
%TO.P,JP1,2,C*%
%TO.N,Net-(JP1-Pad2)*%
X139954000Y-86868000D03*
D30*
%TO.P,JP1,3,B*%
%TO.N,+5V*%
X137954000Y-86868000D03*
%TD*%
D23*
%TO.P,R3,1*%
%TO.N,Net-(J2-Pad2)*%
X116078000Y-66458500D03*
%TO.P,R3,2*%
%TO.N,Net-(R3-Pad2)*%
X116078000Y-67653500D03*
%TD*%
D21*
%TO.P,C1,1*%
%TO.N,Net-(C1-Pad1)*%
X132609500Y-85598000D03*
%TO.P,C1,2*%
%TO.N,GND*%
X130534500Y-85598000D03*
%TD*%
%TO.P,C8,1*%
%TO.N,Net-(U1-Pad6)*%
X113559500Y-67056000D03*
%TO.P,C8,2*%
%TO.N,GND*%
X111484500Y-67056000D03*
%TD*%
D31*
%TO.P,U4,1,A0*%
%TO.N,/GB.A0*%
X108077000Y-97317000D03*
%TO.P,U4,2,A1*%
%TO.N,/GB.A1*%
X109347000Y-97317000D03*
%TO.P,U4,3,A2*%
%TO.N,/GB.A2*%
X110617000Y-97317000D03*
%TO.P,U4,4,Q0*%
%TO.N,/IRQ*%
X111887000Y-97317000D03*
%TO.P,U4,5,Q1*%
%TO.N,/MISO*%
X113157000Y-97317000D03*
%TO.P,U4,6,Q2*%
%TO.N,/SS*%
X114427000Y-97317000D03*
%TO.P,U4,7,Q3*%
%TO.N,unconnected-(U4-Pad7)*%
X115697000Y-97317000D03*
%TO.P,U4,8,GND*%
%TO.N,GND*%
X116967000Y-97317000D03*
%TO.P,U4,9,Q4*%
%TO.N,Net-(U4-Pad9)*%
X116967000Y-92167000D03*
%TO.P,U4,10,Q5*%
%TO.N,Net-(U4-Pad10)*%
X115697000Y-92167000D03*
%TO.P,U4,11,Q6*%
%TO.N,unconnected-(U4-Pad11)*%
X114427000Y-92167000D03*
%TO.P,U4,12,Q7*%
%TO.N,Net-(U5-Pad6)*%
X113157000Y-92167000D03*
%TO.P,U4,13,D*%
%TO.N,/GB.D7*%
X111887000Y-92167000D03*
%TO.P,U4,14,E*%
%TO.N,Net-(U4-Pad14)*%
X110617000Y-92167000D03*
%TO.P,U4,15,Clr*%
%TO.N,/GB.~{RST}*%
X109347000Y-92167000D03*
%TO.P,U4,16,VCC*%
%TO.N,+5V*%
X108077000Y-92167000D03*
%TD*%
D32*
%TO.P,U7,1*%
%TO.N,GND*%
X129286000Y-67198000D03*
%TO.P,U7,2*%
%TO.N,Net-(J3-Pad7)*%
X129286000Y-66548000D03*
%TO.P,U7,3,GND*%
%TO.N,GND*%
X129286000Y-65898000D03*
%TO.P,U7,4*%
%TO.N,Net-(U1-Pad41)*%
X126626000Y-65898000D03*
%TO.P,U7,5,VCC*%
%TO.N,+5V*%
X126626000Y-67198000D03*
%TD*%
D33*
%TO.P,R5,1*%
%TO.N,/GB.AUDIO*%
X121412000Y-82296000D03*
%TO.P,R5,2*%
%TO.N,GND*%
X120217000Y-82296000D03*
%TD*%
D34*
%TO.P,U5,1,A11*%
%TO.N,/GB.A11*%
X140910000Y-90896500D03*
%TO.P,U5,2,A9*%
%TO.N,/GB.A9*%
X140410000Y-90896500D03*
%TO.P,U5,3,A8*%
%TO.N,/GB.A8*%
X139910000Y-90896500D03*
%TO.P,U5,4,A13*%
%TO.N,/GB.A13*%
X139410000Y-90896500D03*
%TO.P,U5,5,A14*%
%TO.N,/GB.A14*%
X138910000Y-90896500D03*
%TO.P,U5,6,A17*%
%TO.N,Net-(U5-Pad6)*%
X138410000Y-90896500D03*
%TO.P,U5,7,WE*%
%TO.N,Net-(JP1-Pad2)*%
X137910000Y-90896500D03*
%TO.P,U5,8,VCC*%
%TO.N,+5V*%
X137410000Y-90896500D03*
%TO.P,U5,9,A18*%
%TO.N,unconnected-(U5-Pad9)*%
X136910000Y-90896500D03*
%TO.P,U5,10,A16*%
%TO.N,Net-(U4-Pad10)*%
X136410000Y-90896500D03*
%TO.P,U5,11,A15*%
%TO.N,Net-(U4-Pad9)*%
X135910000Y-90896500D03*
%TO.P,U5,12,A12*%
%TO.N,/GB.A12*%
X135410000Y-90896500D03*
%TO.P,U5,13,A7*%
%TO.N,/GB.A7*%
X134910000Y-90896500D03*
%TO.P,U5,14,A6*%
%TO.N,/GB.A6*%
X134410000Y-90896500D03*
%TO.P,U5,15,A5*%
%TO.N,/GB.A5*%
X133910000Y-90896500D03*
%TO.P,U5,16,A4*%
%TO.N,/GB.A4*%
X133410000Y-90896500D03*
%TO.P,U5,17,A3*%
%TO.N,/GB.A3*%
X133410000Y-110271500D03*
%TO.P,U5,18,A2*%
%TO.N,/GB.A2*%
X133910000Y-110271500D03*
%TO.P,U5,19,A1*%
%TO.N,/GB.A1*%
X134410000Y-110271500D03*
%TO.P,U5,20,A0*%
%TO.N,/GB.A0*%
X134910000Y-110271500D03*
%TO.P,U5,21,D0*%
%TO.N,/GB.D0*%
X135410000Y-110271500D03*
%TO.P,U5,22,D1*%
%TO.N,/GB.D1*%
X135910000Y-110271500D03*
%TO.P,U5,23,D2*%
%TO.N,/GB.D2*%
X136410000Y-110271500D03*
%TO.P,U5,24,GND*%
%TO.N,GND*%
X136910000Y-110271500D03*
%TO.P,U5,25,D3*%
%TO.N,/GB.D3*%
X137410000Y-110271500D03*
%TO.P,U5,26,D4*%
%TO.N,/GB.D4*%
X137910000Y-110271500D03*
%TO.P,U5,27,D5*%
%TO.N,/GB.D5*%
X138410000Y-110271500D03*
%TO.P,U5,28,D6*%
%TO.N,/GB.D6*%
X138910000Y-110271500D03*
%TO.P,U5,29,D7*%
%TO.N,/GB.D7*%
X139410000Y-110271500D03*
%TO.P,U5,30,CE*%
%TO.N,/GB.A15*%
X139910000Y-110271500D03*
%TO.P,U5,31,A10*%
%TO.N,/GB.A10*%
X140410000Y-110271500D03*
%TO.P,U5,32,OE*%
%TO.N,/GB.~{RD}*%
X140910000Y-110271500D03*
%TD*%
D35*
%TO.P,C2,1*%
%TO.N,GND*%
X99568000Y-77216000D03*
%TO.P,C2,2*%
%TO.N,Net-(C2-Pad2)*%
X99568000Y-79291000D03*
%TD*%
D36*
%TO.P,D1,1,K*%
%TO.N,+5V*%
X119414000Y-67056000D03*
%TO.P,D1,2,A*%
%TO.N,Net-(D1-Pad2)*%
X117314000Y-67056000D03*
%TD*%
D37*
%TO.P,J1,1,Pin_1*%
%TO.N,Net-(D2-Pad2)*%
X100431600Y-116992400D03*
D38*
%TO.P,J1,2,Pin_2*%
%TO.N,/GB.PHI*%
X102081600Y-116742400D03*
%TO.P,J1,3,Pin_3*%
%TO.N,/GB.~{WR}*%
X103581600Y-116742400D03*
%TO.P,J1,4,Pin_4*%
%TO.N,/GB.~{RD}*%
X105081600Y-116742400D03*
%TO.P,J1,5,Pin_5*%
%TO.N,/GB.~{CS}*%
X106581600Y-116742400D03*
%TO.P,J1,6,Pin_6*%
%TO.N,/GB.A0*%
X108081600Y-116742400D03*
%TO.P,J1,7,Pin_7*%
%TO.N,/GB.A1*%
X109581600Y-116742400D03*
%TO.P,J1,8,Pin_8*%
%TO.N,/GB.A2*%
X111081600Y-116742400D03*
%TO.P,J1,9,Pin_9*%
%TO.N,/GB.A3*%
X112581600Y-116742400D03*
%TO.P,J1,10,Pin_10*%
%TO.N,/GB.A4*%
X114081600Y-116742400D03*
%TO.P,J1,11,Pin_11*%
%TO.N,/GB.A5*%
X115581600Y-116742400D03*
%TO.P,J1,12,Pin_12*%
%TO.N,/GB.A6*%
X117081600Y-116742400D03*
%TO.P,J1,13,Pin_13*%
%TO.N,/GB.A7*%
X118581600Y-116742400D03*
%TO.P,J1,14,Pin_14*%
%TO.N,/GB.A8*%
X120081600Y-116742400D03*
%TO.P,J1,15,Pin_15*%
%TO.N,/GB.A9*%
X121581600Y-116742400D03*
%TO.P,J1,16,Pin_16*%
%TO.N,/GB.A10*%
X123081600Y-116742400D03*
%TO.P,J1,17,Pin_17*%
%TO.N,/GB.A11*%
X124581600Y-116742400D03*
%TO.P,J1,18,Pin_18*%
%TO.N,/GB.A12*%
X126081600Y-116742400D03*
%TO.P,J1,19,Pin_19*%
%TO.N,/GB.A13*%
X127581600Y-116742400D03*
%TO.P,J1,20,Pin_20*%
%TO.N,/GB.A14*%
X129081600Y-116742400D03*
%TO.P,J1,21,Pin_21*%
%TO.N,/GB.A15*%
X130581600Y-116742400D03*
%TO.P,J1,22,Pin_22*%
%TO.N,/GB.D0*%
X132081600Y-116742400D03*
%TO.P,J1,23,Pin_23*%
%TO.N,/GB.D1*%
X133581600Y-116742400D03*
%TO.P,J1,24,Pin_24*%
%TO.N,/GB.D2*%
X135081600Y-116742400D03*
%TO.P,J1,25,Pin_25*%
%TO.N,/GB.D3*%
X136581600Y-116742400D03*
%TO.P,J1,26,Pin_26*%
%TO.N,/GB.D4*%
X138081600Y-116742400D03*
%TO.P,J1,27,Pin_27*%
%TO.N,/GB.D5*%
X139581600Y-116742400D03*
%TO.P,J1,28,Pin_28*%
%TO.N,/GB.D6*%
X141081600Y-116742400D03*
%TO.P,J1,29,Pin_29*%
%TO.N,/GB.D7*%
X142581600Y-116742400D03*
%TO.P,J1,30,Pin_30*%
%TO.N,/GB.~{RST}*%
X144081600Y-116742400D03*
%TO.P,J1,31,Pin_31*%
%TO.N,/GB.AUDIO*%
X145581600Y-116742400D03*
D37*
%TO.P,J1,32,Pin_32*%
%TO.N,GND*%
X147231600Y-116992400D03*
%TD*%
D35*
%TO.P,C5,1*%
%TO.N,+3.3V*%
X134874000Y-82020500D03*
%TO.P,C5,2*%
%TO.N,GND*%
X134874000Y-84095500D03*
%TD*%
D33*
%TO.P,R6,1*%
%TO.N,GND*%
X109055500Y-62992000D03*
%TO.P,R6,2*%
%TO.N,Net-(U1-Pad13)*%
X107860500Y-62992000D03*
%TD*%
D39*
%TO.P,U6,1*%
%TO.N,GND*%
X125287000Y-69342000D03*
%TO.P,U6,2*%
%TO.N,Net-(U1-Pad40)*%
X125287000Y-70612000D03*
%TO.P,U6,3*%
%TO.N,Net-(J3-Pad5)*%
X125287000Y-71882000D03*
%TO.P,U6,4*%
%TO.N,GND*%
X125287000Y-73152000D03*
%TO.P,U6,5*%
%TO.N,Net-(U1-Pad39)*%
X125287000Y-74422000D03*
%TO.P,U6,6*%
%TO.N,Net-(J3-Pad3)*%
X125287000Y-75692000D03*
%TO.P,U6,7,GND*%
%TO.N,GND*%
X125287000Y-76962000D03*
%TO.P,U6,8*%
%TO.N,Net-(J3-Pad2)*%
X130237000Y-76962000D03*
%TO.P,U6,9*%
%TO.N,Net-(U1-Pad38)*%
X130237000Y-75692000D03*
%TO.P,U6,10*%
%TO.N,GND*%
X130237000Y-74422000D03*
%TO.P,U6,11*%
%TO.N,N/C*%
X130237000Y-73152000D03*
%TO.P,U6,12*%
X130237000Y-71882000D03*
%TO.P,U6,13*%
X130237000Y-70612000D03*
%TO.P,U6,14,VCC*%
%TO.N,+3.3V*%
X130237000Y-69342000D03*
%TD*%
D31*
%TO.P,U2,1,A0*%
%TO.N,/GB.~{WR}*%
X104013000Y-106461000D03*
%TO.P,U2,2,A1*%
%TO.N,/GB.~{RD}*%
X105283000Y-106461000D03*
%TO.P,U2,3,A2*%
%TO.N,/GB.A3*%
X106553000Y-106461000D03*
%TO.P,U2,4,E1*%
%TO.N,/GB.A14*%
X107823000Y-106461000D03*
%TO.P,U2,5,E2*%
%TO.N,/GB.~{CS}*%
X109093000Y-106461000D03*
%TO.P,U2,6,E3*%
%TO.N,/GB.A13*%
X110363000Y-106461000D03*
%TO.P,U2,7,O7*%
%TO.N,unconnected-(U2-Pad7)*%
X111633000Y-106461000D03*
%TO.P,U2,8,GND*%
%TO.N,GND*%
X112903000Y-106461000D03*
%TO.P,U2,9,O6*%
%TO.N,Net-(U9-Pad2)*%
X112903000Y-101311000D03*
%TO.P,U2,10,O5*%
%TO.N,unconnected-(U2-Pad10)*%
X111633000Y-101311000D03*
%TO.P,U2,11,O4*%
%TO.N,unconnected-(U2-Pad11)*%
X110363000Y-101311000D03*
%TO.P,U2,12,O3*%
%TO.N,unconnected-(U2-Pad12)*%
X109093000Y-101311000D03*
%TO.P,U2,13,O2*%
%TO.N,/SCL*%
X107823000Y-101311000D03*
%TO.P,U2,14,O1*%
%TO.N,Net-(U3-Pad1)*%
X106553000Y-101311000D03*
%TO.P,U2,15,O0*%
%TO.N,unconnected-(U2-Pad15)*%
X105283000Y-101311000D03*
%TO.P,U2,16,VCC*%
%TO.N,+5V*%
X104013000Y-101311000D03*
%TD*%
D40*
%TO.P,Y1,1,1*%
%TO.N,Net-(C3-Pad2)*%
X103886000Y-68326000D03*
%TO.P,Y1,2,2*%
%TO.N,Net-(C2-Pad2)*%
X103886000Y-80201000D03*
%TD*%
D41*
%TO.P,C3,1*%
%TO.N,GND*%
X99568000Y-70633500D03*
%TO.P,C3,2*%
%TO.N,Net-(C3-Pad2)*%
X99568000Y-68558500D03*
%TD*%
D25*
%TO.P,U9,1*%
%TO.N,/SCL*%
X104252000Y-97850000D03*
%TO.P,U9,2*%
%TO.N,Net-(U9-Pad2)*%
X104902000Y-97850000D03*
%TO.P,U9,3,GND*%
%TO.N,GND*%
X105552000Y-97850000D03*
%TO.P,U9,4*%
%TO.N,Net-(U4-Pad14)*%
X105552000Y-95190000D03*
%TO.P,U9,5,VCC*%
%TO.N,+5V*%
X104252000Y-95190000D03*
%TD*%
D42*
%TO.P,R1,1*%
%TO.N,Net-(R1-Pad1)*%
X128778000Y-83909500D03*
%TO.P,R1,2*%
%TO.N,GND*%
X128778000Y-82714500D03*
%TD*%
D35*
%TO.P,C6,1*%
%TO.N,+5V*%
X127000000Y-80772000D03*
%TO.P,C6,2*%
%TO.N,GND*%
X127000000Y-82847000D03*
%TD*%
D43*
%TO.P,C9,1*%
%TO.N,Net-(U1-Pad32)*%
X118110000Y-85344000D03*
%TO.P,C9,2*%
%TO.N,/GB.AUDIO*%
X124335000Y-85344000D03*
%TD*%
D44*
%TO.N,Net-(U5-Pad6)*%
X136543300Y-92293600D03*
X136606700Y-88998200D03*
%TO.N,Net-(D1-Pad2)*%
X118217400Y-67056000D03*
X112992000Y-70597100D03*
%TO.N,Net-(U4-Pad14)*%
X106362400Y-95046300D03*
X107843100Y-95078400D03*
%TO.N,/IRQ*%
X108617000Y-81328900D03*
X110146000Y-94048200D03*
%TO.N,/MISO*%
X107746500Y-70023600D03*
X111258700Y-93498700D03*
%TO.N,/MOSI*%
X109977200Y-70598600D03*
X106748800Y-91685800D03*
%TO.N,/SCL*%
X109615900Y-71614700D03*
X106291300Y-99831100D03*
%TO.N,/SS*%
X114588000Y-93674900D03*
X114588000Y-79245500D03*
%TO.N,Net-(R1-Pad1)*%
X123706500Y-77330000D03*
X128412100Y-81525400D03*
%TO.N,+5V*%
X117324900Y-70930000D03*
X120568800Y-79062800D03*
X111152000Y-75938700D03*
%TO.N,/GB.~{WR}*%
X114583100Y-103038000D03*
X128693300Y-108403300D03*
%TO.N,/GB.~{RD}*%
X105283000Y-110075000D03*
X129103500Y-110918800D03*
%TO.N,/GB.A0*%
X131340800Y-111959200D03*
X107328600Y-112897600D03*
X109255800Y-98810800D03*
%TO.N,/GB.A1*%
X109256600Y-107972300D03*
X131475400Y-110959000D03*
X108176600Y-99370100D03*
%TO.N,/GB.A2*%
X133403500Y-111671300D03*
X113282000Y-111466900D03*
X109756900Y-95835700D03*
%TO.N,/GB.A3*%
X132645300Y-110425600D03*
X122234000Y-98041600D03*
%TO.N,/GB.A10*%
X124312300Y-112932100D03*
X140864000Y-111663700D03*
%TO.N,/GB.A12*%
X128951000Y-102405400D03*
X131597300Y-104847100D03*
%TO.N,/GB.A13*%
X110621700Y-104976300D03*
X127257800Y-110490600D03*
X119152400Y-109100100D03*
X134681800Y-96285300D03*
X140688600Y-89491800D03*
%TO.N,/GB.A14*%
X127520700Y-112391000D03*
X111571200Y-112108700D03*
X139772500Y-88797700D03*
X133454700Y-104404900D03*
%TO.N,/GB.D7*%
X139816300Y-111661900D03*
X110535600Y-90668600D03*
%TO.N,/GB.~{RST}*%
X107913700Y-88849200D03*
X107913700Y-90317500D03*
X131724800Y-103748300D03*
%TO.N,/GB.AUDIO*%
X145581600Y-112856500D03*
X127569900Y-88510400D03*
%TO.N,GND*%
X109240000Y-74026500D03*
X114600600Y-70605700D03*
X107112300Y-94345400D03*
X136850200Y-112406000D03*
X143393600Y-110183000D03*
X110710400Y-98815400D03*
%TD*%
D45*
%TO.N,Net-(U1-Pad41)*%
X120275100Y-71173800D02*
X120275100Y-73330000D01*
X125550900Y-65898000D02*
X120275100Y-71173800D01*
X126626000Y-65898000D02*
X125550900Y-65898000D01*
X119200000Y-73330000D02*
X120275100Y-73330000D01*
%TO.N,Net-(U1-Pad40)*%
X120617100Y-74130000D02*
X119200000Y-74130000D01*
X124135100Y-70612000D02*
X120617100Y-74130000D01*
X125287000Y-70612000D02*
X124135100Y-70612000D01*
%TO.N,Net-(U1-Pad39)*%
X124779000Y-74930000D02*
X119200000Y-74930000D01*
X125287000Y-74422000D02*
X124779000Y-74930000D01*
%TO.N,Net-(U1-Pad38)*%
X121957100Y-75730000D02*
X119200000Y-75730000D01*
X122563300Y-76336200D02*
X121957100Y-75730000D01*
X129592800Y-76336200D02*
X122563300Y-76336200D01*
X130237000Y-75692000D02*
X129592800Y-76336200D01*
%TO.N,Net-(U5-Pad6)*%
X137886600Y-92293600D02*
X136543300Y-92293600D01*
X138410000Y-91770200D02*
X137886600Y-92293600D01*
X138410000Y-90896500D02*
X138410000Y-91770200D01*
X136478400Y-88869900D02*
X136606700Y-88998200D01*
X132786500Y-88869900D02*
X136478400Y-88869900D01*
X132403600Y-89252800D02*
X132786500Y-88869900D01*
X115763400Y-89252800D02*
X132403600Y-89252800D01*
X113157000Y-91859200D02*
X115763400Y-89252800D01*
X113157000Y-92167000D02*
X113157000Y-91859200D01*
%TO.N,Net-(U4-Pad10)*%
X115697000Y-91848900D02*
X115697000Y-92167000D01*
X117775800Y-89770100D02*
X115697000Y-91848900D01*
X132522900Y-89770100D02*
X117775800Y-89770100D01*
X132973000Y-89320000D02*
X132522900Y-89770100D01*
X135880200Y-89320000D02*
X132973000Y-89320000D01*
X136410000Y-89849800D02*
X135880200Y-89320000D01*
X136410000Y-90896500D02*
X136410000Y-89849800D01*
%TO.N,Net-(U4-Pad9)*%
X130762700Y-92167000D02*
X116967000Y-92167000D01*
X133159600Y-89770100D02*
X130762700Y-92167000D01*
X135637200Y-89770100D02*
X133159600Y-89770100D01*
X135910000Y-90042900D02*
X135637200Y-89770100D01*
X135910000Y-90896500D02*
X135910000Y-90042900D01*
%TO.N,Net-(U9-Pad2)*%
X104902000Y-97850000D02*
X104902000Y-98925100D01*
X106706200Y-98925100D02*
X104902000Y-98925100D01*
X107888100Y-100107000D02*
X106706200Y-98925100D01*
X111983000Y-100107000D02*
X107888100Y-100107000D01*
X112903000Y-101027000D02*
X111983000Y-100107000D01*
X112903000Y-101311000D02*
X112903000Y-101027000D01*
%TO.N,Net-(R3-Pad2)*%
X116078000Y-67976900D02*
X115900000Y-68154900D01*
X116078000Y-67653500D02*
X116078000Y-67976900D01*
X115900000Y-69230000D02*
X115900000Y-68154900D01*
%TO.N,Net-(R2-Pad2)*%
X115100000Y-67691500D02*
X115100000Y-69230000D01*
X115062000Y-67653500D02*
X115100000Y-67691500D01*
%TO.N,Net-(JP1-Pad2)*%
X139954000Y-86868000D02*
X139954000Y-87943100D01*
X137910000Y-89634800D02*
X137910000Y-90896500D01*
X139601700Y-87943100D02*
X137910000Y-89634800D01*
X139954000Y-87943100D02*
X139601700Y-87943100D01*
%TO.N,Net-(D2-Pad2)*%
X100330000Y-113565700D02*
X100330000Y-111286000D01*
X100431600Y-113667300D02*
X100330000Y-113565700D01*
X100431600Y-116992400D02*
X100431600Y-113667300D01*
%TO.N,Net-(D1-Pad2)*%
X112700000Y-69230000D02*
X112700000Y-70305100D01*
X112992000Y-70597100D02*
X112700000Y-70305100D01*
X116641000Y-64757000D02*
X116641000Y-65907100D01*
X117314000Y-67056000D02*
X118217400Y-67056000D01*
X117239800Y-66505900D02*
X116641000Y-65907100D01*
X117314000Y-66505900D02*
X117239800Y-66505900D01*
X117314000Y-67056000D02*
X117314000Y-66505900D01*
%TO.N,Net-(C3-Pad2)*%
X102690500Y-72588600D02*
X103886000Y-72588600D01*
X102560900Y-72459000D02*
X102690500Y-72588600D01*
X102560900Y-71551400D02*
X102560900Y-72459000D01*
X99568000Y-68558500D02*
X102560900Y-71551400D01*
X103886000Y-68326000D02*
X103886000Y-72143700D01*
X103886000Y-72143700D02*
X103886000Y-72588600D01*
X105872300Y-74130000D02*
X107800000Y-74130000D01*
X103886000Y-72143700D02*
X105872300Y-74130000D01*
%TO.N,Net-(C2-Pad2)*%
X103886000Y-80201000D02*
X103886000Y-79052700D01*
X99806300Y-79052700D02*
X99568000Y-79291000D01*
X103886000Y-79052700D02*
X99806300Y-79052700D01*
X107800000Y-74930000D02*
X106724900Y-74930000D01*
X103886000Y-77768900D02*
X106724900Y-74930000D01*
X103886000Y-79052700D02*
X103886000Y-77768900D01*
%TO.N,Net-(U3-Pad1)*%
X104777200Y-94116300D02*
X104252000Y-93591100D01*
X104777200Y-96391300D02*
X104777200Y-94116300D01*
X104453300Y-96715200D02*
X104777200Y-96391300D01*
X103973600Y-96715200D02*
X104453300Y-96715200D01*
X103726800Y-96962000D02*
X103973600Y-96715200D01*
X103726800Y-99405300D02*
X103726800Y-96962000D01*
X104648000Y-100326500D02*
X103726800Y-99405300D01*
X104648000Y-102230800D02*
X104648000Y-100326500D01*
X104937000Y-102519800D02*
X104648000Y-102230800D01*
X105682700Y-102519800D02*
X104937000Y-102519800D01*
X106553000Y-101649500D02*
X105682700Y-102519800D01*
X106553000Y-101311000D02*
X106553000Y-101649500D01*
X104252000Y-92516000D02*
X104252000Y-93591100D01*
%TO.N,Net-(J2-Pad3)*%
X115341000Y-66179500D02*
X115341000Y-64757000D01*
X115062000Y-66458500D02*
X115341000Y-66179500D01*
%TO.N,Net-(J2-Pad2)*%
X115991000Y-66371500D02*
X115991000Y-64757000D01*
X116078000Y-66458500D02*
X115991000Y-66371500D01*
%TO.N,Net-(U4-Pad14)*%
X105945900Y-94114900D02*
X105552000Y-94114900D01*
X106362400Y-94531400D02*
X105945900Y-94114900D01*
X106362400Y-95046300D02*
X106362400Y-94531400D01*
X105552000Y-95190000D02*
X105552000Y-94114900D01*
X110617000Y-92507100D02*
X110617000Y-92167000D01*
X108045700Y-95078400D02*
X110617000Y-92507100D01*
X107843100Y-95078400D02*
X108045700Y-95078400D01*
%TO.N,/IRQ*%
X107800000Y-75730000D02*
X108875100Y-75730000D01*
X108875100Y-81070800D02*
X108617000Y-81328900D01*
X108875100Y-75730000D02*
X108875100Y-81070800D01*
X111887000Y-95789200D02*
X110146000Y-94048200D01*
X111887000Y-97317000D02*
X111887000Y-95789200D01*
%TO.N,/MISO*%
X108540100Y-69230000D02*
X107746500Y-70023600D01*
X109500000Y-69230000D02*
X108540100Y-69230000D01*
X113157000Y-96033500D02*
X113157000Y-97317000D01*
X111258700Y-94135200D02*
X113157000Y-96033500D01*
X111258700Y-93498700D02*
X111258700Y-94135200D01*
%TO.N,/MOSI*%
X110300000Y-69230000D02*
X110300000Y-70305100D01*
X110270700Y-70305100D02*
X109977200Y-70598600D01*
X110300000Y-70305100D02*
X110270700Y-70305100D01*
X106503900Y-91440900D02*
X104902000Y-91440900D01*
X106748800Y-91685800D02*
X106503900Y-91440900D01*
X104902000Y-92516000D02*
X104902000Y-91440900D01*
%TO.N,/SCL*%
X104252000Y-97850000D02*
X104252000Y-98925100D01*
X111100000Y-69230000D02*
X111100000Y-70305100D01*
X105158000Y-99831100D02*
X106291300Y-99831100D01*
X104252000Y-98925100D02*
X105158000Y-99831100D01*
X107823000Y-100965000D02*
X107823000Y-101311000D01*
X106689100Y-99831100D02*
X107823000Y-100965000D01*
X106291300Y-99831100D02*
X106689100Y-99831100D01*
X111100000Y-70501300D02*
X111100000Y-70305100D01*
X109986600Y-71614700D02*
X111100000Y-70501300D01*
X109615900Y-71614700D02*
X109986600Y-71614700D01*
%TO.N,/SS*%
X111900000Y-76557500D02*
X114588000Y-79245500D01*
X111900000Y-69230000D02*
X111900000Y-76557500D01*
X114588000Y-97156000D02*
X114588000Y-93674900D01*
X114427000Y-97317000D02*
X114588000Y-97156000D01*
%TO.N,Net-(C1-Pad1)*%
X132709500Y-85498000D02*
X132709500Y-83754000D01*
X132609500Y-85598000D02*
X132709500Y-85498000D01*
%TO.N,Net-(R1-Pad1)*%
X119625000Y-77330000D02*
X120275100Y-77330000D01*
X119625000Y-77330000D02*
X119200000Y-77330000D01*
X130279000Y-83909500D02*
X129012500Y-83909500D01*
X130434500Y-83754000D02*
X130279000Y-83909500D01*
X129012500Y-83909500D02*
X128778000Y-83909500D01*
X128132300Y-81805200D02*
X128412100Y-81525400D01*
X128132300Y-83113300D02*
X128132300Y-81805200D01*
X128928500Y-83909500D02*
X128132300Y-83113300D01*
X129012500Y-83909500D02*
X128928500Y-83909500D01*
X120275100Y-77330000D02*
X123706500Y-77330000D01*
%TO.N,Net-(J3-Pad7)*%
X136524900Y-65514600D02*
X136524900Y-69503000D01*
X135975300Y-64965000D02*
X136524900Y-65514600D01*
X133349300Y-64965000D02*
X135975300Y-64965000D01*
X131766300Y-66548000D02*
X133349300Y-64965000D01*
X129286000Y-66548000D02*
X131766300Y-66548000D01*
X137600000Y-69503000D02*
X136524900Y-69503000D01*
%TO.N,Net-(J3-Pad5)*%
X126322100Y-71882000D02*
X125287000Y-71882000D01*
X127285400Y-70918700D02*
X126322100Y-71882000D01*
X127285400Y-70614000D02*
X127285400Y-70918700D01*
X129231000Y-68668400D02*
X127285400Y-70614000D01*
X133490300Y-68668400D02*
X129231000Y-68668400D01*
X136524900Y-71703000D02*
X133490300Y-68668400D01*
X137600000Y-71703000D02*
X136524900Y-71703000D01*
%TO.N,+3.3V*%
X137600000Y-72803000D02*
X138675100Y-72803000D01*
X135842300Y-72803000D02*
X137600000Y-72803000D01*
X132381300Y-69342000D02*
X135842300Y-72803000D01*
X130237000Y-69342000D02*
X132381300Y-69342000D01*
X138675100Y-78219400D02*
X134874000Y-82020500D01*
X138675100Y-72803000D02*
X138675100Y-78219400D01*
X132876000Y-82020500D02*
X132709500Y-81854000D01*
X134874000Y-82020500D02*
X132876000Y-82020500D01*
%TO.N,Net-(J3-Pad3)*%
X133730300Y-73903000D02*
X137600000Y-73903000D01*
X132567100Y-75066200D02*
X133730300Y-73903000D01*
X125912800Y-75066200D02*
X132567100Y-75066200D01*
X125287000Y-75692000D02*
X125912800Y-75066200D01*
%TO.N,Net-(J3-Pad2)*%
X135517300Y-75003000D02*
X137600000Y-75003000D01*
X133558300Y-76962000D02*
X135517300Y-75003000D01*
X130237000Y-76962000D02*
X133558300Y-76962000D01*
%TO.N,Net-(U1-Pad13)*%
X106724900Y-64127600D02*
X107860500Y-62992000D01*
X106724900Y-71730000D02*
X106724900Y-64127600D01*
X107800000Y-71730000D02*
X106724900Y-71730000D01*
%TO.N,Net-(U1-Pad33)*%
X117500000Y-82029500D02*
X117500000Y-80630000D01*
X117766500Y-82296000D02*
X117500000Y-82029500D01*
%TO.N,Net-(U1-Pad32)*%
X116700000Y-83934000D02*
X116700000Y-80630000D01*
X118110000Y-85344000D02*
X116700000Y-83934000D01*
%TO.N,Net-(U1-Pad6)*%
X113500000Y-67115500D02*
X113500000Y-69230000D01*
X113559500Y-67056000D02*
X113500000Y-67115500D01*
%TO.N,unconnected-(J2-Pad6)*%
X118171000Y-64877000D02*
X118191000Y-64857000D01*
X117761000Y-64877000D02*
X118171000Y-64877000D01*
X112341000Y-63057000D02*
X112341000Y-63557000D01*
X112591000Y-62807000D02*
X112341000Y-63057000D01*
X112921000Y-64877000D02*
X112441000Y-64877000D01*
X112441000Y-63657000D02*
X112341000Y-63557000D01*
X112441000Y-64877000D02*
X112441000Y-63657000D01*
X114381000Y-63182100D02*
X116301000Y-63182100D01*
X116301000Y-61607000D02*
X116301000Y-63182100D01*
X114381000Y-61607000D02*
X114381000Y-62394500D01*
X114381000Y-62394500D02*
X114381000Y-63182100D01*
X114381000Y-62394500D02*
X112611000Y-62394500D01*
X112611000Y-61877000D02*
X112611000Y-62394500D01*
X112611000Y-62787000D02*
X112591000Y-62807000D01*
X112611000Y-62394500D02*
X112611000Y-62787000D01*
X116571000Y-61877000D02*
X116301000Y-61607000D01*
X118071000Y-61877000D02*
X116571000Y-61877000D01*
X118071000Y-61877000D02*
X118071000Y-62807000D01*
X118291000Y-63027000D02*
X118291000Y-63557000D01*
X118071000Y-62807000D02*
X118291000Y-63027000D01*
X118191000Y-63657000D02*
X118191000Y-64857000D01*
X118291000Y-63557000D02*
X118191000Y-63657000D01*
%TO.N,+5V*%
X116700000Y-69230000D02*
X116700000Y-70305100D01*
X116700000Y-69230000D02*
X116700000Y-68154900D01*
X119414000Y-67056000D02*
X119414000Y-67331000D01*
X119414000Y-67331000D02*
X119414000Y-67606100D01*
X127701100Y-65475800D02*
X127701100Y-67198000D01*
X127598100Y-65372800D02*
X127701100Y-65475800D01*
X121372200Y-65372800D02*
X127598100Y-65372800D01*
X119414000Y-67331000D02*
X121372200Y-65372800D01*
X126626000Y-67198000D02*
X127701100Y-67198000D01*
X118865200Y-68154900D02*
X119414000Y-67606100D01*
X116700000Y-68154900D02*
X118865200Y-68154900D01*
X104252000Y-89856000D02*
X104252000Y-88780900D01*
X110300000Y-80630000D02*
X110300000Y-79554900D01*
X107800000Y-72530000D02*
X108875100Y-72530000D01*
X104302100Y-88780900D02*
X110025000Y-83058000D01*
X104252000Y-88780900D02*
X104302100Y-88780900D01*
X119200000Y-70930000D02*
X117324900Y-70930000D01*
X117324900Y-70930000D02*
X116700000Y-70305100D01*
X137954000Y-84403000D02*
X137879000Y-84328000D01*
X137954000Y-86868000D02*
X137954000Y-84403000D01*
X129352500Y-80772000D02*
X130434500Y-81854000D01*
X127000000Y-80772000D02*
X129352500Y-80772000D01*
X110300000Y-82783000D02*
X110300000Y-80630000D01*
X110025000Y-83058000D02*
X110300000Y-82783000D01*
X110300000Y-75938700D02*
X111152000Y-75938700D01*
X110300000Y-79554900D02*
X110300000Y-75938700D01*
X110300000Y-73954900D02*
X108875100Y-72530000D01*
X110300000Y-75938700D02*
X110300000Y-73954900D01*
X125651600Y-82120400D02*
X127000000Y-80772000D01*
X137932900Y-86889100D02*
X137410000Y-86889100D01*
X137954000Y-86868000D02*
X137932900Y-86889100D01*
X125651600Y-83140900D02*
X125651600Y-82120400D01*
X129399800Y-86889100D02*
X125651600Y-83140900D01*
X137410000Y-86889100D02*
X129399800Y-86889100D01*
X100330000Y-104994000D02*
X104013000Y-101311000D01*
X100330000Y-109186000D02*
X100330000Y-104994000D01*
X137410000Y-90896500D02*
X137410000Y-86889100D01*
X119200000Y-78930000D02*
X120275100Y-78930000D01*
X120568800Y-79527100D02*
X120568800Y-79062800D01*
X123162100Y-82120400D02*
X120568800Y-79527100D01*
X125651600Y-82120400D02*
X123162100Y-82120400D01*
X120407900Y-79062800D02*
X120275100Y-78930000D01*
X120568800Y-79062800D02*
X120407900Y-79062800D01*
X104453000Y-90948700D02*
X104402800Y-90898400D01*
X107037200Y-90948700D02*
X104453000Y-90948700D01*
X108077000Y-91988500D02*
X107037200Y-90948700D01*
X108077000Y-92167000D02*
X108077000Y-91988500D01*
X104252000Y-90747700D02*
X104252000Y-89856000D01*
X104402800Y-90898400D02*
X104252000Y-90747700D01*
X103665600Y-94603600D02*
X104252000Y-95190000D01*
X103665600Y-91635600D02*
X103665600Y-94603600D01*
X104402800Y-90898400D02*
X103665600Y-91635600D01*
X103244000Y-100542000D02*
X104013000Y-101311000D01*
X103244000Y-96748000D02*
X103244000Y-100542000D01*
X103726900Y-96265100D02*
X103244000Y-96748000D01*
X104252000Y-96265100D02*
X103726900Y-96265100D01*
X104252000Y-95190000D02*
X104252000Y-96265100D01*
%TO.N,/GB.~{WR}*%
X103581600Y-106892400D02*
X104013000Y-106461000D01*
X103581600Y-116742400D02*
X103581600Y-106892400D01*
X107129500Y-103038000D02*
X114583100Y-103038000D01*
X104013000Y-106154500D02*
X107129500Y-103038000D01*
X104013000Y-106461000D02*
X104013000Y-106154500D01*
X141954000Y-92759400D02*
X141954000Y-86868000D01*
X131690200Y-103023200D02*
X141954000Y-92759400D01*
X131395500Y-103023200D02*
X131690200Y-103023200D01*
X130872100Y-103546600D02*
X131395500Y-103023200D01*
X130872100Y-106224500D02*
X130872100Y-103546600D01*
X128693300Y-108403300D02*
X130872100Y-106224500D01*
%TO.N,/GB.~{RD}*%
X105081600Y-116742400D02*
X105081600Y-113667300D01*
X105283000Y-113465900D02*
X105283000Y-110075000D01*
X105081600Y-113667300D02*
X105283000Y-113465900D01*
X105283000Y-110075000D02*
X105283000Y-106461000D01*
X131812500Y-108209800D02*
X129103500Y-110918800D01*
X139716500Y-108209800D02*
X131812500Y-108209800D01*
X140910000Y-109403300D02*
X139716500Y-108209800D01*
X140910000Y-110271500D02*
X140910000Y-109403300D01*
%TO.N,/GB.~{CS}*%
X109093000Y-107076800D02*
X109093000Y-106461000D01*
X106581600Y-109588200D02*
X109093000Y-107076800D01*
X106581600Y-113667300D02*
X106581600Y-109588200D01*
X106581600Y-116742400D02*
X106581600Y-113667300D01*
%TO.N,/GB.A0*%
X131778000Y-112396400D02*
X131340800Y-111959200D01*
X133710900Y-112396400D02*
X131778000Y-112396400D01*
X134910000Y-111197300D02*
X133710900Y-112396400D01*
X134910000Y-110271500D02*
X134910000Y-111197300D01*
X108077000Y-97632000D02*
X108077000Y-97317000D01*
X109255800Y-98810800D02*
X108077000Y-97632000D01*
X108081600Y-113650600D02*
X107328600Y-112897600D01*
X108081600Y-116742400D02*
X108081600Y-113650600D01*
%TO.N,/GB.A1*%
X109581600Y-116742400D02*
X109581600Y-113667300D01*
X109256600Y-113342300D02*
X109256600Y-107972300D01*
X109581600Y-113667300D02*
X109256600Y-113342300D01*
X107404500Y-98598000D02*
X108176600Y-99370100D01*
X107404500Y-96441600D02*
X107404500Y-98598000D01*
X107754900Y-96091200D02*
X107404500Y-96441600D01*
X108460100Y-96091200D02*
X107754900Y-96091200D01*
X109347000Y-96978100D02*
X108460100Y-96091200D01*
X109347000Y-97317000D02*
X109347000Y-96978100D01*
X134410000Y-109401900D02*
X134410000Y-110271500D01*
X134160500Y-109152400D02*
X134410000Y-109401900D01*
X132892800Y-109152400D02*
X134160500Y-109152400D01*
X131475400Y-110569800D02*
X132892800Y-109152400D01*
X131475400Y-110959000D02*
X131475400Y-110569800D01*
%TO.N,/GB.A2*%
X111081600Y-116742400D02*
X111081600Y-113667300D01*
X111081600Y-113667300D02*
X113282000Y-111466900D01*
X110617000Y-96695800D02*
X109756900Y-95835700D01*
X110617000Y-97317000D02*
X110617000Y-96695800D01*
X133910000Y-111164800D02*
X133403500Y-111671300D01*
X133910000Y-110271500D02*
X133910000Y-111164800D01*
%TO.N,/GB.A3*%
X132799400Y-110271500D02*
X132645300Y-110425600D01*
X133410000Y-110271500D02*
X132799400Y-110271500D01*
X112581600Y-113399300D02*
X112581600Y-116742400D01*
X114034000Y-111946900D02*
X112581600Y-113399300D01*
X114034000Y-108383100D02*
X114034000Y-111946900D01*
X113314000Y-107663100D02*
X114034000Y-108383100D01*
X112529500Y-107663100D02*
X113314000Y-107663100D01*
X112268000Y-107401600D02*
X112529500Y-107663100D01*
X112268000Y-105547900D02*
X112268000Y-107401600D01*
X110966100Y-104246000D02*
X112268000Y-105547900D01*
X108484100Y-104246000D02*
X110966100Y-104246000D01*
X106553000Y-106177100D02*
X108484100Y-104246000D01*
X106553000Y-106461000D02*
X106553000Y-106177100D01*
X114483900Y-106493200D02*
X113314000Y-107663100D01*
X114483900Y-105544100D02*
X114483900Y-106493200D01*
X121986400Y-98041600D02*
X114483900Y-105544100D01*
X122234000Y-98041600D02*
X121986400Y-98041600D01*
%TO.N,/GB.A4*%
X114081600Y-116742400D02*
X114081600Y-113667300D01*
X116660200Y-111088700D02*
X114081600Y-113667300D01*
X116660200Y-104004400D02*
X116660200Y-111088700D01*
X121754300Y-98910300D02*
X116660200Y-104004400D01*
X125396200Y-98910300D02*
X121754300Y-98910300D01*
X133410000Y-90896500D02*
X125396200Y-98910300D01*
%TO.N,/GB.A5*%
X115581600Y-116742400D02*
X115581600Y-113667300D01*
X117159600Y-112089300D02*
X115581600Y-113667300D01*
X117159600Y-104141600D02*
X117159600Y-112089300D01*
X121940800Y-99360400D02*
X117159600Y-104141600D01*
X126354600Y-99360400D02*
X121940800Y-99360400D01*
X133910000Y-91805000D02*
X126354600Y-99360400D01*
X133910000Y-90896500D02*
X133910000Y-91805000D01*
%TO.N,/GB.A6*%
X134410000Y-91986700D02*
X134410000Y-90896500D01*
X126586200Y-99810500D02*
X134410000Y-91986700D01*
X122127300Y-99810500D02*
X126586200Y-99810500D01*
X117768600Y-104169200D02*
X122127300Y-99810500D01*
X117768600Y-112980300D02*
X117768600Y-104169200D01*
X117081600Y-113667300D02*
X117768600Y-112980300D01*
X117081600Y-116742400D02*
X117081600Y-113667300D01*
%TO.N,/GB.A7*%
X118581600Y-116742400D02*
X118581600Y-113667300D01*
X134910000Y-92153900D02*
X134910000Y-90896500D01*
X126803200Y-100260700D02*
X134910000Y-92153900D01*
X122313700Y-100260700D02*
X126803200Y-100260700D01*
X118427300Y-104147100D02*
X122313700Y-100260700D01*
X118427300Y-113513000D02*
X118427300Y-104147100D01*
X118581600Y-113667300D02*
X118427300Y-113513000D01*
%TO.N,/GB.A8*%
X120081600Y-116742400D02*
X120081600Y-113667300D01*
X120081600Y-108302100D02*
X120081600Y-113667300D01*
X119870400Y-108090900D02*
X120081600Y-108302100D01*
X119870400Y-103977200D02*
X119870400Y-108090900D01*
X122155200Y-101692400D02*
X119870400Y-103977200D01*
X126534800Y-101692400D02*
X122155200Y-101692400D01*
X127990100Y-103147700D02*
X126534800Y-101692400D01*
X129322600Y-103147700D02*
X127990100Y-103147700D01*
X133956300Y-98514000D02*
X129322600Y-103147700D01*
X134199000Y-98514000D02*
X133956300Y-98514000D01*
X139910000Y-92803000D02*
X134199000Y-98514000D01*
X139910000Y-90896500D02*
X139910000Y-92803000D01*
%TO.N,/GB.A9*%
X129910000Y-105338900D02*
X121581600Y-113667300D01*
X129910000Y-103196800D02*
X129910000Y-105338900D01*
X134142700Y-98964100D02*
X129910000Y-103196800D01*
X134430800Y-98964100D02*
X134142700Y-98964100D01*
X140410000Y-92984900D02*
X134430800Y-98964100D01*
X140410000Y-90896500D02*
X140410000Y-92984900D01*
X121581600Y-116742400D02*
X121581600Y-113667300D01*
%TO.N,/GB.A10*%
X123081600Y-116742400D02*
X123081600Y-113667300D01*
X123577100Y-113667300D02*
X124312300Y-112932100D01*
X123081600Y-113667300D02*
X123577100Y-113667300D01*
X140410000Y-111209700D02*
X140864000Y-111663700D01*
X140410000Y-110271500D02*
X140410000Y-111209700D01*
%TO.N,/GB.A11*%
X124581600Y-116742400D02*
X124581600Y-113667300D01*
X140910000Y-93144600D02*
X140910000Y-90896500D01*
X134190300Y-99864300D02*
X140910000Y-93144600D01*
X133899500Y-99864300D02*
X134190300Y-99864300D01*
X130403700Y-103360100D02*
X133899500Y-99864300D01*
X130403700Y-105667600D02*
X130403700Y-103360100D01*
X125165900Y-110905400D02*
X130403700Y-105667600D01*
X125165900Y-113156200D02*
X125165900Y-110905400D01*
X124654800Y-113667300D02*
X125165900Y-113156200D01*
X124581600Y-113667300D02*
X124654800Y-113667300D01*
%TO.N,/GB.A12*%
X131597300Y-106524800D02*
X131597300Y-104847100D01*
X128832400Y-109289700D02*
X131597300Y-106524800D01*
X127418200Y-109289700D02*
X128832400Y-109289700D01*
X126081600Y-110626300D02*
X127418200Y-109289700D01*
X126081600Y-116742400D02*
X126081600Y-110626300D01*
X133292500Y-98063900D02*
X128951000Y-102405400D01*
X133928900Y-98063900D02*
X133292500Y-98063900D01*
X135410000Y-96582800D02*
X133928900Y-98063900D01*
X135410000Y-90896500D02*
X135410000Y-96582800D01*
%TO.N,/GB.A13*%
X127581600Y-116742400D02*
X127581600Y-113667300D01*
X110363000Y-105235000D02*
X110621700Y-104976300D01*
X110363000Y-106461000D02*
X110363000Y-105235000D01*
X140657600Y-89522800D02*
X140688600Y-89491800D01*
X139907300Y-89522800D02*
X140657600Y-89522800D01*
X139410000Y-90020100D02*
X139907300Y-89522800D01*
X139410000Y-90896500D02*
X139410000Y-90020100D01*
X126787800Y-110960600D02*
X127257800Y-110490600D01*
X126787800Y-112873500D02*
X126787800Y-110960600D01*
X127581600Y-113667300D02*
X126787800Y-112873500D01*
X134434400Y-96285300D02*
X134681800Y-96285300D01*
X129558900Y-101160800D02*
X134434400Y-96285300D01*
X122050200Y-101160800D02*
X129558900Y-101160800D01*
X119152400Y-104058600D02*
X122050200Y-101160800D01*
X119152400Y-109100100D02*
X119152400Y-104058600D01*
%TO.N,/GB.A14*%
X111571200Y-109261100D02*
X111571200Y-112108700D01*
X109718800Y-107408700D02*
X111571200Y-109261100D01*
X109718800Y-105449600D02*
X109718800Y-107408700D01*
X109486800Y-105217600D02*
X109718800Y-105449600D01*
X108715400Y-105217600D02*
X109486800Y-105217600D01*
X107823000Y-106110000D02*
X108715400Y-105217600D01*
X107823000Y-106461000D02*
X107823000Y-106110000D01*
X129081600Y-116742400D02*
X129081600Y-113667300D01*
X128797000Y-113667300D02*
X127520700Y-112391000D01*
X129081600Y-113667300D02*
X128797000Y-113667300D01*
X138910000Y-89660200D02*
X138910000Y-90896500D01*
X139772500Y-88797700D02*
X138910000Y-89660200D01*
X133454700Y-105304000D02*
X133454700Y-104404900D01*
X128378300Y-110380400D02*
X133454700Y-105304000D01*
X128378300Y-111533400D02*
X128378300Y-110380400D01*
X127520700Y-112391000D02*
X128378300Y-111533400D01*
%TO.N,/GB.A15*%
X130581600Y-116742400D02*
X130581600Y-113667300D01*
X139910000Y-109345800D02*
X139910000Y-110271500D01*
X139266500Y-108702300D02*
X139910000Y-109345800D01*
X132706400Y-108702300D02*
X139266500Y-108702300D01*
X130581600Y-110827100D02*
X132706400Y-108702300D01*
X130581600Y-113667300D02*
X130581600Y-110827100D01*
%TO.N,/GB.D0*%
X132081600Y-116742400D02*
X132081600Y-113667300D01*
X132902400Y-112846500D02*
X132081600Y-113667300D01*
X133960000Y-112846500D02*
X132902400Y-112846500D01*
X135410000Y-111396500D02*
X133960000Y-112846500D01*
X135410000Y-110271500D02*
X135410000Y-111396500D01*
%TO.N,/GB.D1*%
X133581600Y-116742400D02*
X133581600Y-113667300D01*
X133840600Y-113667300D02*
X133581600Y-113667300D01*
X135910000Y-111597900D02*
X133840600Y-113667300D01*
X135910000Y-110271500D02*
X135910000Y-111597900D01*
%TO.N,/GB.D2*%
X135081600Y-113149200D02*
X135081600Y-116742400D01*
X136410000Y-111820800D02*
X135081600Y-113149200D01*
X136410000Y-110271500D02*
X136410000Y-111820800D01*
%TO.N,/GB.D3*%
X136581600Y-116742400D02*
X136581600Y-113667300D01*
X137410000Y-111922400D02*
X137410000Y-110271500D01*
X137593200Y-112105600D02*
X137410000Y-111922400D01*
X137593200Y-112706400D02*
X137593200Y-112105600D01*
X136632300Y-113667300D02*
X137593200Y-112706400D01*
X136581600Y-113667300D02*
X136632300Y-113667300D01*
%TO.N,/GB.D4*%
X138081600Y-116742400D02*
X138081600Y-113667300D01*
X137910000Y-111785800D02*
X137910000Y-110271500D01*
X138043300Y-111919100D02*
X137910000Y-111785800D01*
X138043300Y-113629000D02*
X138043300Y-111919100D01*
X138081600Y-113667300D02*
X138043300Y-113629000D01*
%TO.N,/GB.D5*%
X138410000Y-111649200D02*
X138410000Y-110271500D01*
X138493400Y-111732600D02*
X138410000Y-111649200D01*
X138493400Y-112533300D02*
X138493400Y-111732600D01*
X139581600Y-113621500D02*
X138493400Y-112533300D01*
X139581600Y-116742400D02*
X139581600Y-113621500D01*
%TO.N,/GB.D6*%
X138910000Y-111512500D02*
X138910000Y-110271500D01*
X138966100Y-111568600D02*
X138910000Y-111512500D01*
X138966100Y-111868900D02*
X138966100Y-111568600D01*
X140764500Y-113667300D02*
X138966100Y-111868900D01*
X141081600Y-113667300D02*
X140764500Y-113667300D01*
X141081600Y-116742400D02*
X141081600Y-113667300D01*
%TO.N,/GB.D7*%
X142581600Y-116742400D02*
X142581600Y-113667300D01*
X139410000Y-111255600D02*
X139410000Y-110271500D01*
X139816300Y-111661900D02*
X139410000Y-111255600D01*
X105552000Y-89856000D02*
X105552000Y-88780900D01*
X141821700Y-113667300D02*
X139816300Y-111661900D01*
X142581600Y-113667300D02*
X141821700Y-113667300D01*
X109459400Y-89592400D02*
X110535600Y-90668600D01*
X106888600Y-89592400D02*
X109459400Y-89592400D01*
X106077100Y-88780900D02*
X106888600Y-89592400D01*
X105552000Y-88780900D02*
X106077100Y-88780900D01*
X110667400Y-90668600D02*
X110535600Y-90668600D01*
X111887000Y-91888200D02*
X110667400Y-90668600D01*
X111887000Y-92167000D02*
X111887000Y-91888200D01*
%TO.N,/GB.~{RST}*%
X109347000Y-91750800D02*
X107913700Y-90317500D01*
X109347000Y-92167000D02*
X109347000Y-91750800D01*
X112700000Y-84062900D02*
X107913700Y-88849200D01*
X112700000Y-80630000D02*
X112700000Y-84062900D01*
X144081600Y-116742400D02*
X144081600Y-113667300D01*
X131793300Y-103679800D02*
X131724800Y-103748300D01*
X135842300Y-103679800D02*
X131793300Y-103679800D01*
X144081600Y-111919100D02*
X135842300Y-103679800D01*
X144081600Y-113667300D02*
X144081600Y-111919100D01*
%TO.N,/GB.AUDIO*%
X145581600Y-116742400D02*
X145581600Y-112856500D01*
X124403500Y-85344000D02*
X127569900Y-88510400D01*
X124335000Y-85344000D02*
X124403500Y-85344000D01*
X124335000Y-85219000D02*
X121412000Y-82296000D01*
X124335000Y-85344000D02*
X124335000Y-85219000D01*
%TO.N,GND*%
X114300000Y-69230000D02*
X114300000Y-70089300D01*
X114300000Y-70192000D02*
X114300000Y-70305100D01*
X114300000Y-70089300D02*
X114300000Y-70192000D01*
X109500000Y-80630000D02*
X109500000Y-81705100D01*
X114041000Y-64757000D02*
X114041000Y-65907100D01*
X128748500Y-67198000D02*
X128210900Y-67198000D01*
X128210900Y-65898000D02*
X128210900Y-67198000D01*
X129286000Y-65898000D02*
X128210900Y-65898000D01*
X111799700Y-66740800D02*
X111799700Y-66517200D01*
X111484500Y-67056000D02*
X111799700Y-66740800D01*
X112338400Y-65978500D02*
X111799700Y-66517200D01*
X113969600Y-65978500D02*
X112338400Y-65978500D01*
X114041000Y-65907100D02*
X113969600Y-65978500D01*
X109055500Y-63773000D02*
X109055500Y-62992000D01*
X111799700Y-66517200D02*
X109055500Y-63773000D01*
X109500000Y-80630000D02*
X109500000Y-79554900D01*
X128748500Y-67198000D02*
X129286000Y-67198000D01*
X128748500Y-67198000D02*
X126604500Y-69342000D01*
X126604500Y-69342000D02*
X125287000Y-69342000D01*
X119200000Y-78130000D02*
X120275100Y-78130000D01*
X105552000Y-92516000D02*
X105552000Y-93591100D01*
X109302900Y-81705100D02*
X107950000Y-83058000D01*
X109500000Y-81705100D02*
X109302900Y-81705100D01*
X106358000Y-93591100D02*
X105552000Y-93591100D01*
X107112300Y-94345400D02*
X106358000Y-93591100D01*
X130345000Y-82714500D02*
X130434500Y-82804000D01*
X128778000Y-82714500D02*
X130345000Y-82714500D01*
X107112300Y-95379300D02*
X107112300Y-94345400D01*
X105716700Y-96774900D02*
X107112300Y-95379300D01*
X105552000Y-96774900D02*
X105716700Y-96774900D01*
X119200000Y-78130000D02*
X118237500Y-78130000D01*
X105552000Y-97850000D02*
X105552000Y-96774900D01*
X129394200Y-85598000D02*
X130534500Y-85598000D01*
X127000000Y-83203800D02*
X129394200Y-85598000D01*
X127000000Y-82847000D02*
X127000000Y-83203800D01*
X131429800Y-84702700D02*
X130534500Y-85598000D01*
X131429800Y-83126900D02*
X131429800Y-84702700D01*
X147231600Y-113479500D02*
X147231600Y-116992400D01*
X143664400Y-109912200D02*
X147231600Y-113479500D01*
X143393600Y-110183000D02*
X143664400Y-109912200D01*
X136910000Y-112346200D02*
X136850200Y-112406000D01*
X136910000Y-110271500D02*
X136910000Y-112346200D01*
X120217000Y-82296000D02*
X119503700Y-82296000D01*
X119503700Y-82296000D02*
X118961500Y-82296000D01*
X113232800Y-98815400D02*
X110710400Y-98815400D01*
X113792000Y-98256200D02*
X113232800Y-98815400D01*
X119503700Y-86584900D02*
X119503700Y-82296000D01*
X119143500Y-86945100D02*
X119503700Y-86584900D01*
X116829100Y-86945100D02*
X119143500Y-86945100D01*
X112531200Y-91243000D02*
X116829100Y-86945100D01*
X112531200Y-94453000D02*
X112531200Y-91243000D01*
X113792000Y-95713800D02*
X112531200Y-94453000D01*
X113792000Y-98256200D02*
X113792000Y-95713800D01*
X115309900Y-104054100D02*
X112903000Y-106461000D01*
X115309900Y-98545400D02*
X115309900Y-104054100D01*
X116076900Y-98545400D02*
X115309900Y-98545400D01*
X116967000Y-97655300D02*
X116076900Y-98545400D01*
X116967000Y-97317000D02*
X116967000Y-97655300D01*
X114081200Y-98545400D02*
X113792000Y-98256200D01*
X115309900Y-98545400D02*
X114081200Y-98545400D01*
X107800000Y-73330000D02*
X106724900Y-73330000D01*
X106270800Y-72875900D02*
X106270800Y-64037300D01*
X106724900Y-73330000D02*
X106270800Y-72875900D01*
X108352800Y-62289300D02*
X109055500Y-62992000D01*
X107459300Y-62289300D02*
X108352800Y-62289300D01*
X106270800Y-63477800D02*
X107459300Y-62289300D01*
X106270800Y-64037300D02*
X106270800Y-63477800D01*
X99568000Y-77216000D02*
X99568000Y-70633500D01*
X102404900Y-64037300D02*
X106270800Y-64037300D01*
X98488500Y-67953700D02*
X102404900Y-64037300D01*
X98488500Y-69554000D02*
X98488500Y-67953700D01*
X99568000Y-70633500D02*
X98488500Y-69554000D01*
X118124900Y-81459400D02*
X118961500Y-82296000D01*
X118124900Y-78130000D02*
X118124900Y-81459400D01*
X118237500Y-78130000D02*
X118124900Y-78130000D01*
X114300000Y-70305100D02*
X114600600Y-70605700D01*
X118124900Y-78130000D02*
X118124900Y-71730000D01*
X115724900Y-71730000D02*
X118124900Y-71730000D01*
X114600600Y-70605700D02*
X115724900Y-71730000D01*
X130434500Y-82804000D02*
X131422600Y-82804000D01*
X131429800Y-82811200D02*
X131429800Y-83126900D01*
X131422600Y-82804000D02*
X131429800Y-82811200D01*
X124119000Y-78130000D02*
X125287000Y-76962000D01*
X120275100Y-78130000D02*
X124119000Y-78130000D01*
X131497300Y-82729300D02*
X131497300Y-79928200D01*
X131422600Y-82804000D02*
X131497300Y-82729300D01*
X131652500Y-79773000D02*
X131497300Y-79928200D01*
X135000000Y-79773000D02*
X131652500Y-79773000D01*
X128253200Y-79928200D02*
X125287000Y-76962000D01*
X131497300Y-79928200D02*
X128253200Y-79928200D01*
X124880500Y-73152000D02*
X125287000Y-73152000D01*
X123971100Y-72242600D02*
X124880500Y-73152000D01*
X123971100Y-71516400D02*
X123971100Y-72242600D01*
X124240500Y-71247000D02*
X123971100Y-71516400D01*
X126320400Y-71247000D02*
X124240500Y-71247000D01*
X126604500Y-70962900D02*
X126320400Y-71247000D01*
X126604500Y-69342000D02*
X126604500Y-70962900D01*
X128265700Y-74422000D02*
X130237000Y-74422000D01*
X126995700Y-73152000D02*
X128265700Y-74422000D01*
X125287000Y-73152000D02*
X126995700Y-73152000D01*
X135000000Y-69078100D02*
X135000000Y-67198000D01*
X136524900Y-70603000D02*
X135000000Y-69078100D01*
X135000000Y-66023000D02*
X135000000Y-67198000D01*
X135000000Y-67198000D02*
X129286000Y-67198000D01*
X133905400Y-83126900D02*
X131429800Y-83126900D01*
X134874000Y-84095500D02*
X133905400Y-83126900D01*
X138901800Y-83275800D02*
X139954000Y-84328000D01*
X135693700Y-83275800D02*
X138901800Y-83275800D01*
X134874000Y-84095500D02*
X135693700Y-83275800D01*
X143664400Y-86793500D02*
X141198900Y-84328000D01*
X143664400Y-109912200D02*
X143664400Y-86793500D01*
X141198900Y-84328000D02*
X139954000Y-84328000D01*
X118662500Y-71730000D02*
X118124900Y-71730000D01*
X118662500Y-71730000D02*
X119200000Y-71730000D01*
X137062500Y-70603000D02*
X136524900Y-70603000D01*
X137062500Y-70603000D02*
X137600000Y-70603000D01*
X141198900Y-81874100D02*
X141198900Y-84328000D01*
X143300000Y-79773000D02*
X141198900Y-81874100D01*
X137600000Y-70603000D02*
X141100100Y-70603000D01*
X141100100Y-68222900D02*
X141100100Y-70603000D01*
X143300000Y-66023000D02*
X141100100Y-68222900D01*
X141100100Y-77573100D02*
X143300000Y-79773000D01*
X141100100Y-70603000D02*
X141100100Y-77573100D01*
X109500000Y-74286500D02*
X109240000Y-74026500D01*
X109500000Y-79554900D02*
X109500000Y-74286500D01*
X108875100Y-73661600D02*
X108875100Y-73330000D01*
X109240000Y-74026500D02*
X108875100Y-73661600D01*
X107800000Y-73330000D02*
X108875100Y-73330000D01*
%TD*%
M02*
