M48
; DRILL file {KiCad (6.0.9)} date Tue 10 Jan 2023 05:42:00 PM CET
; FORMAT={-:-/ absolute / inch / decimal}
; #@! TF.CreationDate,2023-01-10T17:42:00+01:00
; #@! TF.GenerationSoftware,Kicad,Pcbnew,(6.0.9)
; #@! TF.FileFunction,Plated,1,2,PTH
FMAT,2
INCH
; #@! TA.AperFunction,Plated,PTH,ViaDrill
T1C0.0157
; #@! TA.AperFunction,Plated,PTH,ComponentDrill
T2C0.0256
; #@! TA.AperFunction,Plated,PTH,ComponentDrill
T3C0.0276
%
G90
G05
T1
X4.145Y-4.3337
X4.1847Y-3.9304
X4.1875Y-3.742
X4.2027Y-3.6097
X4.217Y-3.7144
X4.2255Y-4.4448
X4.242Y-2.7568
X4.2458Y-3.7432
X4.2486Y-3.498
X4.2486Y-3.5558
X4.2589Y-3.9122
X4.2763Y-3.2019
X4.3008Y-2.9144
X4.3014Y-3.8902
X4.3014Y-4.2509
X4.3156Y-2.8195
X4.3211Y-3.7731
X4.3298Y-2.7795
X4.3365Y-3.7027
X4.3518Y-3.5696
X4.3552Y-4.1329
X4.3587Y-3.8904
X4.3761Y-2.9897
X4.3803Y-3.6811
X4.3926Y-4.4137
X4.4485Y-2.7794
X4.4599Y-4.3885
X4.5111Y-4.0566
X4.5113Y-3.1199
X4.5113Y-3.688
X4.5118Y-2.7798
X4.6191Y-2.7925
X4.6542Y-2.64
X4.691Y-4.2953
X4.7468Y-3.1127
X4.8124Y-3.8599
X4.8703Y-3.0445
X4.8942Y-4.4461
X5.0101Y-4.35
X5.0205Y-4.4248
X5.0224Y-3.4847
X5.0556Y-3.2097
X5.0667Y-4.2678
X5.0768Y-4.0317
X5.0828Y-4.3669
X5.1709Y-4.4078
X5.1762Y-4.3685
X5.181Y-4.1278
X5.186Y-4.0846
X5.2223Y-4.3475
X5.2521Y-4.3965
X5.2541Y-4.1104
X5.3024Y-3.7908
X5.3757Y-3.6336
X5.3782Y-3.5039
X5.3878Y-4.4254
X5.5029Y-3.496
X5.5046Y-4.3961
X5.5389Y-3.5233
X5.5458Y-4.3962
X5.6454Y-4.3379
X5.7316Y-4.4432
T2
G00X4.4457Y-2.5463
M15
G01X4.4457Y-2.5621
M16
G05
G00X4.6363Y-2.5463
M15
G01X4.6363Y-2.5621
M16
G05
T3
G00X4.4335Y-2.4263
M15
G01X4.4335Y-2.4459
M16
G05
G00X4.6485Y-2.4263
M15
G01X4.6485Y-2.4459
M16
G05
T0
M30
