%TF.GenerationSoftware,KiCad,Pcbnew,(6.0.9)*%
%TF.CreationDate,2023-01-10T17:41:50+01:00*%
%TF.ProjectId,gbcart,67626361-7274-42e6-9b69-6361645f7063,rev?*%
%TF.SameCoordinates,Original*%
%TF.FileFunction,Soldermask,Bot*%
%TF.FilePolarity,Negative*%
%FSLAX46Y46*%
G04 Gerber Fmt 4.6, Leading zero omitted, Abs format (unit mm)*
G04 Created by KiCad (PCBNEW (6.0.9)) date 2023-01-10 17:41:50*
%MOMM*%
%LPD*%
G01*
G04 APERTURE LIST*
%ADD10C,0.010000*%
%ADD11O,1.100000X1.500000*%
%ADD12O,1.350000X1.700000*%
%ADD13C,7.200000*%
%ADD14C,2.300000*%
G04 APERTURE END LIST*
%TO.C,REF\u002A\u002A*%
G36*
X146669083Y-78260033D02*
G01*
X146669693Y-78260456D01*
X146670750Y-78262111D01*
X146671606Y-78264806D01*
X146672285Y-78268491D01*
X146672810Y-78273116D01*
X146673487Y-78284993D01*
X146673818Y-78300042D01*
X146673986Y-78317871D01*
X146669233Y-78368519D01*
X146654959Y-78440280D01*
X146601383Y-78637436D01*
X146520335Y-78889926D01*
X146418887Y-79178338D01*
X146304114Y-79483261D01*
X146183089Y-79785282D01*
X146062887Y-80064990D01*
X145950582Y-80302972D01*
X145932160Y-80339509D01*
X145915768Y-80371814D01*
X145901231Y-80400144D01*
X145888376Y-80424760D01*
X145877031Y-80445919D01*
X145871871Y-80455283D01*
X145867023Y-80463880D01*
X145862466Y-80471743D01*
X145858178Y-80478903D01*
X145854138Y-80485393D01*
X145850323Y-80491246D01*
X145846713Y-80496493D01*
X145843286Y-80501167D01*
X145840020Y-80505301D01*
X145836893Y-80508926D01*
X145833884Y-80512076D01*
X145830971Y-80514782D01*
X145828132Y-80517076D01*
X145825346Y-80518992D01*
X145822592Y-80520561D01*
X145819847Y-80521816D01*
X145817090Y-80522790D01*
X145814299Y-80523513D01*
X145811453Y-80524020D01*
X145808530Y-80524342D01*
X145805509Y-80524511D01*
X145802367Y-80524560D01*
X145790511Y-80524037D01*
X145786230Y-80522795D01*
X145783238Y-80520375D01*
X145781676Y-80516385D01*
X145781688Y-80510433D01*
X145783416Y-80502127D01*
X145787003Y-80491074D01*
X145792591Y-80476882D01*
X145800323Y-80459158D01*
X145822789Y-80411545D01*
X145899724Y-80256671D01*
X145973225Y-80104458D01*
X146047589Y-79939567D01*
X146123494Y-79760256D01*
X146201617Y-79564785D01*
X146282636Y-79351414D01*
X146367229Y-79118401D01*
X146456073Y-78864006D01*
X146549846Y-78586488D01*
X146590565Y-78464421D01*
X146621174Y-78373932D01*
X146633142Y-78339546D01*
X146643128Y-78311874D01*
X146651314Y-78290523D01*
X146654789Y-78282095D01*
X146657882Y-78275099D01*
X146660615Y-78269487D01*
X146663013Y-78265209D01*
X146665097Y-78262216D01*
X146666889Y-78260459D01*
X146667684Y-78260029D01*
X146668414Y-78259889D01*
X146669083Y-78260033D01*
G37*
D10*
X146669083Y-78260033D02*
X146669693Y-78260456D01*
X146670750Y-78262111D01*
X146671606Y-78264806D01*
X146672285Y-78268491D01*
X146672810Y-78273116D01*
X146673487Y-78284993D01*
X146673818Y-78300042D01*
X146673986Y-78317871D01*
X146669233Y-78368519D01*
X146654959Y-78440280D01*
X146601383Y-78637436D01*
X146520335Y-78889926D01*
X146418887Y-79178338D01*
X146304114Y-79483261D01*
X146183089Y-79785282D01*
X146062887Y-80064990D01*
X145950582Y-80302972D01*
X145932160Y-80339509D01*
X145915768Y-80371814D01*
X145901231Y-80400144D01*
X145888376Y-80424760D01*
X145877031Y-80445919D01*
X145871871Y-80455283D01*
X145867023Y-80463880D01*
X145862466Y-80471743D01*
X145858178Y-80478903D01*
X145854138Y-80485393D01*
X145850323Y-80491246D01*
X145846713Y-80496493D01*
X145843286Y-80501167D01*
X145840020Y-80505301D01*
X145836893Y-80508926D01*
X145833884Y-80512076D01*
X145830971Y-80514782D01*
X145828132Y-80517076D01*
X145825346Y-80518992D01*
X145822592Y-80520561D01*
X145819847Y-80521816D01*
X145817090Y-80522790D01*
X145814299Y-80523513D01*
X145811453Y-80524020D01*
X145808530Y-80524342D01*
X145805509Y-80524511D01*
X145802367Y-80524560D01*
X145790511Y-80524037D01*
X145786230Y-80522795D01*
X145783238Y-80520375D01*
X145781676Y-80516385D01*
X145781688Y-80510433D01*
X145783416Y-80502127D01*
X145787003Y-80491074D01*
X145792591Y-80476882D01*
X145800323Y-80459158D01*
X145822789Y-80411545D01*
X145899724Y-80256671D01*
X145973225Y-80104458D01*
X146047589Y-79939567D01*
X146123494Y-79760256D01*
X146201617Y-79564785D01*
X146282636Y-79351414D01*
X146367229Y-79118401D01*
X146456073Y-78864006D01*
X146549846Y-78586488D01*
X146590565Y-78464421D01*
X146621174Y-78373932D01*
X146633142Y-78339546D01*
X146643128Y-78311874D01*
X146651314Y-78290523D01*
X146654789Y-78282095D01*
X146657882Y-78275099D01*
X146660615Y-78269487D01*
X146663013Y-78265209D01*
X146665097Y-78262216D01*
X146666889Y-78260459D01*
X146667684Y-78260029D01*
X146668414Y-78259889D01*
X146669083Y-78260033D01*
G36*
X146034772Y-67221215D02*
G01*
X146035834Y-67222662D01*
X146038869Y-67228679D01*
X146043118Y-67238937D01*
X146048582Y-67253530D01*
X146055262Y-67272550D01*
X146072265Y-67324244D01*
X146244346Y-67851020D01*
X146509002Y-68664614D01*
X146655710Y-69120069D01*
X146657759Y-69126973D01*
X146659727Y-69134800D01*
X146663387Y-69152963D01*
X146666635Y-69174024D01*
X146669416Y-69197452D01*
X146671675Y-69222714D01*
X146673357Y-69249276D01*
X146674407Y-69276608D01*
X146674769Y-69304175D01*
X146674670Y-69329278D01*
X146674385Y-69352480D01*
X146673935Y-69373287D01*
X146673340Y-69391209D01*
X146672619Y-69405752D01*
X146671793Y-69416424D01*
X146671347Y-69420155D01*
X146670882Y-69422734D01*
X146670400Y-69424099D01*
X146670154Y-69424307D01*
X146669904Y-69424189D01*
X146659975Y-69394386D01*
X146636534Y-69317315D01*
X146563136Y-69068103D01*
X146383957Y-68452947D01*
X146211856Y-67857635D01*
X146131743Y-67579542D01*
X146072293Y-67375364D01*
X146055285Y-67316088D01*
X146043135Y-67270438D01*
X146038882Y-67252954D01*
X146035843Y-67239155D01*
X146034019Y-67229133D01*
X146033409Y-67222982D01*
X146033560Y-67221387D01*
X146034014Y-67220794D01*
X146034772Y-67221215D01*
G37*
X146034772Y-67221215D02*
X146035834Y-67222662D01*
X146038869Y-67228679D01*
X146043118Y-67238937D01*
X146048582Y-67253530D01*
X146055262Y-67272550D01*
X146072265Y-67324244D01*
X146244346Y-67851020D01*
X146509002Y-68664614D01*
X146655710Y-69120069D01*
X146657759Y-69126973D01*
X146659727Y-69134800D01*
X146663387Y-69152963D01*
X146666635Y-69174024D01*
X146669416Y-69197452D01*
X146671675Y-69222714D01*
X146673357Y-69249276D01*
X146674407Y-69276608D01*
X146674769Y-69304175D01*
X146674670Y-69329278D01*
X146674385Y-69352480D01*
X146673935Y-69373287D01*
X146673340Y-69391209D01*
X146672619Y-69405752D01*
X146671793Y-69416424D01*
X146671347Y-69420155D01*
X146670882Y-69422734D01*
X146670400Y-69424099D01*
X146670154Y-69424307D01*
X146669904Y-69424189D01*
X146659975Y-69394386D01*
X146636534Y-69317315D01*
X146563136Y-69068103D01*
X146383957Y-68452947D01*
X146211856Y-67857635D01*
X146131743Y-67579542D01*
X146072293Y-67375364D01*
X146055285Y-67316088D01*
X146043135Y-67270438D01*
X146038882Y-67252954D01*
X146035843Y-67239155D01*
X146034019Y-67229133D01*
X146033409Y-67222982D01*
X146033560Y-67221387D01*
X146034014Y-67220794D01*
X146034772Y-67221215D01*
G36*
X132588848Y-74002823D02*
G01*
X132592342Y-74003736D01*
X132595448Y-74005607D01*
X132598203Y-74008723D01*
X132600648Y-74013369D01*
X132602821Y-74019831D01*
X132604760Y-74028397D01*
X132606505Y-74039351D01*
X132609566Y-74069571D01*
X132612314Y-74112780D01*
X132618115Y-74247322D01*
X132643790Y-74676972D01*
X132688693Y-75170525D01*
X132750053Y-75708507D01*
X132825099Y-76271444D01*
X132911059Y-76839862D01*
X133005162Y-77394287D01*
X133104636Y-77915246D01*
X133206710Y-78383264D01*
X133230240Y-78490081D01*
X133267726Y-78665863D01*
X133360759Y-79081454D01*
X133489225Y-79627658D01*
X133616241Y-80150198D01*
X133704930Y-80494795D01*
X133707337Y-80504510D01*
X133707779Y-80508453D01*
X133707492Y-80511842D01*
X133707022Y-80513341D01*
X133706307Y-80514718D01*
X133705327Y-80515978D01*
X133704059Y-80517125D01*
X133700579Y-80519104D01*
X133695701Y-80520696D01*
X133689258Y-80521944D01*
X133681083Y-80522890D01*
X133671009Y-80523575D01*
X133658868Y-80524042D01*
X133627721Y-80524487D01*
X133586305Y-80524560D01*
X133564968Y-80524537D01*
X133546142Y-80524443D01*
X133529659Y-80524240D01*
X133515351Y-80523892D01*
X133508961Y-80523651D01*
X133503052Y-80523360D01*
X133497603Y-80523015D01*
X133492593Y-80522609D01*
X133488002Y-80522139D01*
X133483808Y-80521600D01*
X133479990Y-80520988D01*
X133476528Y-80520297D01*
X133473400Y-80519523D01*
X133470585Y-80518662D01*
X133468064Y-80517708D01*
X133465814Y-80516657D01*
X133463814Y-80515505D01*
X133462045Y-80514247D01*
X133460484Y-80512877D01*
X133459111Y-80511392D01*
X133457905Y-80509787D01*
X133456846Y-80508057D01*
X133455911Y-80506198D01*
X133455080Y-80504204D01*
X133454333Y-80502072D01*
X133453647Y-80499796D01*
X133452380Y-80494795D01*
X133392129Y-80241571D01*
X133319369Y-79921996D01*
X133236880Y-79537125D01*
X133156171Y-79141970D01*
X133088752Y-78791540D01*
X133016950Y-78387846D01*
X132949650Y-77982836D01*
X132887191Y-77578969D01*
X132829909Y-77178705D01*
X132778143Y-76784501D01*
X132732229Y-76398817D01*
X132692506Y-76024111D01*
X132659310Y-75662842D01*
X132635663Y-75364119D01*
X132615124Y-75069312D01*
X132598188Y-74789489D01*
X132585353Y-74535721D01*
X132577113Y-74319077D01*
X132573964Y-74150626D01*
X132574455Y-74087933D01*
X132576404Y-74041438D01*
X132579874Y-74012527D01*
X132582199Y-74005097D01*
X132584927Y-74002582D01*
X132588848Y-74002823D01*
G37*
X132588848Y-74002823D02*
X132592342Y-74003736D01*
X132595448Y-74005607D01*
X132598203Y-74008723D01*
X132600648Y-74013369D01*
X132602821Y-74019831D01*
X132604760Y-74028397D01*
X132606505Y-74039351D01*
X132609566Y-74069571D01*
X132612314Y-74112780D01*
X132618115Y-74247322D01*
X132643790Y-74676972D01*
X132688693Y-75170525D01*
X132750053Y-75708507D01*
X132825099Y-76271444D01*
X132911059Y-76839862D01*
X133005162Y-77394287D01*
X133104636Y-77915246D01*
X133206710Y-78383264D01*
X133230240Y-78490081D01*
X133267726Y-78665863D01*
X133360759Y-79081454D01*
X133489225Y-79627658D01*
X133616241Y-80150198D01*
X133704930Y-80494795D01*
X133707337Y-80504510D01*
X133707779Y-80508453D01*
X133707492Y-80511842D01*
X133707022Y-80513341D01*
X133706307Y-80514718D01*
X133705327Y-80515978D01*
X133704059Y-80517125D01*
X133700579Y-80519104D01*
X133695701Y-80520696D01*
X133689258Y-80521944D01*
X133681083Y-80522890D01*
X133671009Y-80523575D01*
X133658868Y-80524042D01*
X133627721Y-80524487D01*
X133586305Y-80524560D01*
X133564968Y-80524537D01*
X133546142Y-80524443D01*
X133529659Y-80524240D01*
X133515351Y-80523892D01*
X133508961Y-80523651D01*
X133503052Y-80523360D01*
X133497603Y-80523015D01*
X133492593Y-80522609D01*
X133488002Y-80522139D01*
X133483808Y-80521600D01*
X133479990Y-80520988D01*
X133476528Y-80520297D01*
X133473400Y-80519523D01*
X133470585Y-80518662D01*
X133468064Y-80517708D01*
X133465814Y-80516657D01*
X133463814Y-80515505D01*
X133462045Y-80514247D01*
X133460484Y-80512877D01*
X133459111Y-80511392D01*
X133457905Y-80509787D01*
X133456846Y-80508057D01*
X133455911Y-80506198D01*
X133455080Y-80504204D01*
X133454333Y-80502072D01*
X133453647Y-80499796D01*
X133452380Y-80494795D01*
X133392129Y-80241571D01*
X133319369Y-79921996D01*
X133236880Y-79537125D01*
X133156171Y-79141970D01*
X133088752Y-78791540D01*
X133016950Y-78387846D01*
X132949650Y-77982836D01*
X132887191Y-77578969D01*
X132829909Y-77178705D01*
X132778143Y-76784501D01*
X132732229Y-76398817D01*
X132692506Y-76024111D01*
X132659310Y-75662842D01*
X132635663Y-75364119D01*
X132615124Y-75069312D01*
X132598188Y-74789489D01*
X132585353Y-74535721D01*
X132577113Y-74319077D01*
X132573964Y-74150626D01*
X132574455Y-74087933D01*
X132576404Y-74041438D01*
X132579874Y-74012527D01*
X132582199Y-74005097D01*
X132584927Y-74002582D01*
X132588848Y-74002823D01*
G36*
X137284238Y-73235468D02*
G01*
X137287556Y-73236039D01*
X137290583Y-73237062D01*
X137293343Y-73238595D01*
X137295859Y-73240696D01*
X137298155Y-73243424D01*
X137300255Y-73246836D01*
X137302182Y-73250992D01*
X137303960Y-73255948D01*
X137305613Y-73261765D01*
X137307163Y-73268499D01*
X137308636Y-73276209D01*
X137310055Y-73284953D01*
X137311443Y-73294790D01*
X137314222Y-73317973D01*
X137316721Y-73336665D01*
X137320263Y-73357098D01*
X137330267Y-73402546D01*
X137343815Y-73453030D01*
X137360490Y-73507264D01*
X137379873Y-73563960D01*
X137401546Y-73621832D01*
X137425091Y-73679594D01*
X137450089Y-73735959D01*
X137462382Y-73762669D01*
X137473414Y-73787029D01*
X137483225Y-73809169D01*
X137491855Y-73829217D01*
X137499346Y-73847303D01*
X137505738Y-73863558D01*
X137511071Y-73878110D01*
X137515385Y-73891090D01*
X137518721Y-73902627D01*
X137520035Y-73907895D01*
X137521120Y-73912851D01*
X137521981Y-73917511D01*
X137522622Y-73921891D01*
X137523050Y-73926007D01*
X137523268Y-73929877D01*
X137523282Y-73933515D01*
X137523097Y-73936939D01*
X137522718Y-73940163D01*
X137522151Y-73943206D01*
X137521399Y-73946082D01*
X137520469Y-73948808D01*
X137519366Y-73951400D01*
X137518093Y-73953875D01*
X137515405Y-73958630D01*
X137512956Y-73962756D01*
X137510660Y-73966257D01*
X137508428Y-73969138D01*
X137507309Y-73970347D01*
X137506174Y-73971402D01*
X137505011Y-73972304D01*
X137503810Y-73973053D01*
X137502560Y-73973650D01*
X137501249Y-73974095D01*
X137499867Y-73974389D01*
X137498403Y-73974532D01*
X137496846Y-73974525D01*
X137495185Y-73974368D01*
X137493409Y-73974062D01*
X137491508Y-73973607D01*
X137487283Y-73972253D01*
X137482425Y-73970310D01*
X137476844Y-73967781D01*
X137470454Y-73964672D01*
X137454897Y-73956724D01*
X137445779Y-73951383D01*
X137435737Y-73944366D01*
X137424901Y-73935818D01*
X137413400Y-73925883D01*
X137401364Y-73914705D01*
X137388924Y-73902431D01*
X137376208Y-73889205D01*
X137363348Y-73875172D01*
X137350471Y-73860476D01*
X137337709Y-73845262D01*
X137325192Y-73829676D01*
X137313047Y-73813863D01*
X137301407Y-73797966D01*
X137290400Y-73782132D01*
X137280156Y-73766504D01*
X137270806Y-73751228D01*
X137265791Y-73741458D01*
X137261145Y-73729907D01*
X137252952Y-73702007D01*
X137246205Y-73668626D01*
X137240883Y-73630863D01*
X137236966Y-73589813D01*
X137234432Y-73546576D01*
X137233261Y-73502247D01*
X137233432Y-73457926D01*
X137234923Y-73414708D01*
X137237715Y-73373692D01*
X137241787Y-73335976D01*
X137247117Y-73302656D01*
X137253684Y-73274830D01*
X137257426Y-73263320D01*
X137261469Y-73253595D01*
X137265811Y-73245793D01*
X137270449Y-73240050D01*
X137275381Y-73236503D01*
X137280605Y-73235290D01*
X137284238Y-73235468D01*
G37*
X137284238Y-73235468D02*
X137287556Y-73236039D01*
X137290583Y-73237062D01*
X137293343Y-73238595D01*
X137295859Y-73240696D01*
X137298155Y-73243424D01*
X137300255Y-73246836D01*
X137302182Y-73250992D01*
X137303960Y-73255948D01*
X137305613Y-73261765D01*
X137307163Y-73268499D01*
X137308636Y-73276209D01*
X137310055Y-73284953D01*
X137311443Y-73294790D01*
X137314222Y-73317973D01*
X137316721Y-73336665D01*
X137320263Y-73357098D01*
X137330267Y-73402546D01*
X137343815Y-73453030D01*
X137360490Y-73507264D01*
X137379873Y-73563960D01*
X137401546Y-73621832D01*
X137425091Y-73679594D01*
X137450089Y-73735959D01*
X137462382Y-73762669D01*
X137473414Y-73787029D01*
X137483225Y-73809169D01*
X137491855Y-73829217D01*
X137499346Y-73847303D01*
X137505738Y-73863558D01*
X137511071Y-73878110D01*
X137515385Y-73891090D01*
X137518721Y-73902627D01*
X137520035Y-73907895D01*
X137521120Y-73912851D01*
X137521981Y-73917511D01*
X137522622Y-73921891D01*
X137523050Y-73926007D01*
X137523268Y-73929877D01*
X137523282Y-73933515D01*
X137523097Y-73936939D01*
X137522718Y-73940163D01*
X137522151Y-73943206D01*
X137521399Y-73946082D01*
X137520469Y-73948808D01*
X137519366Y-73951400D01*
X137518093Y-73953875D01*
X137515405Y-73958630D01*
X137512956Y-73962756D01*
X137510660Y-73966257D01*
X137508428Y-73969138D01*
X137507309Y-73970347D01*
X137506174Y-73971402D01*
X137505011Y-73972304D01*
X137503810Y-73973053D01*
X137502560Y-73973650D01*
X137501249Y-73974095D01*
X137499867Y-73974389D01*
X137498403Y-73974532D01*
X137496846Y-73974525D01*
X137495185Y-73974368D01*
X137493409Y-73974062D01*
X137491508Y-73973607D01*
X137487283Y-73972253D01*
X137482425Y-73970310D01*
X137476844Y-73967781D01*
X137470454Y-73964672D01*
X137454897Y-73956724D01*
X137445779Y-73951383D01*
X137435737Y-73944366D01*
X137424901Y-73935818D01*
X137413400Y-73925883D01*
X137401364Y-73914705D01*
X137388924Y-73902431D01*
X137376208Y-73889205D01*
X137363348Y-73875172D01*
X137350471Y-73860476D01*
X137337709Y-73845262D01*
X137325192Y-73829676D01*
X137313047Y-73813863D01*
X137301407Y-73797966D01*
X137290400Y-73782132D01*
X137280156Y-73766504D01*
X137270806Y-73751228D01*
X137265791Y-73741458D01*
X137261145Y-73729907D01*
X137252952Y-73702007D01*
X137246205Y-73668626D01*
X137240883Y-73630863D01*
X137236966Y-73589813D01*
X137234432Y-73546576D01*
X137233261Y-73502247D01*
X137233432Y-73457926D01*
X137234923Y-73414708D01*
X137237715Y-73373692D01*
X137241787Y-73335976D01*
X137247117Y-73302656D01*
X137253684Y-73274830D01*
X137257426Y-73263320D01*
X137261469Y-73253595D01*
X137265811Y-73245793D01*
X137270449Y-73240050D01*
X137275381Y-73236503D01*
X137280605Y-73235290D01*
X137284238Y-73235468D01*
G36*
X140294099Y-76073174D02*
G01*
X140282651Y-76183531D01*
X140266949Y-76292049D01*
X140247076Y-76398519D01*
X140223115Y-76502733D01*
X140195149Y-76604483D01*
X140163259Y-76703561D01*
X140127530Y-76799759D01*
X140088043Y-76892868D01*
X140044881Y-76982681D01*
X139998127Y-77068990D01*
X139947864Y-77151586D01*
X139894174Y-77230261D01*
X139837140Y-77304807D01*
X139776844Y-77375016D01*
X139713371Y-77440680D01*
X139646801Y-77501591D01*
X139577218Y-77557541D01*
X139504704Y-77608321D01*
X139429342Y-77653723D01*
X139351216Y-77693540D01*
X139270406Y-77727563D01*
X139186997Y-77755583D01*
X139101071Y-77777394D01*
X139032364Y-77790334D01*
X138964914Y-77799514D01*
X138898738Y-77804948D01*
X138833850Y-77806649D01*
X138770265Y-77804631D01*
X138707998Y-77798908D01*
X138647064Y-77789494D01*
X138587477Y-77776402D01*
X138529254Y-77759647D01*
X138472408Y-77739242D01*
X138416956Y-77715201D01*
X138362911Y-77687537D01*
X138310288Y-77656265D01*
X138259104Y-77621398D01*
X138209371Y-77582950D01*
X138161107Y-77540935D01*
X138114325Y-77495366D01*
X138069040Y-77446258D01*
X138025268Y-77393624D01*
X137983024Y-77337478D01*
X137942321Y-77277834D01*
X137903176Y-77214705D01*
X137829618Y-77078049D01*
X137762469Y-76927620D01*
X137701848Y-76763529D01*
X137647875Y-76585886D01*
X137600669Y-76394800D01*
X137593720Y-76366314D01*
X137734357Y-76366314D01*
X137734580Y-76418118D01*
X137737761Y-76467311D01*
X137743915Y-76513819D01*
X137753058Y-76557568D01*
X137786239Y-76679486D01*
X137822727Y-76794296D01*
X137862552Y-76902034D01*
X137905744Y-77002735D01*
X137952332Y-77096433D01*
X137976908Y-77140667D01*
X138002344Y-77183163D01*
X138028644Y-77223926D01*
X138055811Y-77262959D01*
X138083849Y-77300268D01*
X138112761Y-77335857D01*
X138142552Y-77369729D01*
X138173225Y-77401890D01*
X138204783Y-77432344D01*
X138237230Y-77461094D01*
X138270570Y-77488146D01*
X138304807Y-77513503D01*
X138339944Y-77537170D01*
X138375984Y-77559152D01*
X138412932Y-77579452D01*
X138450792Y-77598076D01*
X138489566Y-77615026D01*
X138529259Y-77630308D01*
X138569874Y-77643926D01*
X138611414Y-77655885D01*
X138653885Y-77666188D01*
X138697288Y-77674840D01*
X138697288Y-77674841D01*
X138773807Y-77685565D01*
X138849564Y-77690403D01*
X138924442Y-77689500D01*
X138998326Y-77683003D01*
X139071098Y-77671056D01*
X139142641Y-77653805D01*
X139212840Y-77631394D01*
X139281576Y-77603969D01*
X139348734Y-77571674D01*
X139414197Y-77534656D01*
X139477848Y-77493059D01*
X139539571Y-77447028D01*
X139599248Y-77396708D01*
X139656763Y-77342246D01*
X139711999Y-77283785D01*
X139764840Y-77221471D01*
X139815169Y-77155450D01*
X139862869Y-77085865D01*
X139907824Y-77012863D01*
X139949916Y-76936589D01*
X139989030Y-76857188D01*
X140025047Y-76774805D01*
X140057853Y-76689585D01*
X140087330Y-76601673D01*
X140113360Y-76511214D01*
X140135829Y-76418355D01*
X140154618Y-76323239D01*
X140169612Y-76226012D01*
X140180693Y-76126819D01*
X140187745Y-76025806D01*
X140190651Y-75923117D01*
X140189295Y-75818897D01*
X140186769Y-75744348D01*
X140185431Y-75714109D01*
X140183752Y-75687759D01*
X140181514Y-75664698D01*
X140180118Y-75654213D01*
X140178500Y-75644325D01*
X140176633Y-75634959D01*
X140174490Y-75626041D01*
X140172044Y-75617494D01*
X140169268Y-75609244D01*
X140166133Y-75601217D01*
X140162614Y-75593336D01*
X140158683Y-75585527D01*
X140154312Y-75577714D01*
X140149474Y-75569823D01*
X140144143Y-75561779D01*
X140131889Y-75544931D01*
X140117332Y-75526569D01*
X140100254Y-75506093D01*
X140057664Y-75456396D01*
X139990355Y-75380746D01*
X139923642Y-75311693D01*
X139857067Y-75249044D01*
X139790171Y-75192609D01*
X139722496Y-75142197D01*
X139653584Y-75097617D01*
X139582975Y-75058677D01*
X139510211Y-75025188D01*
X139434834Y-74996956D01*
X139356385Y-74973792D01*
X139274405Y-74955505D01*
X139188437Y-74941904D01*
X139098021Y-74932796D01*
X139002700Y-74927993D01*
X138902013Y-74927301D01*
X138795504Y-74930531D01*
X138770355Y-74932629D01*
X138744221Y-74936573D01*
X138717194Y-74942292D01*
X138689367Y-74949718D01*
X138660830Y-74958780D01*
X138631675Y-74969409D01*
X138571878Y-74995089D01*
X138510710Y-75026202D01*
X138448902Y-75062190D01*
X138387189Y-75102497D01*
X138326302Y-75146566D01*
X138266976Y-75193839D01*
X138209942Y-75243760D01*
X138155935Y-75295772D01*
X138105686Y-75349317D01*
X138059929Y-75403840D01*
X138019397Y-75458782D01*
X138001319Y-75486237D01*
X137984822Y-75513588D01*
X137969998Y-75540766D01*
X137956938Y-75567700D01*
X137922840Y-75645113D01*
X137891518Y-75720796D01*
X137862989Y-75794675D01*
X137837266Y-75866678D01*
X137814366Y-75936730D01*
X137794303Y-76004758D01*
X137777092Y-76070689D01*
X137762750Y-76134450D01*
X137751290Y-76195966D01*
X137742728Y-76255164D01*
X137737078Y-76311971D01*
X137734357Y-76366314D01*
X137593720Y-76366314D01*
X137562255Y-76237324D01*
X137515200Y-76071164D01*
X137460974Y-75900344D01*
X137401047Y-75728885D01*
X137336889Y-75560811D01*
X137269970Y-75400144D01*
X137201761Y-75250907D01*
X137167632Y-75181831D01*
X137133732Y-75117122D01*
X137108364Y-75068751D01*
X137099277Y-75048883D01*
X137092973Y-75031512D01*
X137090957Y-75023673D01*
X137089745Y-75016352D01*
X137089375Y-75009512D01*
X137089882Y-75003117D01*
X137091303Y-74997132D01*
X137093674Y-74991522D01*
X137097031Y-74986249D01*
X137101411Y-74981280D01*
X137106850Y-74976577D01*
X137113385Y-74972105D01*
X137121050Y-74967829D01*
X137129884Y-74963712D01*
X137151200Y-74955815D01*
X137177622Y-74948127D01*
X137209441Y-74940363D01*
X137246947Y-74932237D01*
X137340181Y-74913755D01*
X137478108Y-74889174D01*
X137620655Y-74867958D01*
X137767430Y-74850105D01*
X137918040Y-74835614D01*
X138229195Y-74816713D01*
X138550980Y-74811241D01*
X138880253Y-74819187D01*
X139213873Y-74840539D01*
X139548700Y-74875285D01*
X139881592Y-74923413D01*
X139977465Y-74939437D01*
X140016450Y-74946192D01*
X140050050Y-74952312D01*
X140064966Y-74955181D01*
X140078700Y-74957948D01*
X140091306Y-74960633D01*
X140102838Y-74963253D01*
X140113351Y-74965829D01*
X140122900Y-74968379D01*
X140131538Y-74970922D01*
X140139322Y-74973477D01*
X140146305Y-74976064D01*
X140152542Y-74978700D01*
X140158087Y-74981406D01*
X140162996Y-74984200D01*
X140167322Y-74987101D01*
X140171120Y-74990128D01*
X140174445Y-74993301D01*
X140177351Y-74996637D01*
X140179893Y-75000157D01*
X140182126Y-75003879D01*
X140184103Y-75007822D01*
X140185880Y-75012005D01*
X140187512Y-75016448D01*
X140189052Y-75021168D01*
X140192077Y-75031520D01*
X140222632Y-75149068D01*
X140248190Y-75266649D01*
X140268832Y-75384056D01*
X140284642Y-75501080D01*
X140295703Y-75617513D01*
X140302096Y-75733147D01*
X140303904Y-75847774D01*
X140302115Y-75923117D01*
X140301211Y-75961186D01*
X140294099Y-76073174D01*
G37*
X140294099Y-76073174D02*
X140282651Y-76183531D01*
X140266949Y-76292049D01*
X140247076Y-76398519D01*
X140223115Y-76502733D01*
X140195149Y-76604483D01*
X140163259Y-76703561D01*
X140127530Y-76799759D01*
X140088043Y-76892868D01*
X140044881Y-76982681D01*
X139998127Y-77068990D01*
X139947864Y-77151586D01*
X139894174Y-77230261D01*
X139837140Y-77304807D01*
X139776844Y-77375016D01*
X139713371Y-77440680D01*
X139646801Y-77501591D01*
X139577218Y-77557541D01*
X139504704Y-77608321D01*
X139429342Y-77653723D01*
X139351216Y-77693540D01*
X139270406Y-77727563D01*
X139186997Y-77755583D01*
X139101071Y-77777394D01*
X139032364Y-77790334D01*
X138964914Y-77799514D01*
X138898738Y-77804948D01*
X138833850Y-77806649D01*
X138770265Y-77804631D01*
X138707998Y-77798908D01*
X138647064Y-77789494D01*
X138587477Y-77776402D01*
X138529254Y-77759647D01*
X138472408Y-77739242D01*
X138416956Y-77715201D01*
X138362911Y-77687537D01*
X138310288Y-77656265D01*
X138259104Y-77621398D01*
X138209371Y-77582950D01*
X138161107Y-77540935D01*
X138114325Y-77495366D01*
X138069040Y-77446258D01*
X138025268Y-77393624D01*
X137983024Y-77337478D01*
X137942321Y-77277834D01*
X137903176Y-77214705D01*
X137829618Y-77078049D01*
X137762469Y-76927620D01*
X137701848Y-76763529D01*
X137647875Y-76585886D01*
X137600669Y-76394800D01*
X137593720Y-76366314D01*
X137734357Y-76366314D01*
X137734580Y-76418118D01*
X137737761Y-76467311D01*
X137743915Y-76513819D01*
X137753058Y-76557568D01*
X137786239Y-76679486D01*
X137822727Y-76794296D01*
X137862552Y-76902034D01*
X137905744Y-77002735D01*
X137952332Y-77096433D01*
X137976908Y-77140667D01*
X138002344Y-77183163D01*
X138028644Y-77223926D01*
X138055811Y-77262959D01*
X138083849Y-77300268D01*
X138112761Y-77335857D01*
X138142552Y-77369729D01*
X138173225Y-77401890D01*
X138204783Y-77432344D01*
X138237230Y-77461094D01*
X138270570Y-77488146D01*
X138304807Y-77513503D01*
X138339944Y-77537170D01*
X138375984Y-77559152D01*
X138412932Y-77579452D01*
X138450792Y-77598076D01*
X138489566Y-77615026D01*
X138529259Y-77630308D01*
X138569874Y-77643926D01*
X138611414Y-77655885D01*
X138653885Y-77666188D01*
X138697288Y-77674840D01*
X138697288Y-77674841D01*
X138773807Y-77685565D01*
X138849564Y-77690403D01*
X138924442Y-77689500D01*
X138998326Y-77683003D01*
X139071098Y-77671056D01*
X139142641Y-77653805D01*
X139212840Y-77631394D01*
X139281576Y-77603969D01*
X139348734Y-77571674D01*
X139414197Y-77534656D01*
X139477848Y-77493059D01*
X139539571Y-77447028D01*
X139599248Y-77396708D01*
X139656763Y-77342246D01*
X139711999Y-77283785D01*
X139764840Y-77221471D01*
X139815169Y-77155450D01*
X139862869Y-77085865D01*
X139907824Y-77012863D01*
X139949916Y-76936589D01*
X139989030Y-76857188D01*
X140025047Y-76774805D01*
X140057853Y-76689585D01*
X140087330Y-76601673D01*
X140113360Y-76511214D01*
X140135829Y-76418355D01*
X140154618Y-76323239D01*
X140169612Y-76226012D01*
X140180693Y-76126819D01*
X140187745Y-76025806D01*
X140190651Y-75923117D01*
X140189295Y-75818897D01*
X140186769Y-75744348D01*
X140185431Y-75714109D01*
X140183752Y-75687759D01*
X140181514Y-75664698D01*
X140180118Y-75654213D01*
X140178500Y-75644325D01*
X140176633Y-75634959D01*
X140174490Y-75626041D01*
X140172044Y-75617494D01*
X140169268Y-75609244D01*
X140166133Y-75601217D01*
X140162614Y-75593336D01*
X140158683Y-75585527D01*
X140154312Y-75577714D01*
X140149474Y-75569823D01*
X140144143Y-75561779D01*
X140131889Y-75544931D01*
X140117332Y-75526569D01*
X140100254Y-75506093D01*
X140057664Y-75456396D01*
X139990355Y-75380746D01*
X139923642Y-75311693D01*
X139857067Y-75249044D01*
X139790171Y-75192609D01*
X139722496Y-75142197D01*
X139653584Y-75097617D01*
X139582975Y-75058677D01*
X139510211Y-75025188D01*
X139434834Y-74996956D01*
X139356385Y-74973792D01*
X139274405Y-74955505D01*
X139188437Y-74941904D01*
X139098021Y-74932796D01*
X139002700Y-74927993D01*
X138902013Y-74927301D01*
X138795504Y-74930531D01*
X138770355Y-74932629D01*
X138744221Y-74936573D01*
X138717194Y-74942292D01*
X138689367Y-74949718D01*
X138660830Y-74958780D01*
X138631675Y-74969409D01*
X138571878Y-74995089D01*
X138510710Y-75026202D01*
X138448902Y-75062190D01*
X138387189Y-75102497D01*
X138326302Y-75146566D01*
X138266976Y-75193839D01*
X138209942Y-75243760D01*
X138155935Y-75295772D01*
X138105686Y-75349317D01*
X138059929Y-75403840D01*
X138019397Y-75458782D01*
X138001319Y-75486237D01*
X137984822Y-75513588D01*
X137969998Y-75540766D01*
X137956938Y-75567700D01*
X137922840Y-75645113D01*
X137891518Y-75720796D01*
X137862989Y-75794675D01*
X137837266Y-75866678D01*
X137814366Y-75936730D01*
X137794303Y-76004758D01*
X137777092Y-76070689D01*
X137762750Y-76134450D01*
X137751290Y-76195966D01*
X137742728Y-76255164D01*
X137737078Y-76311971D01*
X137734357Y-76366314D01*
X137593720Y-76366314D01*
X137562255Y-76237324D01*
X137515200Y-76071164D01*
X137460974Y-75900344D01*
X137401047Y-75728885D01*
X137336889Y-75560811D01*
X137269970Y-75400144D01*
X137201761Y-75250907D01*
X137167632Y-75181831D01*
X137133732Y-75117122D01*
X137108364Y-75068751D01*
X137099277Y-75048883D01*
X137092973Y-75031512D01*
X137090957Y-75023673D01*
X137089745Y-75016352D01*
X137089375Y-75009512D01*
X137089882Y-75003117D01*
X137091303Y-74997132D01*
X137093674Y-74991522D01*
X137097031Y-74986249D01*
X137101411Y-74981280D01*
X137106850Y-74976577D01*
X137113385Y-74972105D01*
X137121050Y-74967829D01*
X137129884Y-74963712D01*
X137151200Y-74955815D01*
X137177622Y-74948127D01*
X137209441Y-74940363D01*
X137246947Y-74932237D01*
X137340181Y-74913755D01*
X137478108Y-74889174D01*
X137620655Y-74867958D01*
X137767430Y-74850105D01*
X137918040Y-74835614D01*
X138229195Y-74816713D01*
X138550980Y-74811241D01*
X138880253Y-74819187D01*
X139213873Y-74840539D01*
X139548700Y-74875285D01*
X139881592Y-74923413D01*
X139977465Y-74939437D01*
X140016450Y-74946192D01*
X140050050Y-74952312D01*
X140064966Y-74955181D01*
X140078700Y-74957948D01*
X140091306Y-74960633D01*
X140102838Y-74963253D01*
X140113351Y-74965829D01*
X140122900Y-74968379D01*
X140131538Y-74970922D01*
X140139322Y-74973477D01*
X140146305Y-74976064D01*
X140152542Y-74978700D01*
X140158087Y-74981406D01*
X140162996Y-74984200D01*
X140167322Y-74987101D01*
X140171120Y-74990128D01*
X140174445Y-74993301D01*
X140177351Y-74996637D01*
X140179893Y-75000157D01*
X140182126Y-75003879D01*
X140184103Y-75007822D01*
X140185880Y-75012005D01*
X140187512Y-75016448D01*
X140189052Y-75021168D01*
X140192077Y-75031520D01*
X140222632Y-75149068D01*
X140248190Y-75266649D01*
X140268832Y-75384056D01*
X140284642Y-75501080D01*
X140295703Y-75617513D01*
X140302096Y-75733147D01*
X140303904Y-75847774D01*
X140302115Y-75923117D01*
X140301211Y-75961186D01*
X140294099Y-76073174D01*
G36*
X146052832Y-73091205D02*
G01*
X145946371Y-73620598D01*
X145854864Y-74068728D01*
X145762059Y-74518520D01*
X145625928Y-75159255D01*
X145440040Y-75987264D01*
X145239692Y-76848193D01*
X145060185Y-77587686D01*
X144966440Y-77953685D01*
X144862864Y-78346394D01*
X144768701Y-78693786D01*
X144703197Y-78923833D01*
X144623227Y-79188415D01*
X144567536Y-79368982D01*
X144510016Y-79547704D01*
X144451682Y-79721738D01*
X144393548Y-79888239D01*
X144336628Y-80044363D01*
X144281935Y-80187267D01*
X144230486Y-80314105D01*
X144183293Y-80422035D01*
X144183295Y-80422035D01*
X144178456Y-80430380D01*
X144171700Y-80438668D01*
X144163162Y-80446870D01*
X144152980Y-80454957D01*
X144141287Y-80462900D01*
X144128221Y-80470669D01*
X144098510Y-80485568D01*
X144064933Y-80499419D01*
X144028576Y-80511988D01*
X143990526Y-80523040D01*
X143951869Y-80532339D01*
X143913691Y-80539651D01*
X143877080Y-80544741D01*
X143843120Y-80547375D01*
X143812899Y-80547317D01*
X143799530Y-80546205D01*
X143787502Y-80544332D01*
X143776953Y-80541669D01*
X143768017Y-80538186D01*
X143760830Y-80533853D01*
X143755529Y-80528643D01*
X143752249Y-80522525D01*
X143751125Y-80515469D01*
X143756225Y-80493032D01*
X143771034Y-80440894D01*
X143826818Y-80257078D01*
X144022366Y-79638206D01*
X144276922Y-78834116D01*
X144375074Y-78514158D01*
X144458154Y-78233944D01*
X144529423Y-77982237D01*
X144592143Y-77747801D01*
X144649573Y-77519401D01*
X144704973Y-77285801D01*
X144725957Y-77194764D01*
X144734076Y-77158441D01*
X144740525Y-77127856D01*
X144745239Y-77102717D01*
X144746925Y-77092097D01*
X144748152Y-77082728D01*
X144748913Y-77074573D01*
X144749199Y-77067596D01*
X144749001Y-77061760D01*
X144748313Y-77057028D01*
X144747125Y-77053363D01*
X144746341Y-77051919D01*
X144745429Y-77050729D01*
X144744388Y-77049787D01*
X144743217Y-77049088D01*
X144741915Y-77048629D01*
X144740481Y-77048405D01*
X144738914Y-77048411D01*
X144737213Y-77048642D01*
X144733404Y-77049763D01*
X144729046Y-77051731D01*
X144724132Y-77054509D01*
X144718652Y-77058061D01*
X144712599Y-77062349D01*
X144698740Y-77072989D01*
X144663779Y-77101495D01*
X144609391Y-77144870D01*
X144537790Y-77200123D01*
X144358857Y-77334477D01*
X144158791Y-77480981D01*
X143969406Y-77616061D01*
X143667288Y-77822238D01*
X143362972Y-78019169D01*
X143057433Y-78206435D01*
X142751649Y-78383618D01*
X142446597Y-78550297D01*
X142143251Y-78706053D01*
X141842591Y-78850467D01*
X141545591Y-78983119D01*
X141253228Y-79103590D01*
X140966480Y-79211460D01*
X140686322Y-79306311D01*
X140413731Y-79387722D01*
X140149685Y-79455274D01*
X139895158Y-79508548D01*
X139651129Y-79547124D01*
X139418573Y-79570583D01*
X139328779Y-79575586D01*
X139243533Y-79577588D01*
X139162078Y-79576351D01*
X139083657Y-79571637D01*
X139007510Y-79563207D01*
X138932880Y-79550824D01*
X138859010Y-79534248D01*
X138785141Y-79513242D01*
X138710515Y-79487568D01*
X138634375Y-79456986D01*
X138555963Y-79421260D01*
X138474521Y-79380150D01*
X138389290Y-79333419D01*
X138299513Y-79280828D01*
X138204433Y-79222139D01*
X138103291Y-79157114D01*
X137981763Y-79077835D01*
X137923228Y-79039984D01*
X137921658Y-79039496D01*
X137920962Y-79039658D01*
X137920326Y-79040090D01*
X137919233Y-79041762D01*
X137918377Y-79044508D01*
X137917760Y-79048323D01*
X137917380Y-79053202D01*
X137917332Y-79066140D01*
X137918234Y-79083286D01*
X137920085Y-79104607D01*
X137922883Y-79130068D01*
X137926628Y-79159636D01*
X137934420Y-79226038D01*
X137940954Y-79298335D01*
X137950307Y-79456896D01*
X137954794Y-79627881D01*
X137954528Y-79803854D01*
X137949618Y-79977375D01*
X137940173Y-80141008D01*
X137926305Y-80287315D01*
X137917746Y-80351648D01*
X137908123Y-80408859D01*
X137897734Y-80447078D01*
X137887391Y-80462528D01*
X137870458Y-80475758D01*
X137844566Y-80486933D01*
X137807346Y-80496217D01*
X137756429Y-80503775D01*
X137689445Y-80509771D01*
X137497804Y-80517740D01*
X137213471Y-80521440D01*
X136290923Y-80521307D01*
X135764187Y-80519656D01*
X135550665Y-80517918D01*
X135367051Y-80515024D01*
X135285680Y-80513014D01*
X135210851Y-80510561D01*
X135142252Y-80507612D01*
X135079571Y-80504117D01*
X135022498Y-80500024D01*
X134970719Y-80495281D01*
X134923925Y-80489837D01*
X134881802Y-80483641D01*
X134844040Y-80476640D01*
X134810326Y-80468784D01*
X134780350Y-80460021D01*
X134753798Y-80450299D01*
X134730361Y-80439567D01*
X134719712Y-80433806D01*
X134709726Y-80427774D01*
X134700361Y-80421463D01*
X134691581Y-80414868D01*
X134683345Y-80407981D01*
X134675615Y-80400797D01*
X134661516Y-80385511D01*
X134648972Y-80368957D01*
X134637673Y-80351084D01*
X134627306Y-80331840D01*
X134617559Y-80311175D01*
X134608121Y-80289037D01*
X134588926Y-80240134D01*
X134264176Y-79341529D01*
X133974861Y-78428265D01*
X133722001Y-77505168D01*
X133506617Y-76577066D01*
X133344842Y-75728094D01*
X133516887Y-75728094D01*
X133521872Y-75889297D01*
X133531018Y-76035219D01*
X133544471Y-76163402D01*
X133562379Y-76271384D01*
X133636166Y-76616002D01*
X133713483Y-76957501D01*
X133793795Y-77293803D01*
X133876564Y-77622829D01*
X133961255Y-77942502D01*
X134047330Y-78250743D01*
X134134254Y-78545473D01*
X134221488Y-78824614D01*
X134221489Y-78824612D01*
X134240116Y-78881550D01*
X134248573Y-78906773D01*
X134256172Y-78929006D01*
X134262699Y-78947629D01*
X134267941Y-78962023D01*
X134271683Y-78971568D01*
X134272924Y-78974329D01*
X134273711Y-78975645D01*
X134275080Y-78976738D01*
X134276231Y-78976627D01*
X134277805Y-78970723D01*
X134278291Y-78953799D01*
X134277550Y-78921717D01*
X134271816Y-78795539D01*
X134259471Y-78559103D01*
X134224193Y-77839068D01*
X134196153Y-77146229D01*
X134175107Y-76473795D01*
X134160811Y-75814978D01*
X134156956Y-75594153D01*
X134155106Y-75504203D01*
X134153140Y-75426281D01*
X134150930Y-75359178D01*
X134148351Y-75301683D01*
X134145274Y-75252586D01*
X134141574Y-75210678D01*
X134139451Y-75192041D01*
X134137124Y-75174748D01*
X134134578Y-75158647D01*
X134131797Y-75143587D01*
X134128766Y-75129417D01*
X134125467Y-75115986D01*
X134121886Y-75103141D01*
X134118006Y-75090732D01*
X134113813Y-75078609D01*
X134109289Y-75066618D01*
X134099188Y-75042434D01*
X134087576Y-75016968D01*
X134074328Y-74989011D01*
X134018005Y-74861405D01*
X133992662Y-74795955D01*
X133969032Y-74728622D01*
X133946992Y-74658816D01*
X133926419Y-74585950D01*
X133889178Y-74428680D01*
X133856318Y-74252101D01*
X133826852Y-74051502D01*
X133799790Y-73822174D01*
X133774143Y-73559405D01*
X133768590Y-73498512D01*
X133764058Y-73454250D01*
X133762007Y-73438127D01*
X133760009Y-73425888D01*
X133757996Y-73417441D01*
X133756964Y-73414610D01*
X133755903Y-73412694D01*
X133754804Y-73411680D01*
X133753660Y-73411556D01*
X133752462Y-73412312D01*
X133751201Y-73413936D01*
X133749870Y-73416416D01*
X133748459Y-73419742D01*
X133745365Y-73428882D01*
X133741853Y-73441266D01*
X133737854Y-73456801D01*
X133728131Y-73496961D01*
X133694646Y-73649703D01*
X133663560Y-73816677D01*
X133635017Y-73995423D01*
X133609167Y-74183482D01*
X133566128Y-74577701D01*
X133535618Y-74979660D01*
X133518813Y-75369682D01*
X133516887Y-75728094D01*
X133344842Y-75728094D01*
X133329730Y-75648788D01*
X133192358Y-74725162D01*
X133095523Y-73811015D01*
X133062625Y-73359006D01*
X133040244Y-72911176D01*
X133036500Y-72824775D01*
X133032744Y-72763060D01*
X133030818Y-72741459D01*
X133028837Y-72726030D01*
X133026784Y-72716773D01*
X133025724Y-72714459D01*
X133024640Y-72713687D01*
X133023529Y-72714459D01*
X133022389Y-72716773D01*
X133020014Y-72726030D01*
X133017496Y-72741459D01*
X133014819Y-72763060D01*
X133008916Y-72824775D01*
X133002166Y-72911176D01*
X133000485Y-72931381D01*
X132998489Y-72950491D01*
X132996194Y-72968497D01*
X132993620Y-72985390D01*
X132990784Y-73001163D01*
X132987703Y-73015806D01*
X132984396Y-73029310D01*
X132980880Y-73041666D01*
X132977172Y-73052867D01*
X132973292Y-73062903D01*
X132969255Y-73071765D01*
X132965081Y-73079444D01*
X132960787Y-73085933D01*
X132956391Y-73091222D01*
X132951910Y-73095302D01*
X132947362Y-73098165D01*
X132942766Y-73099802D01*
X132938138Y-73100204D01*
X132933497Y-73099363D01*
X132928861Y-73097269D01*
X132924246Y-73093914D01*
X132919671Y-73089289D01*
X132915154Y-73083386D01*
X132910713Y-73076195D01*
X132906365Y-73067709D01*
X132902127Y-73057918D01*
X132898019Y-73046813D01*
X132894057Y-73034386D01*
X132890259Y-73020628D01*
X132886643Y-73005530D01*
X132883227Y-72989083D01*
X132880029Y-72971280D01*
X132876735Y-72953773D01*
X132873636Y-72941897D01*
X132870731Y-72935640D01*
X132869351Y-72934617D01*
X132868021Y-72934994D01*
X132865508Y-72939946D01*
X132863191Y-72950487D01*
X132859151Y-72988293D01*
X132855908Y-73048328D01*
X132853468Y-73130508D01*
X132851837Y-73234749D01*
X132851020Y-73360968D01*
X132850732Y-73427665D01*
X132850263Y-73487649D01*
X132849589Y-73541171D01*
X132848685Y-73588487D01*
X132847524Y-73629850D01*
X132846082Y-73665513D01*
X132845247Y-73681286D01*
X132844333Y-73695730D01*
X132843335Y-73708875D01*
X132842251Y-73720755D01*
X132841078Y-73731399D01*
X132839811Y-73740840D01*
X132838450Y-73749110D01*
X132836989Y-73756241D01*
X132835426Y-73762263D01*
X132833757Y-73767210D01*
X132831980Y-73771112D01*
X132831050Y-73772681D01*
X132830092Y-73774001D01*
X132829104Y-73775076D01*
X132828088Y-73775909D01*
X132827042Y-73776505D01*
X132825967Y-73776868D01*
X132824861Y-73777001D01*
X132823724Y-73776909D01*
X132822556Y-73776595D01*
X132821357Y-73776063D01*
X132820125Y-73775319D01*
X132818862Y-73774364D01*
X132816236Y-73771842D01*
X132813477Y-73768530D01*
X132810580Y-73764458D01*
X132801173Y-73746852D01*
X132790785Y-73720934D01*
X132767429Y-73645891D01*
X132741239Y-73542795D01*
X132712943Y-73415112D01*
X132683266Y-73266308D01*
X132652935Y-73099849D01*
X132622678Y-72919201D01*
X132593220Y-72727831D01*
X132589204Y-72701476D01*
X132585159Y-72676589D01*
X132581192Y-72653737D01*
X132577416Y-72633485D01*
X132573939Y-72616400D01*
X132570872Y-72603048D01*
X132569526Y-72597949D01*
X132568324Y-72593995D01*
X132567279Y-72591258D01*
X132566406Y-72589807D01*
X132557661Y-72585806D01*
X132549691Y-72592339D01*
X132542480Y-72609797D01*
X132536013Y-72638571D01*
X132525249Y-72731639D01*
X132517277Y-72874676D01*
X132511974Y-73070816D01*
X132509218Y-73323194D01*
X132510853Y-74009197D01*
X132521343Y-74660230D01*
X132532999Y-74942446D01*
X132551465Y-75229318D01*
X132578640Y-75545990D01*
X132616427Y-75917604D01*
X132731440Y-76926228D01*
X132837302Y-77774876D01*
X132984468Y-78901799D01*
X133122936Y-79929771D01*
X133202703Y-80481566D01*
X133205136Y-80495757D01*
X133205890Y-80501499D01*
X133206237Y-80506422D01*
X133206233Y-80508596D01*
X133206098Y-80510589D01*
X133205824Y-80512409D01*
X133205400Y-80514064D01*
X133204817Y-80515561D01*
X133204065Y-80516908D01*
X133203135Y-80518114D01*
X133202018Y-80519186D01*
X133200703Y-80520132D01*
X133199182Y-80520960D01*
X133197445Y-80521678D01*
X133195483Y-80522293D01*
X133193285Y-80522814D01*
X133190844Y-80523248D01*
X133185188Y-80523889D01*
X133178442Y-80524277D01*
X133170527Y-80524477D01*
X133150892Y-80524560D01*
X133140863Y-80524528D01*
X133132006Y-80524395D01*
X133124238Y-80524106D01*
X133117472Y-80523608D01*
X133114439Y-80523264D01*
X133111625Y-80522846D01*
X133109019Y-80522350D01*
X133106611Y-80521767D01*
X133104390Y-80521091D01*
X133102345Y-80520315D01*
X133100467Y-80519433D01*
X133098744Y-80518438D01*
X133097166Y-80517322D01*
X133095723Y-80516080D01*
X133094402Y-80514703D01*
X133093195Y-80513187D01*
X133092091Y-80511523D01*
X133091078Y-80509705D01*
X133090146Y-80507726D01*
X133089285Y-80505580D01*
X133088485Y-80503260D01*
X133087733Y-80500758D01*
X133086337Y-80495184D01*
X133085011Y-80488805D01*
X133083671Y-80481566D01*
X132967464Y-79659429D01*
X132789727Y-78335135D01*
X132662738Y-77342417D01*
X132562613Y-76502153D01*
X132487136Y-75783476D01*
X132434091Y-75155518D01*
X132401261Y-74587413D01*
X132386431Y-74048294D01*
X132387385Y-73507293D01*
X132401905Y-72933543D01*
X132409438Y-72675727D01*
X132413028Y-72448494D01*
X132412429Y-72245937D01*
X132407397Y-72062145D01*
X132397685Y-71891208D01*
X132383048Y-71727218D01*
X132363241Y-71564264D01*
X132338017Y-71396437D01*
X132336581Y-71392562D01*
X132334448Y-71394074D01*
X132328202Y-71412537D01*
X132308567Y-71506159D01*
X132246950Y-71879693D01*
X132167393Y-72424499D01*
X132084123Y-73048033D01*
X132066161Y-73188015D01*
X132058608Y-73244836D01*
X132051793Y-73293666D01*
X132048612Y-73315269D01*
X132045556Y-73335094D01*
X132042604Y-73353217D01*
X132039736Y-73369711D01*
X132036932Y-73384650D01*
X132034173Y-73398107D01*
X132031438Y-73410157D01*
X132028707Y-73420873D01*
X132025960Y-73430328D01*
X132023178Y-73438598D01*
X132020339Y-73445755D01*
X132018892Y-73448939D01*
X132017424Y-73451873D01*
X132015932Y-73454566D01*
X132014413Y-73457027D01*
X132012866Y-73459265D01*
X132011287Y-73461289D01*
X132009673Y-73463110D01*
X132008024Y-73464735D01*
X132006335Y-73466174D01*
X132004605Y-73467436D01*
X132002830Y-73468532D01*
X132001009Y-73469469D01*
X131999139Y-73470257D01*
X131997218Y-73470905D01*
X131995242Y-73471423D01*
X131993210Y-73471819D01*
X131988966Y-73472285D01*
X131984465Y-73472377D01*
X131979689Y-73472168D01*
X131969225Y-73471143D01*
X131962805Y-73470272D01*
X131957007Y-73469050D01*
X131951701Y-73467213D01*
X131946756Y-73464501D01*
X131942042Y-73460652D01*
X131937427Y-73455403D01*
X131932782Y-73448494D01*
X131927976Y-73439661D01*
X131922877Y-73428644D01*
X131917356Y-73415181D01*
X131904522Y-73379867D01*
X131888431Y-73331627D01*
X131868035Y-73268364D01*
X131712386Y-72748245D01*
X131566394Y-72192839D01*
X131432169Y-71613299D01*
X131311824Y-71020780D01*
X131207470Y-70426436D01*
X131178192Y-70227854D01*
X133572682Y-70227854D01*
X133573529Y-70241733D01*
X133581023Y-70294975D01*
X133596470Y-70384370D01*
X133652264Y-70682060D01*
X133681305Y-70837346D01*
X133704919Y-70971876D01*
X133723881Y-71092034D01*
X133738968Y-71204205D01*
X133750956Y-71314773D01*
X133760621Y-71430123D01*
X133768739Y-71556639D01*
X133776086Y-71700706D01*
X133824832Y-72658458D01*
X133850046Y-73060161D01*
X133877300Y-73416628D01*
X133907704Y-73732515D01*
X133942368Y-74012481D01*
X133982403Y-74261185D01*
X134004781Y-74375269D01*
X134028917Y-74483285D01*
X134054952Y-74585814D01*
X134083023Y-74683438D01*
X134113268Y-74776740D01*
X134145828Y-74866303D01*
X134180840Y-74952708D01*
X134218444Y-75036539D01*
X134258778Y-75118376D01*
X134301980Y-75198802D01*
X134348190Y-75278401D01*
X134397547Y-75357753D01*
X134506254Y-75518048D01*
X134629211Y-75684346D01*
X134767529Y-75861306D01*
X134799279Y-75901446D01*
X134831207Y-75942263D01*
X134859598Y-75978982D01*
X134880738Y-76006827D01*
X135021999Y-76184666D01*
X135205576Y-76398106D01*
X135421887Y-76637132D01*
X135661349Y-76891728D01*
X135914380Y-77151878D01*
X136171398Y-77407567D01*
X136422818Y-77648779D01*
X136659059Y-77865498D01*
X136784906Y-77977946D01*
X136936132Y-78112367D01*
X137089206Y-78243950D01*
X137243187Y-78372052D01*
X137397133Y-78496027D01*
X137550102Y-78615229D01*
X137701152Y-78729013D01*
X137849342Y-78836732D01*
X137993729Y-78937743D01*
X138017669Y-78953799D01*
X138133372Y-79031398D01*
X138267329Y-79117053D01*
X138394657Y-79194062D01*
X138514416Y-79261779D01*
X138625663Y-79319559D01*
X138727456Y-79366757D01*
X138818853Y-79402726D01*
X138898913Y-79426822D01*
X138898913Y-79426823D01*
X138921493Y-79431665D01*
X138947970Y-79436259D01*
X139010550Y-79444588D01*
X139082516Y-79451569D01*
X139159733Y-79456966D01*
X139238067Y-79460539D01*
X139313382Y-79462050D01*
X139381543Y-79461260D01*
X139438415Y-79457931D01*
X139701736Y-79424940D01*
X139976703Y-79374565D01*
X140262211Y-79307320D01*
X140557152Y-79223721D01*
X140860422Y-79124284D01*
X141170914Y-79009523D01*
X141487523Y-78879954D01*
X141809142Y-78736092D01*
X142134667Y-78578452D01*
X142462990Y-78407549D01*
X142793006Y-78223900D01*
X143123609Y-78028018D01*
X143453693Y-77820419D01*
X143782152Y-77601619D01*
X144107881Y-77372133D01*
X144429774Y-77132475D01*
X144687742Y-76935275D01*
X144726930Y-76905405D01*
X144742766Y-76892745D01*
X144756459Y-76880838D01*
X144768284Y-76869110D01*
X144778514Y-76856987D01*
X144787421Y-76843895D01*
X144795279Y-76829261D01*
X144802360Y-76812511D01*
X144808938Y-76793071D01*
X144815286Y-76770368D01*
X144821676Y-76743829D01*
X144835679Y-76676944D01*
X144853129Y-76587827D01*
X144959211Y-75985582D01*
X145045561Y-75365190D01*
X145112102Y-74727993D01*
X145158761Y-74075333D01*
X145185463Y-73408552D01*
X145192134Y-72728993D01*
X145178698Y-72037996D01*
X145145081Y-71336906D01*
X145141001Y-71271960D01*
X145138895Y-71245521D01*
X145136343Y-71222369D01*
X145133045Y-71201953D01*
X145131023Y-71192598D01*
X145128701Y-71183721D01*
X145126043Y-71175252D01*
X145123010Y-71167122D01*
X145119566Y-71159262D01*
X145115672Y-71151604D01*
X145111291Y-71144078D01*
X145106386Y-71136616D01*
X145100918Y-71129148D01*
X145094851Y-71121606D01*
X145088146Y-71113920D01*
X145080767Y-71106022D01*
X145063834Y-71089314D01*
X145043750Y-71070930D01*
X145020215Y-71050317D01*
X144961592Y-71000203D01*
X144694571Y-70764204D01*
X144433926Y-70517703D01*
X144179859Y-70260985D01*
X143932568Y-69994339D01*
X143692254Y-69718051D01*
X143459116Y-69432409D01*
X143233355Y-69137698D01*
X143015170Y-68834207D01*
X142804760Y-68522223D01*
X142602327Y-68202031D01*
X142408070Y-67873920D01*
X142222188Y-67538177D01*
X142044881Y-67195087D01*
X141876350Y-66844939D01*
X141716794Y-66488019D01*
X141566413Y-66124614D01*
X141521351Y-66011218D01*
X141488230Y-65928230D01*
X141475570Y-65896910D01*
X141465203Y-65871718D01*
X141456898Y-65852162D01*
X141450426Y-65837751D01*
X141447804Y-65832321D01*
X141445555Y-65827993D01*
X141443647Y-65824706D01*
X141442054Y-65822397D01*
X141440745Y-65821007D01*
X141440189Y-65820636D01*
X141439693Y-65820472D01*
X141439254Y-65820507D01*
X141438868Y-65820733D01*
X141438241Y-65821726D01*
X141437784Y-65823392D01*
X141437468Y-65825668D01*
X141437143Y-65831807D01*
X141436915Y-65848707D01*
X141439559Y-65995199D01*
X141452882Y-66164599D01*
X141476297Y-66354648D01*
X141509217Y-66563088D01*
X141601222Y-67026105D01*
X141724199Y-67535579D01*
X141873453Y-68073440D01*
X142044286Y-68621618D01*
X142232001Y-69162043D01*
X142431902Y-69676645D01*
X142518739Y-69886148D01*
X142555080Y-69972527D01*
X142587344Y-70047828D01*
X142616010Y-70112931D01*
X142641560Y-70168714D01*
X142653316Y-70193385D01*
X142657996Y-70202895D01*
X142664473Y-70216056D01*
X142675091Y-70236836D01*
X142685229Y-70255836D01*
X142694949Y-70273165D01*
X142704310Y-70288932D01*
X142713373Y-70303249D01*
X142722196Y-70316224D01*
X142730840Y-70327967D01*
X142739366Y-70338589D01*
X142747833Y-70348200D01*
X142756302Y-70356908D01*
X142764832Y-70364824D01*
X142773483Y-70372057D01*
X142782316Y-70378719D01*
X142791390Y-70384917D01*
X142800766Y-70390763D01*
X142810504Y-70396366D01*
X142831304Y-70407282D01*
X142895255Y-70440113D01*
X142965256Y-70477343D01*
X143038845Y-70517577D01*
X143113564Y-70559422D01*
X143186952Y-70601486D01*
X143256550Y-70642373D01*
X143319897Y-70680691D01*
X143374535Y-70715046D01*
X143408274Y-70736448D01*
X143423193Y-70745574D01*
X143436995Y-70753730D01*
X143449816Y-70760974D01*
X143461795Y-70767366D01*
X143473068Y-70772965D01*
X143483773Y-70777831D01*
X143494046Y-70782021D01*
X143504025Y-70785597D01*
X143513847Y-70788616D01*
X143523650Y-70791139D01*
X143533570Y-70793223D01*
X143543744Y-70794930D01*
X143554310Y-70796317D01*
X143565406Y-70797444D01*
X143584861Y-70798616D01*
X143607663Y-70799035D01*
X143633219Y-70798762D01*
X143660934Y-70797855D01*
X143720462Y-70794381D01*
X143781492Y-70789091D01*
X143839267Y-70782461D01*
X143889033Y-70774968D01*
X143909427Y-70771048D01*
X143926034Y-70767091D01*
X143938261Y-70763157D01*
X143942546Y-70761217D01*
X143945514Y-70759305D01*
X143948163Y-70757213D01*
X143950704Y-70755436D01*
X143951939Y-70754668D01*
X143953154Y-70753979D01*
X143954352Y-70753371D01*
X143955535Y-70752844D01*
X143956704Y-70752399D01*
X143957864Y-70752035D01*
X143959016Y-70751754D01*
X143960162Y-70751555D01*
X143961305Y-70751438D01*
X143962448Y-70751405D01*
X143963593Y-70751456D01*
X143964742Y-70751590D01*
X143965899Y-70751809D01*
X143967064Y-70752113D01*
X143968241Y-70752501D01*
X143969432Y-70752976D01*
X143970640Y-70753536D01*
X143971867Y-70754182D01*
X143973115Y-70754915D01*
X143974387Y-70755734D01*
X143975686Y-70756641D01*
X143977013Y-70757636D01*
X143979765Y-70759891D01*
X143982660Y-70762500D01*
X143985720Y-70765469D01*
X143990796Y-70771284D01*
X143992777Y-70774197D01*
X143994383Y-70777119D01*
X143995610Y-70780052D01*
X143996455Y-70782999D01*
X143996916Y-70785963D01*
X143996989Y-70788947D01*
X143996671Y-70791954D01*
X143995959Y-70794987D01*
X143994850Y-70798050D01*
X143993341Y-70801144D01*
X143991429Y-70804274D01*
X143989110Y-70807441D01*
X143983243Y-70813903D01*
X143975714Y-70820553D01*
X143966498Y-70827416D01*
X143955572Y-70834515D01*
X143942911Y-70841874D01*
X143928490Y-70849519D01*
X143912284Y-70857472D01*
X143894269Y-70865757D01*
X143874421Y-70874400D01*
X143863393Y-70879509D01*
X143853923Y-70884775D01*
X143845974Y-70890179D01*
X143839509Y-70895698D01*
X143834494Y-70901313D01*
X143830892Y-70907003D01*
X143828667Y-70912747D01*
X143827782Y-70918523D01*
X143828202Y-70924312D01*
X143829891Y-70930092D01*
X143832812Y-70935843D01*
X143836930Y-70941543D01*
X143842207Y-70947173D01*
X143848609Y-70952710D01*
X143864641Y-70963427D01*
X143884736Y-70973527D01*
X143908606Y-70982844D01*
X143935962Y-70991212D01*
X143966515Y-70998463D01*
X143999977Y-71004433D01*
X144036058Y-71008953D01*
X144074470Y-71011858D01*
X144114925Y-71012982D01*
X144142098Y-71013847D01*
X144154088Y-71014815D01*
X144165022Y-71016122D01*
X144174904Y-71017756D01*
X144183739Y-71019702D01*
X144191534Y-71021949D01*
X144198294Y-71024482D01*
X144204023Y-71027290D01*
X144208727Y-71030358D01*
X144212412Y-71033674D01*
X144215083Y-71037225D01*
X144216746Y-71040998D01*
X144217405Y-71044979D01*
X144217066Y-71049156D01*
X144215735Y-71053515D01*
X144213416Y-71058044D01*
X144210116Y-71062729D01*
X144205839Y-71067557D01*
X144200591Y-71072516D01*
X144194378Y-71077591D01*
X144187204Y-71082771D01*
X144179075Y-71088042D01*
X144169996Y-71093390D01*
X144149012Y-71104269D01*
X144124293Y-71115302D01*
X144095883Y-71126386D01*
X144063825Y-71137416D01*
X144055909Y-71140549D01*
X144050111Y-71144104D01*
X144046360Y-71148054D01*
X144044589Y-71152371D01*
X144044728Y-71157030D01*
X144046708Y-71162002D01*
X144050460Y-71167262D01*
X144055916Y-71172783D01*
X144071661Y-71184500D01*
X144093390Y-71196939D01*
X144120553Y-71209884D01*
X144152596Y-71223123D01*
X144188968Y-71236440D01*
X144229117Y-71249622D01*
X144272491Y-71262454D01*
X144318538Y-71274722D01*
X144366706Y-71286211D01*
X144416442Y-71296708D01*
X144467196Y-71305998D01*
X144518414Y-71313867D01*
X144539082Y-71317197D01*
X144556645Y-71321012D01*
X144564267Y-71323089D01*
X144571119Y-71325271D01*
X144577202Y-71327554D01*
X144582518Y-71329931D01*
X144587070Y-71332399D01*
X144590860Y-71334951D01*
X144593889Y-71337583D01*
X144596160Y-71340288D01*
X144597674Y-71343062D01*
X144598434Y-71345900D01*
X144598441Y-71348796D01*
X144597697Y-71351744D01*
X144596205Y-71354741D01*
X144593966Y-71357780D01*
X144590983Y-71360855D01*
X144587257Y-71363963D01*
X144582791Y-71367097D01*
X144577585Y-71370253D01*
X144571643Y-71373424D01*
X144564966Y-71376606D01*
X144549417Y-71382982D01*
X144530952Y-71389337D01*
X144509588Y-71395630D01*
X144485341Y-71401817D01*
X144443897Y-71411885D01*
X144409290Y-71420653D01*
X144395681Y-71424254D01*
X144385138Y-71427178D01*
X144378114Y-71429305D01*
X144376062Y-71430033D01*
X144375060Y-71430518D01*
X144374957Y-71430841D01*
X144375101Y-71431444D01*
X144376111Y-71433466D01*
X144380851Y-71440564D01*
X144388906Y-71451347D01*
X144399904Y-71465347D01*
X144413473Y-71482099D01*
X144429241Y-71501136D01*
X144446834Y-71521992D01*
X144465881Y-71544201D01*
X144549861Y-71642077D01*
X144623526Y-71729574D01*
X144686953Y-71806933D01*
X144740222Y-71874392D01*
X144783413Y-71932191D01*
X144801253Y-71957543D01*
X144816603Y-71980569D01*
X144829473Y-72001300D01*
X144839872Y-72019766D01*
X144847811Y-72035996D01*
X144853299Y-72050020D01*
X144856346Y-72061869D01*
X144856962Y-72071572D01*
X144855158Y-72079159D01*
X144853350Y-72082169D01*
X144850942Y-72084661D01*
X144847933Y-72086639D01*
X144844325Y-72088106D01*
X144835316Y-72089525D01*
X144823926Y-72088949D01*
X144810164Y-72086406D01*
X144794040Y-72081926D01*
X144775564Y-72075541D01*
X144754746Y-72067279D01*
X144731596Y-72057170D01*
X144678339Y-72031533D01*
X144615871Y-71998869D01*
X144489019Y-71930956D01*
X144437433Y-71903889D01*
X144393107Y-71881275D01*
X144355566Y-71863008D01*
X144339191Y-71855472D01*
X144324334Y-71848984D01*
X144310936Y-71843531D01*
X144298937Y-71839098D01*
X144288277Y-71835674D01*
X144278898Y-71833245D01*
X144270740Y-71831798D01*
X144263743Y-71831319D01*
X144260662Y-71831439D01*
X144257848Y-71831796D01*
X144255296Y-71832389D01*
X144252996Y-71833216D01*
X144250943Y-71834275D01*
X144249128Y-71835565D01*
X144247544Y-71837084D01*
X144246183Y-71838830D01*
X144245039Y-71840802D01*
X144244103Y-71842999D01*
X144242827Y-71848057D01*
X144242298Y-71853993D01*
X144242454Y-71860792D01*
X144243238Y-71868441D01*
X144244589Y-71876928D01*
X144246448Y-71886240D01*
X144248755Y-71896362D01*
X144254478Y-71918989D01*
X144265730Y-71963662D01*
X144274450Y-72002529D01*
X144280519Y-72035605D01*
X144282524Y-72049977D01*
X144283821Y-72062908D01*
X144284398Y-72074400D01*
X144284238Y-72084455D01*
X144283328Y-72093076D01*
X144281653Y-72100263D01*
X144279197Y-72106020D01*
X144275947Y-72110349D01*
X144271887Y-72113252D01*
X144267004Y-72114730D01*
X144261281Y-72114786D01*
X144254705Y-72113423D01*
X144247260Y-72110641D01*
X144238933Y-72106444D01*
X144229708Y-72100834D01*
X144219571Y-72093812D01*
X144208507Y-72085381D01*
X144196500Y-72075543D01*
X144169604Y-72051654D01*
X144138765Y-72022162D01*
X144103865Y-71987083D01*
X144064787Y-71946436D01*
X143830148Y-71710467D01*
X143596480Y-71498106D01*
X143363830Y-71309367D01*
X143132245Y-71144260D01*
X143016867Y-71070573D01*
X142901772Y-71002799D01*
X142786968Y-70940940D01*
X142672460Y-70884996D01*
X142558253Y-70834970D01*
X142444354Y-70790863D01*
X142330769Y-70752676D01*
X142217503Y-70720412D01*
X142104562Y-70694071D01*
X141991953Y-70673655D01*
X141879681Y-70659166D01*
X141767752Y-70650605D01*
X141656172Y-70647974D01*
X141544948Y-70651274D01*
X141434083Y-70660507D01*
X141323586Y-70675674D01*
X141213462Y-70696777D01*
X141103715Y-70723818D01*
X140994354Y-70756797D01*
X140885383Y-70795717D01*
X140776808Y-70840579D01*
X140668635Y-70891384D01*
X140560871Y-70948134D01*
X140453520Y-71010831D01*
X140411454Y-71034809D01*
X140378836Y-71049500D01*
X140366015Y-71053451D01*
X140355487Y-71055188D01*
X140347233Y-71054745D01*
X140341228Y-71052157D01*
X140337451Y-71047461D01*
X140335880Y-71040692D01*
X140336491Y-71031886D01*
X140339262Y-71021077D01*
X140351198Y-70993595D01*
X140371507Y-70958530D01*
X140400010Y-70916168D01*
X140436528Y-70866791D01*
X140480883Y-70810683D01*
X140532895Y-70748130D01*
X140592385Y-70679414D01*
X140659174Y-70604821D01*
X140813932Y-70439135D01*
X140846670Y-70404818D01*
X140859686Y-70390970D01*
X140870545Y-70379143D01*
X140879306Y-70369200D01*
X140882918Y-70364891D01*
X140886027Y-70361001D01*
X140888640Y-70357512D01*
X140890766Y-70354408D01*
X140892411Y-70351670D01*
X140893583Y-70349281D01*
X140894289Y-70347225D01*
X140894536Y-70345483D01*
X140894490Y-70344725D01*
X140894332Y-70344039D01*
X140894063Y-70343422D01*
X140893684Y-70342874D01*
X140892598Y-70341972D01*
X140891084Y-70341316D01*
X140889148Y-70340888D01*
X140886796Y-70340670D01*
X140884038Y-70340646D01*
X140880879Y-70340797D01*
X140873391Y-70341559D01*
X140864390Y-70342817D01*
X140853935Y-70344432D01*
X140836796Y-70347518D01*
X140817461Y-70351720D01*
X140773387Y-70363065D01*
X140724083Y-70377660D01*
X140671922Y-70394696D01*
X140619274Y-70413366D01*
X140568511Y-70432861D01*
X140522004Y-70452375D01*
X140482125Y-70471098D01*
X140458495Y-70482427D01*
X140447660Y-70487162D01*
X140437485Y-70491290D01*
X140427973Y-70494817D01*
X140419130Y-70497752D01*
X140410960Y-70500104D01*
X140403468Y-70501880D01*
X140396657Y-70503089D01*
X140390534Y-70503739D01*
X140385101Y-70503838D01*
X140380365Y-70503395D01*
X140376329Y-70502417D01*
X140372998Y-70500913D01*
X140370376Y-70498890D01*
X140368469Y-70496358D01*
X140367280Y-70493324D01*
X140366814Y-70489797D01*
X140367076Y-70485784D01*
X140368071Y-70481295D01*
X140369802Y-70476336D01*
X140372275Y-70470917D01*
X140375493Y-70465045D01*
X140379463Y-70458728D01*
X140384187Y-70451976D01*
X140389671Y-70444796D01*
X140395919Y-70437196D01*
X140402937Y-70429185D01*
X140410727Y-70420770D01*
X140419295Y-70411960D01*
X140438784Y-70393188D01*
X140462792Y-70371825D01*
X140487981Y-70351160D01*
X140514408Y-70331166D01*
X140542129Y-70311814D01*
X140571201Y-70293078D01*
X140601679Y-70274929D01*
X140633620Y-70257339D01*
X140667081Y-70240282D01*
X140702117Y-70223730D01*
X140738785Y-70207654D01*
X140777142Y-70192028D01*
X140817243Y-70176823D01*
X140859145Y-70162013D01*
X140902904Y-70147569D01*
X140996220Y-70119669D01*
X141023347Y-70111809D01*
X141033953Y-70108241D01*
X141038508Y-70106468D01*
X141042561Y-70104672D01*
X141046110Y-70102831D01*
X141049152Y-70100921D01*
X141051684Y-70098921D01*
X141053705Y-70096806D01*
X141055212Y-70094556D01*
X141056203Y-70092146D01*
X141056675Y-70089555D01*
X141056625Y-70086759D01*
X141056051Y-70083735D01*
X141054951Y-70080462D01*
X141053323Y-70076917D01*
X141051164Y-70073076D01*
X141048471Y-70068917D01*
X141045242Y-70064417D01*
X141037166Y-70054305D01*
X141026918Y-70042558D01*
X141014477Y-70028994D01*
X140982940Y-69995689D01*
X140895637Y-69898980D01*
X140805772Y-69789565D01*
X140713735Y-69668144D01*
X140619913Y-69535416D01*
X140524693Y-69392081D01*
X140428464Y-69238836D01*
X140234528Y-68905418D01*
X140041209Y-68540756D01*
X139851609Y-68150443D01*
X139668831Y-67740073D01*
X139495979Y-67315239D01*
X139428490Y-67141356D01*
X139417689Y-67114038D01*
X139408901Y-67092334D01*
X139401920Y-67075821D01*
X139396538Y-67064074D01*
X139394382Y-67059856D01*
X139392548Y-67056671D01*
X139391010Y-67054467D01*
X139389743Y-67053189D01*
X139389202Y-67052881D01*
X139388720Y-67052785D01*
X139388292Y-67052894D01*
X139387915Y-67053202D01*
X139387303Y-67054388D01*
X139386857Y-67056288D01*
X139386362Y-67062024D01*
X139386222Y-67069986D01*
X139386180Y-67090893D01*
X139389221Y-67184832D01*
X139400153Y-67298046D01*
X139443758Y-67574884D01*
X139513125Y-67906570D01*
X139604382Y-68278269D01*
X139713658Y-68675144D01*
X139837084Y-69082359D01*
X139970787Y-69485079D01*
X140110896Y-69868468D01*
X140127639Y-69912246D01*
X140142323Y-69951395D01*
X140154985Y-69986165D01*
X140160569Y-70001985D01*
X140165661Y-70016804D01*
X140170265Y-70030653D01*
X140174387Y-70043561D01*
X140178029Y-70055562D01*
X140181198Y-70066686D01*
X140183897Y-70076964D01*
X140186132Y-70086426D01*
X140187905Y-70095106D01*
X140189222Y-70103032D01*
X140190088Y-70110237D01*
X140190507Y-70116752D01*
X140190483Y-70122607D01*
X140190306Y-70125297D01*
X140190021Y-70127835D01*
X140189627Y-70130222D01*
X140189125Y-70132465D01*
X140188516Y-70134566D01*
X140187800Y-70136529D01*
X140186978Y-70138359D01*
X140186050Y-70140059D01*
X140185017Y-70141633D01*
X140183880Y-70143085D01*
X140182639Y-70144419D01*
X140181295Y-70145638D01*
X140179847Y-70146747D01*
X140178298Y-70147750D01*
X140176646Y-70148650D01*
X140174894Y-70149452D01*
X140173041Y-70150158D01*
X140171088Y-70150774D01*
X140166885Y-70151749D01*
X140162288Y-70152406D01*
X140157303Y-70152778D01*
X140151933Y-70152895D01*
X140145644Y-70151076D01*
X140137657Y-70145723D01*
X140116953Y-70125046D01*
X140090545Y-70092119D01*
X140059157Y-70048198D01*
X139984333Y-69932404D01*
X139898273Y-69787715D01*
X139806767Y-69624180D01*
X139715606Y-69451852D01*
X139630579Y-69280782D01*
X139557477Y-69121020D01*
X139538790Y-69078320D01*
X139519634Y-69035403D01*
X139502259Y-68997260D01*
X139488915Y-68968885D01*
X139429895Y-68839576D01*
X139368776Y-68691368D01*
X139242136Y-68345145D01*
X139112800Y-67944010D01*
X138984574Y-67501756D01*
X138861262Y-67032175D01*
X138746669Y-66549060D01*
X138644601Y-66066205D01*
X138558861Y-65597403D01*
X138554787Y-65574697D01*
X138552920Y-65566511D01*
X138551078Y-65560682D01*
X138549195Y-65557392D01*
X138548216Y-65556756D01*
X138547203Y-65556824D01*
X138546146Y-65557619D01*
X138545036Y-65559163D01*
X138542629Y-65564591D01*
X138539913Y-65573292D01*
X138536824Y-65585450D01*
X138529257Y-65620866D01*
X138519395Y-65672309D01*
X138506708Y-65741243D01*
X138462626Y-66016790D01*
X138427650Y-66309573D01*
X138401689Y-66618084D01*
X138384653Y-66940814D01*
X138376452Y-67276255D01*
X138376995Y-67622897D01*
X138403955Y-68343750D01*
X138464811Y-69091302D01*
X138558840Y-69853485D01*
X138685321Y-70618225D01*
X138760505Y-70997783D01*
X138843532Y-71373454D01*
X138859250Y-71445100D01*
X138870758Y-71507093D01*
X138878010Y-71559431D01*
X138880026Y-71581978D01*
X138880962Y-71602112D01*
X138880813Y-71619830D01*
X138879572Y-71635134D01*
X138877234Y-71648022D01*
X138873793Y-71658495D01*
X138869245Y-71666552D01*
X138863583Y-71672193D01*
X138856802Y-71675418D01*
X138848897Y-71676226D01*
X138839861Y-71674618D01*
X138829690Y-71670592D01*
X138818378Y-71664149D01*
X138805919Y-71655288D01*
X138792308Y-71644009D01*
X138777540Y-71630313D01*
X138744508Y-71595664D01*
X138706778Y-71551339D01*
X138664308Y-71497337D01*
X138617053Y-71433655D01*
X138564968Y-71360291D01*
X138536682Y-71319994D01*
X138517785Y-71296707D01*
X138512362Y-71293564D01*
X138510744Y-71294489D01*
X138509891Y-71297218D01*
X138510574Y-71308519D01*
X138514613Y-71328314D01*
X138533565Y-71396781D01*
X138568361Y-71509405D01*
X138691940Y-71894272D01*
X138713130Y-71960110D01*
X138731723Y-72018256D01*
X138747822Y-72069206D01*
X138754968Y-72092137D01*
X138761530Y-72113455D01*
X138767521Y-72133222D01*
X138772953Y-72151501D01*
X138777839Y-72168352D01*
X138782193Y-72183839D01*
X138786028Y-72198023D01*
X138789356Y-72210966D01*
X138792190Y-72222730D01*
X138794544Y-72233377D01*
X138796431Y-72242970D01*
X138797862Y-72251570D01*
X138798412Y-72255518D01*
X138798853Y-72259240D01*
X138799186Y-72262745D01*
X138799414Y-72266041D01*
X138799539Y-72269135D01*
X138799560Y-72272035D01*
X138799482Y-72274749D01*
X138799304Y-72277285D01*
X138799029Y-72279649D01*
X138798658Y-72281852D01*
X138798193Y-72283899D01*
X138797635Y-72285798D01*
X138796987Y-72287558D01*
X138796249Y-72289186D01*
X138795424Y-72290690D01*
X138794512Y-72292078D01*
X138793517Y-72293357D01*
X138792438Y-72294535D01*
X138791278Y-72295620D01*
X138790039Y-72296620D01*
X138788722Y-72297542D01*
X138787328Y-72298395D01*
X138785860Y-72299185D01*
X138784319Y-72299921D01*
X138781024Y-72301261D01*
X138777457Y-72302476D01*
X138768045Y-72303739D01*
X138756827Y-72301897D01*
X138743537Y-72296695D01*
X138727907Y-72287876D01*
X138709669Y-72275183D01*
X138688557Y-72258360D01*
X138664302Y-72237150D01*
X138636637Y-72211298D01*
X138570010Y-72144637D01*
X138486536Y-72056325D01*
X138384076Y-71944310D01*
X138260490Y-71806541D01*
X138053430Y-71566883D01*
X137853358Y-71320514D01*
X137660410Y-71067687D01*
X137474723Y-70808657D01*
X137296431Y-70543680D01*
X137125671Y-70273009D01*
X136962578Y-69996901D01*
X136807289Y-69715608D01*
X136659939Y-69429387D01*
X136520664Y-69138491D01*
X136389600Y-68843176D01*
X136266883Y-68543696D01*
X136152648Y-68240306D01*
X136047032Y-67933261D01*
X135950170Y-67622815D01*
X135862198Y-67309223D01*
X135824088Y-67165888D01*
X135817631Y-67147136D01*
X135811988Y-67136208D01*
X135809407Y-67133835D01*
X135806951Y-67133603D01*
X135804595Y-67135577D01*
X135802313Y-67139817D01*
X135797865Y-67155346D01*
X135793400Y-67180687D01*
X135783591Y-67262792D01*
X135754642Y-67566593D01*
X135734210Y-67812109D01*
X135717796Y-68074308D01*
X135705493Y-68348753D01*
X135697396Y-68631010D01*
X135693595Y-68916640D01*
X135694185Y-69201207D01*
X135699259Y-69480274D01*
X135708908Y-69749406D01*
X135714852Y-69879089D01*
X135717434Y-69931099D01*
X135719943Y-69975356D01*
X135721213Y-69994764D01*
X135722517Y-70012460D01*
X135723872Y-70028517D01*
X135725296Y-70043011D01*
X135726806Y-70056018D01*
X135728420Y-70067612D01*
X135730155Y-70077868D01*
X135732028Y-70086861D01*
X135734058Y-70094667D01*
X135736261Y-70101361D01*
X135737433Y-70104314D01*
X135738655Y-70107017D01*
X135739928Y-70109480D01*
X135741257Y-70111711D01*
X135742641Y-70113721D01*
X135744085Y-70115518D01*
X135745589Y-70117113D01*
X135747156Y-70118513D01*
X135748788Y-70119730D01*
X135750487Y-70120771D01*
X135752256Y-70121647D01*
X135754097Y-70122367D01*
X135756012Y-70122940D01*
X135758003Y-70123376D01*
X135762221Y-70123874D01*
X135766770Y-70123935D01*
X135771667Y-70123634D01*
X135776929Y-70123047D01*
X135782574Y-70122249D01*
X135795082Y-70120319D01*
X135820673Y-70117481D01*
X135848813Y-70116181D01*
X135911695Y-70117854D01*
X135981634Y-70124664D01*
X136056542Y-70135935D01*
X136110338Y-70146350D01*
X136134325Y-70150994D01*
X136212894Y-70169168D01*
X136290156Y-70189782D01*
X136364022Y-70212161D01*
X136432399Y-70235633D01*
X136493198Y-70259522D01*
X136544326Y-70283155D01*
X136583693Y-70305858D01*
X136598312Y-70316650D01*
X136609207Y-70326957D01*
X136616116Y-70336694D01*
X136618778Y-70345777D01*
X136616931Y-70354123D01*
X136610314Y-70361646D01*
X136598666Y-70368262D01*
X136581725Y-70373887D01*
X136568429Y-70377488D01*
X136563232Y-70379200D01*
X136559016Y-70381002D01*
X136557279Y-70381972D01*
X136555792Y-70383006D01*
X136554554Y-70384119D01*
X136553568Y-70385326D01*
X136552835Y-70386639D01*
X136552357Y-70388072D01*
X136552133Y-70389641D01*
X136552166Y-70391359D01*
X136552457Y-70393240D01*
X136553008Y-70395297D01*
X136553818Y-70397546D01*
X136554891Y-70400000D01*
X136557825Y-70405579D01*
X136561822Y-70412146D01*
X136566891Y-70419815D01*
X136573042Y-70428697D01*
X136588632Y-70450551D01*
X136604724Y-70474019D01*
X136621131Y-70499906D01*
X136637667Y-70527790D01*
X136654145Y-70557252D01*
X136670377Y-70587870D01*
X136686178Y-70619223D01*
X136701360Y-70650890D01*
X136715737Y-70682450D01*
X136729122Y-70713481D01*
X136741328Y-70743564D01*
X136752169Y-70772276D01*
X136761457Y-70799198D01*
X136769006Y-70823907D01*
X136774630Y-70845983D01*
X136778141Y-70865005D01*
X136779353Y-70880552D01*
X136779016Y-70887455D01*
X136777897Y-70893236D01*
X136775837Y-70897854D01*
X136774404Y-70899715D01*
X136772676Y-70901270D01*
X136770632Y-70902516D01*
X136768252Y-70903446D01*
X136765517Y-70904056D01*
X136762406Y-70904342D01*
X136754977Y-70903918D01*
X136745805Y-70902136D01*
X136734730Y-70898955D01*
X136721592Y-70894338D01*
X136706229Y-70888243D01*
X136688483Y-70880633D01*
X136645196Y-70860708D01*
X136590450Y-70834249D01*
X136527162Y-70805202D01*
X136463017Y-70779609D01*
X136398076Y-70757449D01*
X136332399Y-70738703D01*
X136266047Y-70723353D01*
X136199079Y-70711378D01*
X136131558Y-70702760D01*
X136063542Y-70697479D01*
X135995093Y-70695516D01*
X135926271Y-70696851D01*
X135857137Y-70701464D01*
X135787751Y-70709338D01*
X135718173Y-70720452D01*
X135648465Y-70734787D01*
X135578686Y-70752323D01*
X135508898Y-70773042D01*
X135439160Y-70796924D01*
X135369533Y-70823949D01*
X135230855Y-70887354D01*
X135093348Y-70963101D01*
X134957496Y-71051035D01*
X134823783Y-71151003D01*
X134692693Y-71262848D01*
X134564710Y-71386417D01*
X134440318Y-71521555D01*
X134434456Y-71528180D01*
X134428761Y-71534376D01*
X134423232Y-71540144D01*
X134417870Y-71545482D01*
X134412673Y-71550391D01*
X134407643Y-71554871D01*
X134402778Y-71558922D01*
X134398080Y-71562544D01*
X134393547Y-71565738D01*
X134389180Y-71568502D01*
X134384979Y-71570837D01*
X134380944Y-71572743D01*
X134377074Y-71574221D01*
X134373370Y-71575269D01*
X134369832Y-71575888D01*
X134366458Y-71576078D01*
X134363251Y-71575840D01*
X134360208Y-71575172D01*
X134357331Y-71574075D01*
X134354620Y-71572550D01*
X134352073Y-71570595D01*
X134349691Y-71568211D01*
X134347475Y-71565399D01*
X134345423Y-71562157D01*
X134343537Y-71558487D01*
X134341815Y-71554387D01*
X134340258Y-71549858D01*
X134338866Y-71544901D01*
X134337638Y-71539514D01*
X134336576Y-71533698D01*
X134335677Y-71527454D01*
X134334944Y-71520780D01*
X134333561Y-71507080D01*
X134332110Y-71494621D01*
X134330570Y-71483354D01*
X134329760Y-71478151D01*
X134328920Y-71473228D01*
X134328047Y-71468579D01*
X134327139Y-71464196D01*
X134326192Y-71460074D01*
X134325205Y-71456207D01*
X134324174Y-71452589D01*
X134323097Y-71449213D01*
X134321971Y-71446074D01*
X134320794Y-71443164D01*
X134319563Y-71440479D01*
X134318275Y-71438012D01*
X134316928Y-71435756D01*
X134315519Y-71433706D01*
X134314045Y-71431855D01*
X134312503Y-71430197D01*
X134310892Y-71428727D01*
X134309208Y-71427437D01*
X134307449Y-71426322D01*
X134305612Y-71425376D01*
X134303695Y-71424592D01*
X134301694Y-71423965D01*
X134299607Y-71423488D01*
X134297432Y-71423154D01*
X134295166Y-71422959D01*
X134292806Y-71422895D01*
X134283167Y-71423654D01*
X134270828Y-71425860D01*
X134256061Y-71429409D01*
X134239136Y-71434195D01*
X134199892Y-71447059D01*
X134155260Y-71463611D01*
X134107404Y-71483010D01*
X134058486Y-71504415D01*
X134010670Y-71526985D01*
X133966120Y-71549880D01*
X133925871Y-71570193D01*
X133907757Y-71578242D01*
X133890983Y-71584915D01*
X133875549Y-71590238D01*
X133861456Y-71594233D01*
X133848702Y-71596924D01*
X133837289Y-71598335D01*
X133827216Y-71598487D01*
X133818484Y-71597405D01*
X133811092Y-71595113D01*
X133805040Y-71591633D01*
X133800329Y-71586989D01*
X133796959Y-71581205D01*
X133794929Y-71574303D01*
X133794240Y-71566308D01*
X133794891Y-71557241D01*
X133796884Y-71547128D01*
X133800217Y-71535991D01*
X133804891Y-71523853D01*
X133810906Y-71510739D01*
X133818262Y-71496670D01*
X133836998Y-71465766D01*
X133861098Y-71431328D01*
X133890563Y-71393542D01*
X133925393Y-71352597D01*
X133965589Y-71308678D01*
X133999577Y-71272617D01*
X134013134Y-71257996D01*
X134024504Y-71245419D01*
X134033763Y-71234714D01*
X134037625Y-71230010D01*
X134040989Y-71225709D01*
X134043865Y-71221790D01*
X134046261Y-71218232D01*
X134048187Y-71215014D01*
X134049654Y-71212112D01*
X134050671Y-71209507D01*
X134051247Y-71207177D01*
X134051374Y-71206108D01*
X134051393Y-71205100D01*
X134051308Y-71204149D01*
X134051118Y-71203254D01*
X134050826Y-71202412D01*
X134050431Y-71201619D01*
X134049937Y-71200873D01*
X134049343Y-71200172D01*
X134047863Y-71198893D01*
X134046001Y-71197759D01*
X134043766Y-71196750D01*
X134041169Y-71195844D01*
X134038218Y-71195019D01*
X134034924Y-71194254D01*
X134027344Y-71192817D01*
X134018506Y-71191362D01*
X133999528Y-71188281D01*
X133982831Y-71185495D01*
X133968279Y-71182939D01*
X133955732Y-71180550D01*
X133950166Y-71179397D01*
X133945051Y-71178262D01*
X133940367Y-71177136D01*
X133936097Y-71176011D01*
X133932225Y-71174879D01*
X133928733Y-71173732D01*
X133925603Y-71172562D01*
X133922818Y-71171361D01*
X133920362Y-71170120D01*
X133918216Y-71168832D01*
X133916363Y-71167489D01*
X133914786Y-71166082D01*
X133913468Y-71164604D01*
X133912391Y-71163046D01*
X133911537Y-71161400D01*
X133910891Y-71159659D01*
X133910433Y-71157813D01*
X133910148Y-71155856D01*
X133910017Y-71153778D01*
X133910023Y-71151573D01*
X133910149Y-71149231D01*
X133910377Y-71146745D01*
X133911073Y-71141308D01*
X133911845Y-71136815D01*
X133912863Y-71132757D01*
X133914195Y-71129103D01*
X133915909Y-71125820D01*
X133918071Y-71122878D01*
X133920750Y-71120244D01*
X133924013Y-71117886D01*
X133927928Y-71115774D01*
X133932561Y-71113874D01*
X133937981Y-71112157D01*
X133944255Y-71110589D01*
X133951450Y-71109139D01*
X133959635Y-71107776D01*
X133968876Y-71106468D01*
X133990799Y-71103889D01*
X134003457Y-71102257D01*
X134016374Y-71100073D01*
X134029493Y-71097373D01*
X134042755Y-71094192D01*
X134056102Y-71090565D01*
X134069477Y-71086528D01*
X134096078Y-71077366D01*
X134122094Y-71066986D01*
X134147062Y-71055673D01*
X134170519Y-71043710D01*
X134192001Y-71031378D01*
X134211045Y-71018962D01*
X134219508Y-71012811D01*
X134227188Y-71006744D01*
X134234027Y-71000798D01*
X134239967Y-70995007D01*
X134244950Y-70989407D01*
X134248918Y-70984034D01*
X134251813Y-70978922D01*
X134253577Y-70974107D01*
X134254153Y-70969625D01*
X134253482Y-70965511D01*
X134251507Y-70961799D01*
X134248170Y-70958526D01*
X134243412Y-70955727D01*
X134237177Y-70953438D01*
X134205729Y-70943846D01*
X134177988Y-70934365D01*
X134153973Y-70925039D01*
X134143368Y-70920448D01*
X134133702Y-70915914D01*
X134124976Y-70911441D01*
X134117194Y-70907036D01*
X134110358Y-70902703D01*
X134104469Y-70898449D01*
X134099531Y-70894280D01*
X134095545Y-70890200D01*
X134092515Y-70886216D01*
X134090441Y-70882334D01*
X134089328Y-70878558D01*
X134089177Y-70874895D01*
X134089990Y-70871351D01*
X134091770Y-70867931D01*
X134094519Y-70864640D01*
X134098239Y-70861485D01*
X134102934Y-70858471D01*
X134108605Y-70855604D01*
X134115255Y-70852889D01*
X134122885Y-70850332D01*
X134131499Y-70847939D01*
X134141099Y-70845716D01*
X134151687Y-70843668D01*
X134163265Y-70841800D01*
X134175836Y-70840119D01*
X134189402Y-70838631D01*
X134204665Y-70836980D01*
X134219484Y-70835098D01*
X134233839Y-70832997D01*
X134247708Y-70830690D01*
X134261072Y-70828190D01*
X134273908Y-70825510D01*
X134286197Y-70822664D01*
X134297918Y-70819663D01*
X134309050Y-70816522D01*
X134319572Y-70813252D01*
X134329464Y-70809868D01*
X134338705Y-70806381D01*
X134347274Y-70802805D01*
X134355150Y-70799153D01*
X134362313Y-70795438D01*
X134368742Y-70791673D01*
X134374416Y-70787870D01*
X134379314Y-70784043D01*
X134383416Y-70780205D01*
X134386701Y-70776368D01*
X134389149Y-70772546D01*
X134390052Y-70770645D01*
X134390738Y-70768752D01*
X134391204Y-70766869D01*
X134391447Y-70764998D01*
X134391466Y-70763140D01*
X134391257Y-70761297D01*
X134390818Y-70759471D01*
X134390146Y-70757663D01*
X134389239Y-70755875D01*
X134388094Y-70754109D01*
X134386708Y-70752366D01*
X134385079Y-70750647D01*
X134381082Y-70747290D01*
X134376080Y-70744052D01*
X134370055Y-70740944D01*
X134362984Y-70737981D01*
X134354848Y-70735176D01*
X134324460Y-70725091D01*
X134297804Y-70715124D01*
X134285881Y-70710208D01*
X134274898Y-70705349D01*
X134264858Y-70700556D01*
X134255763Y-70695839D01*
X134247615Y-70691206D01*
X134240417Y-70686668D01*
X134234170Y-70682232D01*
X134228879Y-70677909D01*
X134224544Y-70673707D01*
X134221168Y-70669635D01*
X134218754Y-70665704D01*
X134217304Y-70661921D01*
X134216821Y-70658296D01*
X134217306Y-70654839D01*
X134218763Y-70651558D01*
X134221193Y-70648463D01*
X134224599Y-70645563D01*
X134228984Y-70642866D01*
X134234350Y-70640383D01*
X134240699Y-70638123D01*
X134248033Y-70636094D01*
X134256355Y-70634305D01*
X134265668Y-70632767D01*
X134275974Y-70631488D01*
X134287275Y-70630477D01*
X134299574Y-70629743D01*
X134312872Y-70629296D01*
X134327173Y-70629145D01*
X134368382Y-70628794D01*
X134384792Y-70627909D01*
X134398523Y-70626152D01*
X134404411Y-70624853D01*
X134409663Y-70623226D01*
X134414289Y-70621231D01*
X134418300Y-70618833D01*
X134421707Y-70615993D01*
X134424522Y-70612674D01*
X134426755Y-70608840D01*
X134428418Y-70604453D01*
X134429520Y-70599475D01*
X134430074Y-70593870D01*
X134430090Y-70587599D01*
X134429653Y-70581619D01*
X134546181Y-70581619D01*
X134546232Y-70586388D01*
X134546410Y-70590724D01*
X134546721Y-70594638D01*
X134547172Y-70598142D01*
X134547772Y-70601245D01*
X134548526Y-70603958D01*
X134549441Y-70606292D01*
X134550526Y-70608258D01*
X134551786Y-70609867D01*
X134553229Y-70611128D01*
X134554861Y-70612053D01*
X134556690Y-70612653D01*
X134558723Y-70612938D01*
X134560967Y-70612919D01*
X134563429Y-70612606D01*
X134566115Y-70612011D01*
X134569033Y-70611144D01*
X134572190Y-70610015D01*
X134575593Y-70608635D01*
X134579248Y-70607016D01*
X134587346Y-70603100D01*
X134596539Y-70598352D01*
X134760621Y-70512889D01*
X134910683Y-70436525D01*
X135046417Y-70369402D01*
X135167516Y-70311664D01*
X135273674Y-70263453D01*
X135364584Y-70224913D01*
X135404225Y-70209314D01*
X135439938Y-70196187D01*
X135471686Y-70185549D01*
X135499430Y-70177418D01*
X135523470Y-70171005D01*
X135532992Y-70168226D01*
X135540918Y-70165495D01*
X135544300Y-70164093D01*
X135547303Y-70162635D01*
X135549933Y-70161101D01*
X135552198Y-70159468D01*
X135554103Y-70157714D01*
X135555656Y-70155817D01*
X135556864Y-70153754D01*
X135557732Y-70151503D01*
X135558267Y-70149043D01*
X135558476Y-70146350D01*
X135558366Y-70143404D01*
X135557943Y-70140180D01*
X135557214Y-70136658D01*
X135556185Y-70132816D01*
X135553255Y-70124079D01*
X135549206Y-70113792D01*
X135544091Y-70101778D01*
X135530873Y-70071859D01*
X135466216Y-69909954D01*
X135405911Y-69727726D01*
X135350115Y-69526705D01*
X135298983Y-69308423D01*
X135252672Y-69074409D01*
X135211337Y-68826194D01*
X135144218Y-68293285D01*
X135098875Y-67721938D01*
X135076554Y-67124399D01*
X135078502Y-66512911D01*
X135105966Y-65899718D01*
X135107964Y-65869268D01*
X135109222Y-65847112D01*
X135109523Y-65839023D01*
X135109578Y-65832862D01*
X135109368Y-65828581D01*
X135109158Y-65827130D01*
X135108873Y-65826131D01*
X135108511Y-65825578D01*
X135108071Y-65825464D01*
X135107549Y-65825784D01*
X135106943Y-65826531D01*
X135105469Y-65829285D01*
X135103628Y-65833676D01*
X135101401Y-65839656D01*
X135098767Y-65847176D01*
X135092198Y-65866645D01*
X135029388Y-66110024D01*
X134962096Y-66471649D01*
X134892226Y-66935586D01*
X134821681Y-67485902D01*
X134752363Y-68106662D01*
X134686175Y-68781933D01*
X134625021Y-69495780D01*
X134570803Y-70232270D01*
X134558834Y-70403319D01*
X134549492Y-70526619D01*
X134549491Y-70526619D01*
X134548143Y-70543327D01*
X134547104Y-70558006D01*
X134546432Y-70570742D01*
X134546181Y-70581619D01*
X134429653Y-70581619D01*
X134429580Y-70580627D01*
X134427023Y-70564427D01*
X134422491Y-70544971D01*
X134416072Y-70521962D01*
X134407854Y-70495101D01*
X134386375Y-70428631D01*
X134317367Y-70206319D01*
X134248028Y-69962291D01*
X134179777Y-69702583D01*
X134114034Y-69433234D01*
X134052219Y-69160282D01*
X133995754Y-68889764D01*
X133946057Y-68627720D01*
X133904550Y-68380187D01*
X133888981Y-68287099D01*
X133876829Y-68240308D01*
X133874259Y-68237103D01*
X133871859Y-68237632D01*
X133867532Y-68250562D01*
X133860526Y-68328610D01*
X133855249Y-68485201D01*
X133851139Y-68731085D01*
X133844166Y-69533728D01*
X133841472Y-69901059D01*
X133839020Y-70183478D01*
X133837791Y-70296373D01*
X133836511Y-70392271D01*
X133835143Y-70472585D01*
X133833649Y-70538724D01*
X133831992Y-70592100D01*
X133830135Y-70634124D01*
X133829120Y-70651319D01*
X133828041Y-70666205D01*
X133826893Y-70678959D01*
X133825673Y-70689756D01*
X133824374Y-70698773D01*
X133822993Y-70706186D01*
X133821524Y-70712172D01*
X133819964Y-70716907D01*
X133818307Y-70720567D01*
X133816549Y-70723329D01*
X133814686Y-70725369D01*
X133812712Y-70726863D01*
X133803371Y-70732104D01*
X133794612Y-70735322D01*
X133786230Y-70736109D01*
X133778019Y-70734052D01*
X133769772Y-70728741D01*
X133761284Y-70719766D01*
X133752349Y-70706715D01*
X133742762Y-70689178D01*
X133732315Y-70666745D01*
X133720804Y-70639004D01*
X133693765Y-70565957D01*
X133659997Y-70466751D01*
X133617854Y-70338102D01*
X133596150Y-70272829D01*
X133581353Y-70233270D01*
X133576627Y-70223949D01*
X133574947Y-70222046D01*
X133573726Y-70222035D01*
X133572682Y-70227854D01*
X131178192Y-70227854D01*
X131121219Y-69841420D01*
X131055183Y-69276886D01*
X131011472Y-68743989D01*
X130990405Y-68400367D01*
X130986361Y-68349059D01*
X130982285Y-68310948D01*
X130977918Y-68285715D01*
X130975543Y-68277827D01*
X130972999Y-68273038D01*
X130970251Y-68271309D01*
X130967268Y-68272599D01*
X130964017Y-68276868D01*
X130960466Y-68284076D01*
X130952331Y-68307149D01*
X130942604Y-68341497D01*
X130882572Y-68585239D01*
X130782837Y-69006651D01*
X130686555Y-69450017D01*
X130595318Y-69906288D01*
X130510718Y-70366415D01*
X130434346Y-70821349D01*
X130367795Y-71262042D01*
X130312657Y-71679445D01*
X130270522Y-72064510D01*
X130261823Y-72142972D01*
X130252291Y-72205821D01*
X130241941Y-72253098D01*
X130230791Y-72284843D01*
X130224920Y-72294904D01*
X130218855Y-72301098D01*
X130212598Y-72303429D01*
X130206150Y-72301902D01*
X130199513Y-72296524D01*
X130192690Y-72287298D01*
X130178493Y-72257326D01*
X130163574Y-72212026D01*
X130147948Y-72151440D01*
X130131632Y-72075609D01*
X130114640Y-71984572D01*
X130078697Y-71757049D01*
X130040244Y-71469197D01*
X129993816Y-71033952D01*
X129962697Y-70596365D01*
X129946765Y-70157259D01*
X129945893Y-69717460D01*
X129959957Y-69277791D01*
X129988833Y-68839079D01*
X130032397Y-68402146D01*
X130090524Y-67967819D01*
X130163088Y-67536922D01*
X130249966Y-67110279D01*
X130351034Y-66688714D01*
X130466166Y-66273054D01*
X130595238Y-65864122D01*
X130738125Y-65462743D01*
X130894703Y-65069741D01*
X131064848Y-64685942D01*
X131067573Y-64682850D01*
X131072738Y-64679792D01*
X131089729Y-64673818D01*
X131114494Y-64668105D01*
X131145707Y-64662736D01*
X131182042Y-64657796D01*
X131222174Y-64653369D01*
X131308523Y-64646389D01*
X131394148Y-64642468D01*
X131433373Y-64641865D01*
X131468440Y-64642279D01*
X131498023Y-64643794D01*
X131520795Y-64646494D01*
X131535430Y-64650464D01*
X131539282Y-64652950D01*
X131540603Y-64655786D01*
X131536895Y-64673630D01*
X131526798Y-64717616D01*
X131493606Y-64857531D01*
X131442003Y-65082655D01*
X131395261Y-65308179D01*
X131353412Y-65533593D01*
X131316490Y-65758388D01*
X131284530Y-65982055D01*
X131257565Y-66204086D01*
X131235628Y-66423972D01*
X131218754Y-66641204D01*
X131206977Y-66855273D01*
X131200330Y-67065671D01*
X131198847Y-67271888D01*
X131202562Y-67473416D01*
X131211508Y-67669746D01*
X131225720Y-67860369D01*
X131245231Y-68044777D01*
X131270075Y-68222460D01*
X131279395Y-68279181D01*
X131289332Y-68335499D01*
X131299770Y-68390964D01*
X131310591Y-68445126D01*
X131321680Y-68497537D01*
X131332918Y-68547747D01*
X131344191Y-68595306D01*
X131355380Y-68639767D01*
X131366370Y-68680679D01*
X131377044Y-68717594D01*
X131387284Y-68750062D01*
X131396974Y-68777634D01*
X131405998Y-68799861D01*
X131414239Y-68816293D01*
X131418030Y-68822196D01*
X131421580Y-68826482D01*
X131424877Y-68829095D01*
X131427905Y-68829978D01*
X131431658Y-68829800D01*
X131435029Y-68828926D01*
X131438100Y-68826849D01*
X131440955Y-68823062D01*
X131443676Y-68817058D01*
X131446347Y-68808329D01*
X131451869Y-68780667D01*
X131458187Y-68736018D01*
X131465964Y-68670323D01*
X131488554Y-68459562D01*
X131555912Y-67884995D01*
X131634434Y-67330968D01*
X131722841Y-66803519D01*
X131819854Y-66308690D01*
X131924194Y-65852520D01*
X131978712Y-65640820D01*
X132034583Y-65441050D01*
X132091646Y-65253965D01*
X132149741Y-65080320D01*
X132208709Y-64920871D01*
X132268389Y-64776371D01*
X132273936Y-64765181D01*
X132280631Y-64754167D01*
X132288382Y-64743364D01*
X132297095Y-64732804D01*
X132306677Y-64722522D01*
X132317037Y-64712550D01*
X132328080Y-64702924D01*
X132339714Y-64693676D01*
X132351847Y-64684840D01*
X132364384Y-64676449D01*
X132377233Y-64668538D01*
X132390302Y-64661140D01*
X132403497Y-64654288D01*
X132416726Y-64648017D01*
X132429895Y-64642360D01*
X132442911Y-64637350D01*
X132455683Y-64633021D01*
X132468116Y-64629407D01*
X132480118Y-64626542D01*
X132491596Y-64624459D01*
X132502457Y-64623191D01*
X132512608Y-64622773D01*
X132521957Y-64623239D01*
X132530410Y-64624620D01*
X132537874Y-64626952D01*
X132544257Y-64630268D01*
X132549465Y-64634602D01*
X132553406Y-64639987D01*
X132555987Y-64646457D01*
X132557115Y-64654046D01*
X132556697Y-64662786D01*
X132554640Y-64672713D01*
X132545064Y-64719987D01*
X132526717Y-64822803D01*
X132467701Y-65172114D01*
X132405844Y-65576038D01*
X132356286Y-65965735D01*
X132319237Y-66337272D01*
X132294905Y-66686716D01*
X132283500Y-67010131D01*
X132282710Y-67160849D01*
X132285230Y-67303585D01*
X132291086Y-67437848D01*
X132300304Y-67563144D01*
X132312911Y-67678984D01*
X132328932Y-67784874D01*
X132335939Y-67823001D01*
X132342831Y-67857129D01*
X132349607Y-67887255D01*
X132356264Y-67913378D01*
X132362803Y-67935495D01*
X132366027Y-67945051D01*
X132369220Y-67953605D01*
X132372383Y-67961156D01*
X132375515Y-67967705D01*
X132378616Y-67973251D01*
X132381686Y-67977794D01*
X132384725Y-67981334D01*
X132387732Y-67983870D01*
X132390707Y-67985402D01*
X132393650Y-67985930D01*
X132396561Y-67985454D01*
X132399440Y-67983973D01*
X132402287Y-67981487D01*
X132405101Y-67977997D01*
X132407881Y-67973501D01*
X132410629Y-67967999D01*
X132413344Y-67961492D01*
X132416025Y-67953978D01*
X132418673Y-67945458D01*
X132421287Y-67935932D01*
X132423867Y-67925399D01*
X132426412Y-67913859D01*
X132543354Y-67377165D01*
X132662334Y-66870204D01*
X132781942Y-66397899D01*
X132900764Y-65965175D01*
X133017390Y-65576955D01*
X133130407Y-65238162D01*
X133185120Y-65088840D01*
X133238402Y-64953721D01*
X133290075Y-64833421D01*
X133339964Y-64728555D01*
X133347142Y-64719652D01*
X133359274Y-64711126D01*
X133376018Y-64702990D01*
X133397030Y-64695254D01*
X133450487Y-64681039D01*
X133516902Y-64668581D01*
X133593533Y-64657979D01*
X133677635Y-64649334D01*
X133766466Y-64642747D01*
X133857281Y-64638317D01*
X133947338Y-64636144D01*
X134033894Y-64636329D01*
X134114205Y-64638972D01*
X134185527Y-64644172D01*
X134245117Y-64652031D01*
X134290233Y-64662648D01*
X134306505Y-64669022D01*
X134318130Y-64676123D01*
X134324765Y-64683964D01*
X134326066Y-64692557D01*
X134295746Y-64907332D01*
X134262019Y-65195229D01*
X134227658Y-65525358D01*
X134195434Y-65866833D01*
X134168119Y-66188766D01*
X134148486Y-66460269D01*
X134139306Y-66650454D01*
X134139502Y-66705401D01*
X134143351Y-66728435D01*
X134149687Y-66734080D01*
X134155720Y-66737938D01*
X134158640Y-66739164D01*
X134161506Y-66739903D01*
X134164324Y-66740143D01*
X134167100Y-66739870D01*
X134169842Y-66739072D01*
X134172557Y-66737736D01*
X134175251Y-66735847D01*
X134177931Y-66733394D01*
X134183277Y-66726742D01*
X134188651Y-66717673D01*
X134194107Y-66706083D01*
X134199700Y-66691867D01*
X134205485Y-66674922D01*
X134211517Y-66655141D01*
X134217850Y-66632421D01*
X134224540Y-66606657D01*
X134239209Y-66545576D01*
X134314210Y-66229714D01*
X134394244Y-65907518D01*
X134475331Y-65593518D01*
X134553489Y-65302243D01*
X134624738Y-65048223D01*
X134685097Y-64845987D01*
X134730585Y-64710064D01*
X134746508Y-64671511D01*
X134757221Y-64654984D01*
X134758811Y-64654089D01*
X134759551Y-64653741D01*
X134760253Y-64653459D01*
X134760918Y-64653244D01*
X134761545Y-64653093D01*
X134762134Y-64653008D01*
X134762685Y-64652988D01*
X134763198Y-64653032D01*
X134763673Y-64653140D01*
X134764109Y-64653312D01*
X134764507Y-64653548D01*
X134764866Y-64653846D01*
X134765187Y-64654208D01*
X134765468Y-64654631D01*
X134765710Y-64655117D01*
X134765913Y-64655665D01*
X134766076Y-64656274D01*
X134766200Y-64656944D01*
X134766284Y-64657674D01*
X134766332Y-64659317D01*
X134766219Y-64661198D01*
X134765945Y-64663315D01*
X134765507Y-64665666D01*
X134764906Y-64668247D01*
X134764139Y-64671056D01*
X134758362Y-64696579D01*
X134753187Y-64730606D01*
X134744708Y-64819484D01*
X134738834Y-64928308D01*
X134735700Y-65047699D01*
X134735437Y-65168275D01*
X134738178Y-65280657D01*
X134744057Y-65375462D01*
X134748214Y-65413343D01*
X134753205Y-65443312D01*
X134755223Y-65452048D01*
X134757414Y-65460030D01*
X134759765Y-65467268D01*
X134762263Y-65473770D01*
X134764896Y-65479543D01*
X134767649Y-65484597D01*
X134770509Y-65488939D01*
X134773464Y-65492578D01*
X134776499Y-65495522D01*
X134779602Y-65497779D01*
X134782760Y-65499357D01*
X134785958Y-65500266D01*
X134789184Y-65500512D01*
X134792425Y-65500104D01*
X134795667Y-65499051D01*
X134798898Y-65497361D01*
X134802102Y-65495042D01*
X134805269Y-65492102D01*
X134808384Y-65488549D01*
X134811433Y-65484393D01*
X134814405Y-65479640D01*
X134817285Y-65474300D01*
X134820060Y-65468381D01*
X134822717Y-65461890D01*
X134825243Y-65454836D01*
X134827624Y-65447228D01*
X134831900Y-65430381D01*
X134835439Y-65411415D01*
X134838134Y-65390395D01*
X134863875Y-65145784D01*
X134876034Y-65046826D01*
X134888756Y-64961986D01*
X134895571Y-64924520D01*
X134902818Y-64890175D01*
X134910594Y-64858817D01*
X134918997Y-64830309D01*
X134928124Y-64804515D01*
X134938071Y-64781300D01*
X134948937Y-64760528D01*
X134960818Y-64742063D01*
X134973811Y-64725769D01*
X134988014Y-64711510D01*
X135003524Y-64699150D01*
X135020438Y-64688555D01*
X135038853Y-64679587D01*
X135058867Y-64672112D01*
X135080576Y-64665993D01*
X135104078Y-64661095D01*
X135129469Y-64657281D01*
X135156848Y-64654416D01*
X135217956Y-64650990D01*
X135288179Y-64649730D01*
X135368293Y-64649549D01*
X135499996Y-64650154D01*
X135553264Y-64651598D01*
X135598916Y-64654413D01*
X135619066Y-64656476D01*
X135637529Y-64659054D01*
X135654377Y-64662202D01*
X135669682Y-64665978D01*
X135683516Y-64670439D01*
X135695952Y-64675643D01*
X135707062Y-64681645D01*
X135716919Y-64688503D01*
X135725594Y-64696275D01*
X135733161Y-64705017D01*
X135739690Y-64714787D01*
X135745255Y-64725641D01*
X135749928Y-64737637D01*
X135753781Y-64750831D01*
X135756887Y-64765281D01*
X135759318Y-64781044D01*
X135761145Y-64798176D01*
X135762442Y-64816736D01*
X135763733Y-64858364D01*
X135763768Y-64906386D01*
X135763127Y-64961256D01*
X135763216Y-65057118D01*
X135765787Y-65160001D01*
X135770599Y-65267982D01*
X135777409Y-65379139D01*
X135796056Y-65603283D01*
X135819789Y-65817048D01*
X135846669Y-66005046D01*
X135860684Y-66084574D01*
X135874759Y-66151890D01*
X135888652Y-66205072D01*
X135902120Y-66242195D01*
X135908619Y-66254134D01*
X135914921Y-66261337D01*
X135920996Y-66263564D01*
X135926813Y-66260574D01*
X135927487Y-66258290D01*
X135927994Y-66253059D01*
X135928522Y-66234376D01*
X135927736Y-66168484D01*
X135924692Y-66072844D01*
X135919625Y-65957405D01*
X135912368Y-65780638D01*
X135908195Y-65609354D01*
X135907083Y-65444658D01*
X135909005Y-65287656D01*
X135913937Y-65139454D01*
X135921855Y-65001157D01*
X135932734Y-64873872D01*
X135946548Y-64758703D01*
X135951913Y-64722678D01*
X135954685Y-64708103D01*
X135957853Y-64695606D01*
X135959663Y-64690087D01*
X135961667Y-64685027D01*
X135963895Y-64680408D01*
X135966379Y-64676208D01*
X135969150Y-64672407D01*
X135972240Y-64668987D01*
X135975680Y-64665926D01*
X135979502Y-64663205D01*
X135983737Y-64660803D01*
X135988417Y-64658701D01*
X135993573Y-64656880D01*
X135999236Y-64655317D01*
X136005437Y-64653995D01*
X136012209Y-64652893D01*
X136027590Y-64651267D01*
X136045629Y-64650281D01*
X136066577Y-64649775D01*
X136118209Y-64649562D01*
X136176302Y-64649026D01*
X136199188Y-64648874D01*
X136218463Y-64649261D01*
X136234498Y-64650530D01*
X136241417Y-64651603D01*
X136247666Y-64653027D01*
X136253292Y-64654845D01*
X136258340Y-64657099D01*
X136262857Y-64659833D01*
X136266891Y-64663090D01*
X136270486Y-64666913D01*
X136273691Y-64671345D01*
X136276550Y-64676429D01*
X136279112Y-64682210D01*
X136281422Y-64688728D01*
X136283527Y-64696029D01*
X136287308Y-64713150D01*
X136290826Y-64733916D01*
X136294455Y-64758673D01*
X136303530Y-64821541D01*
X136396707Y-65382122D01*
X136509106Y-65974846D01*
X136635107Y-66576142D01*
X136769091Y-67162441D01*
X136905440Y-67710169D01*
X137038534Y-68195757D01*
X137162754Y-68595632D01*
X137219781Y-68756062D01*
X137272482Y-68886225D01*
X137283123Y-68906228D01*
X137287544Y-68909646D01*
X137291430Y-68907523D01*
X137294827Y-68898995D01*
X137297781Y-68883199D01*
X137302550Y-68826347D01*
X137306115Y-68730057D01*
X137308851Y-68587417D01*
X137313340Y-68135447D01*
X137315935Y-67865846D01*
X137319238Y-67639128D01*
X137323515Y-67449000D01*
X137329033Y-67289171D01*
X137336060Y-67153350D01*
X137344862Y-67035244D01*
X137355706Y-66928563D01*
X137368860Y-66827015D01*
X137374415Y-66785497D01*
X137378557Y-66747963D01*
X137381321Y-66712800D01*
X137382743Y-66678397D01*
X137382859Y-66643140D01*
X137381704Y-66605418D01*
X137379313Y-66563619D01*
X137375723Y-66516129D01*
X137358001Y-66250299D01*
X137346919Y-65973719D01*
X137342289Y-65696822D01*
X137343921Y-65430041D01*
X137351624Y-65183807D01*
X137365209Y-64968553D01*
X137374148Y-64875803D01*
X137384487Y-64794711D01*
X137396200Y-64726579D01*
X137409266Y-64672713D01*
X137410616Y-64669165D01*
X137412459Y-64665883D01*
X137414757Y-64662864D01*
X137417473Y-64660106D01*
X137420571Y-64657606D01*
X137424015Y-64655362D01*
X137427766Y-64653372D01*
X137431789Y-64651634D01*
X137436046Y-64650145D01*
X137440501Y-64648903D01*
X137445118Y-64647905D01*
X137449858Y-64647149D01*
X137454685Y-64646634D01*
X137459563Y-64646356D01*
X137464455Y-64646313D01*
X137469324Y-64646503D01*
X137474133Y-64646924D01*
X137478845Y-64647573D01*
X137483424Y-64648448D01*
X137487832Y-64649546D01*
X137492034Y-64650866D01*
X137495991Y-64652405D01*
X137499668Y-64654161D01*
X137503027Y-64656131D01*
X137506032Y-64658313D01*
X137508645Y-64660704D01*
X137510831Y-64663303D01*
X137512552Y-64666107D01*
X137513772Y-64669114D01*
X137514453Y-64672321D01*
X137514559Y-64675727D01*
X137514053Y-64679328D01*
X137492470Y-64783260D01*
X137474907Y-64885308D01*
X137461020Y-64989934D01*
X137450463Y-65101600D01*
X137442892Y-65224767D01*
X137437962Y-65363897D01*
X137435330Y-65523453D01*
X137434651Y-65707895D01*
X137436530Y-66025284D01*
X137443788Y-66289004D01*
X137450498Y-66407393D01*
X137459830Y-66520353D01*
X137472208Y-66630544D01*
X137488060Y-66740630D01*
X137507809Y-66853273D01*
X137531883Y-66971136D01*
X137594703Y-67233168D01*
X137679925Y-67548026D01*
X137790953Y-67937010D01*
X137956954Y-68502723D01*
X138032163Y-68751907D01*
X138101932Y-68977980D01*
X138166078Y-69180445D01*
X138224414Y-69358805D01*
X138276758Y-69512564D01*
X138322924Y-69641224D01*
X138362729Y-69744289D01*
X138395988Y-69821260D01*
X138410105Y-69849806D01*
X138422516Y-69871643D01*
X138433199Y-69886707D01*
X138442130Y-69894939D01*
X138445931Y-69896472D01*
X138449286Y-69896274D01*
X138452191Y-69894336D01*
X138454644Y-69890651D01*
X138458182Y-69878008D01*
X138459875Y-69858283D01*
X138459702Y-69831414D01*
X138457638Y-69797338D01*
X138447749Y-69707318D01*
X138422554Y-69507061D01*
X138400639Y-69319458D01*
X138343694Y-68716352D01*
X138306128Y-68127027D01*
X138287828Y-67557163D01*
X138288683Y-67012441D01*
X138296259Y-66751283D01*
X138308582Y-66498540D01*
X138325638Y-66254923D01*
X138347413Y-66021142D01*
X138373894Y-65797906D01*
X138405066Y-65585926D01*
X138440915Y-65385911D01*
X138481428Y-65198572D01*
X138501714Y-65112427D01*
X138517322Y-65052648D01*
X138523999Y-65033626D01*
X138530257Y-65022373D01*
X138533308Y-65019783D01*
X138536348Y-65019282D01*
X138539409Y-65020919D01*
X138542521Y-65024744D01*
X138549029Y-65039152D01*
X138556120Y-65062899D01*
X138564045Y-65096377D01*
X138573055Y-65139979D01*
X138624951Y-65423468D01*
X138681207Y-65722999D01*
X138738735Y-66006320D01*
X138797043Y-66271463D01*
X138855641Y-66516464D01*
X138914036Y-66739355D01*
X138971737Y-66938170D01*
X139028253Y-67110943D01*
X139055912Y-67186949D01*
X139083090Y-67255708D01*
X139101151Y-67298195D01*
X139117868Y-67335259D01*
X139133145Y-67366877D01*
X139146882Y-67393027D01*
X139158984Y-67413686D01*
X139169353Y-67428834D01*
X139173857Y-67434333D01*
X139177890Y-67438447D01*
X139181442Y-67441171D01*
X139184499Y-67442503D01*
X139187050Y-67442441D01*
X139189082Y-67440981D01*
X139190583Y-67438121D01*
X139191541Y-67433859D01*
X139191944Y-67428190D01*
X139191780Y-67421113D01*
X139189699Y-67402723D01*
X139185202Y-67378667D01*
X139178192Y-67348921D01*
X139168571Y-67313464D01*
X139156240Y-67272274D01*
X139105833Y-67102327D01*
X139058454Y-66926030D01*
X139014075Y-66743255D01*
X138972672Y-66553873D01*
X138934217Y-66357759D01*
X138898683Y-66154784D01*
X138866045Y-65944819D01*
X138836276Y-65727739D01*
X138828336Y-65660428D01*
X138820266Y-65582004D01*
X138804798Y-65405214D01*
X138791990Y-65224165D01*
X138787245Y-65140415D01*
X138783959Y-65065649D01*
X138780508Y-64975618D01*
X138776682Y-64886488D01*
X138772947Y-64808549D01*
X138769766Y-64752088D01*
X138769569Y-64740502D01*
X138770468Y-64729410D01*
X138772394Y-64718827D01*
X138775280Y-64708771D01*
X138779056Y-64699256D01*
X138783654Y-64690299D01*
X138789006Y-64681916D01*
X138795043Y-64674124D01*
X138801697Y-64666937D01*
X138808899Y-64660372D01*
X138816581Y-64654445D01*
X138824675Y-64649173D01*
X138833111Y-64644570D01*
X138841821Y-64640654D01*
X138850738Y-64637441D01*
X138859792Y-64634945D01*
X138868915Y-64633184D01*
X138878039Y-64632173D01*
X138887094Y-64631928D01*
X138896013Y-64632466D01*
X138904727Y-64633802D01*
X138913168Y-64635953D01*
X138921267Y-64638934D01*
X138928956Y-64642762D01*
X138936166Y-64647453D01*
X138942829Y-64653022D01*
X138948876Y-64659486D01*
X138954238Y-64666860D01*
X138958848Y-64675161D01*
X138962637Y-64684405D01*
X138965536Y-64694608D01*
X138967478Y-64705786D01*
X138991105Y-64881934D01*
X139018309Y-65055822D01*
X139049216Y-65227846D01*
X139083949Y-65398399D01*
X139122636Y-65567876D01*
X139165399Y-65736672D01*
X139212366Y-65905181D01*
X139263659Y-66073799D01*
X139319406Y-66242919D01*
X139379730Y-66412937D01*
X139444757Y-66584247D01*
X139514612Y-66757243D01*
X139589420Y-66932321D01*
X139669306Y-67109875D01*
X139844812Y-67473989D01*
X139913679Y-67609698D01*
X139965677Y-67708044D01*
X139985633Y-67743348D01*
X140001709Y-67769481D01*
X140014018Y-67786500D01*
X140018795Y-67791609D01*
X140022673Y-67794461D01*
X140025665Y-67795062D01*
X140027787Y-67793421D01*
X140029051Y-67789543D01*
X140029471Y-67783436D01*
X140027840Y-67764564D01*
X140026679Y-67757912D01*
X140747812Y-67757912D01*
X140748478Y-67777487D01*
X140751360Y-67805187D01*
X140762874Y-67884820D01*
X140780553Y-67996541D01*
X140818637Y-68222083D01*
X140861907Y-68449315D01*
X140910307Y-68678009D01*
X140963782Y-68907936D01*
X141022277Y-69138867D01*
X141085735Y-69370573D01*
X141154101Y-69602825D01*
X141227320Y-69835395D01*
X141251140Y-69907436D01*
X141261564Y-69936565D01*
X141271536Y-69961518D01*
X141276478Y-69972526D01*
X141281458Y-69982607D01*
X141286527Y-69991800D01*
X141291734Y-70000145D01*
X141297132Y-70007681D01*
X141302769Y-70014446D01*
X141308696Y-70020481D01*
X141314964Y-70025823D01*
X141321624Y-70030513D01*
X141328724Y-70034589D01*
X141336317Y-70038090D01*
X141344453Y-70041056D01*
X141353181Y-70043526D01*
X141362553Y-70045539D01*
X141372618Y-70047133D01*
X141383427Y-70048349D01*
X141407481Y-70049801D01*
X141435116Y-70050207D01*
X141502746Y-70049134D01*
X141584586Y-70048799D01*
X141666264Y-70051384D01*
X141747262Y-70056826D01*
X141827062Y-70065062D01*
X141905146Y-70076030D01*
X141980999Y-70089666D01*
X142054101Y-70105907D01*
X142089459Y-70114985D01*
X142123936Y-70124690D01*
X142164399Y-70137127D01*
X142211005Y-70152270D01*
X142257990Y-70168205D01*
X142299590Y-70183019D01*
X142308665Y-70186303D01*
X142317367Y-70189342D01*
X142325657Y-70192127D01*
X142333495Y-70194649D01*
X142340842Y-70196897D01*
X142347656Y-70198864D01*
X142353897Y-70200539D01*
X142359527Y-70201915D01*
X142364504Y-70202980D01*
X142368789Y-70203727D01*
X142372342Y-70204145D01*
X142373831Y-70204229D01*
X142375122Y-70204227D01*
X142376210Y-70204138D01*
X142377090Y-70203962D01*
X142377756Y-70203697D01*
X142378205Y-70203341D01*
X142378430Y-70202895D01*
X142378427Y-70202356D01*
X142378191Y-70201723D01*
X142377717Y-70200996D01*
X142334768Y-70147636D01*
X142247712Y-70040447D01*
X142117008Y-69876254D01*
X141985580Y-69703993D01*
X141854142Y-69524696D01*
X141723407Y-69339394D01*
X141594092Y-69149119D01*
X141466909Y-68954904D01*
X141342574Y-68757781D01*
X141221802Y-68558781D01*
X141132698Y-68407501D01*
X141049522Y-68263289D01*
X140975169Y-68131224D01*
X140912535Y-68016385D01*
X140849264Y-67897809D01*
X140802956Y-67812944D01*
X140785600Y-67783069D01*
X140771811Y-67761520D01*
X140761362Y-67748264D01*
X140757320Y-67744735D01*
X140754029Y-67743266D01*
X140751461Y-67743854D01*
X140749588Y-67746493D01*
X140748381Y-67751181D01*
X140747812Y-67757912D01*
X140026679Y-67757912D01*
X140023004Y-67736860D01*
X140015078Y-67700382D01*
X140004173Y-67655186D01*
X139973877Y-67538865D01*
X139918228Y-67324412D01*
X139864753Y-67105472D01*
X139814081Y-66885065D01*
X139766843Y-66666208D01*
X139723668Y-66451919D01*
X139685186Y-66245217D01*
X139652028Y-66049119D01*
X139624824Y-65866645D01*
X139609138Y-65749775D01*
X139596409Y-65647376D01*
X139586219Y-65554262D01*
X139578151Y-65465247D01*
X139571786Y-65375144D01*
X139566707Y-65278765D01*
X139562495Y-65170925D01*
X139558733Y-65046437D01*
X139556594Y-64975542D01*
X139554186Y-64908489D01*
X139551589Y-64846813D01*
X139548887Y-64792044D01*
X139546162Y-64745717D01*
X139543496Y-64709365D01*
X139540971Y-64684519D01*
X139539787Y-64676890D01*
X139538670Y-64672713D01*
X139537151Y-64668915D01*
X139536378Y-64665555D01*
X139536558Y-64662605D01*
X139537901Y-64660039D01*
X139540614Y-64657831D01*
X139544904Y-64655954D01*
X139550982Y-64654382D01*
X139559053Y-64653087D01*
X139569327Y-64652045D01*
X139582012Y-64651227D01*
X139615446Y-64650161D01*
X139661021Y-64649676D01*
X139720400Y-64649562D01*
X139783877Y-64649659D01*
X139809620Y-64649889D01*
X139831772Y-64650337D01*
X139841597Y-64650666D01*
X139850639Y-64651076D01*
X139858935Y-64651577D01*
X139866524Y-64652178D01*
X139873445Y-64652888D01*
X139879734Y-64653716D01*
X139885431Y-64654672D01*
X139890573Y-64655763D01*
X139895198Y-64657000D01*
X139899345Y-64658391D01*
X139903052Y-64659946D01*
X139906356Y-64661674D01*
X139909296Y-64663583D01*
X139911910Y-64665683D01*
X139914236Y-64667982D01*
X139916312Y-64670491D01*
X139918177Y-64673218D01*
X139919868Y-64676171D01*
X139921423Y-64679361D01*
X139922881Y-64682796D01*
X139924279Y-64686486D01*
X139925657Y-64690439D01*
X139928500Y-64699171D01*
X140050966Y-65052869D01*
X140203757Y-65448506D01*
X140379331Y-65869567D01*
X140570144Y-66299539D01*
X140768654Y-66721908D01*
X140967317Y-67120160D01*
X141158592Y-67477782D01*
X141334933Y-67778260D01*
X141415843Y-67907057D01*
X141448574Y-67958019D01*
X141476516Y-68000161D01*
X141499939Y-68033588D01*
X141519112Y-68058402D01*
X141527189Y-68067611D01*
X141534305Y-68074707D01*
X141540494Y-68079701D01*
X141545789Y-68082607D01*
X141550224Y-68083438D01*
X141553834Y-68082207D01*
X141556650Y-68078926D01*
X141558708Y-68073608D01*
X141560041Y-68066267D01*
X141560683Y-68056916D01*
X141560028Y-68032233D01*
X141557014Y-67999664D01*
X141551909Y-67959312D01*
X141536510Y-67855674D01*
X141470475Y-67414036D01*
X141409271Y-66977527D01*
X141353723Y-66553260D01*
X141304656Y-66148349D01*
X141262896Y-65769907D01*
X141229266Y-65425049D01*
X141204591Y-65120887D01*
X141189697Y-64864536D01*
X141189791Y-64844862D01*
X141191684Y-64825639D01*
X141195272Y-64806913D01*
X141200451Y-64788731D01*
X141207117Y-64771142D01*
X141215166Y-64754192D01*
X141224494Y-64737928D01*
X141234996Y-64722398D01*
X141246569Y-64707649D01*
X141259109Y-64693728D01*
X141272510Y-64680682D01*
X141286670Y-64668559D01*
X141301485Y-64657406D01*
X141316849Y-64647269D01*
X141332659Y-64638197D01*
X141348812Y-64630236D01*
X141365201Y-64623434D01*
X141381725Y-64617838D01*
X141398278Y-64613495D01*
X141414757Y-64610452D01*
X141431057Y-64608757D01*
X141447074Y-64608457D01*
X141462705Y-64609598D01*
X141477844Y-64612229D01*
X141492389Y-64616397D01*
X141506234Y-64622148D01*
X141519276Y-64629530D01*
X141531411Y-64638590D01*
X141542534Y-64649376D01*
X141552542Y-64661934D01*
X141561330Y-64676312D01*
X141568794Y-64692557D01*
X141577162Y-64713426D01*
X141587434Y-64738466D01*
X141598309Y-64764529D01*
X141608484Y-64788468D01*
X141763512Y-65147927D01*
X141802562Y-65237340D01*
X141826661Y-65291177D01*
X141856688Y-65357322D01*
X141886412Y-65423468D01*
X141990330Y-65651739D01*
X142110873Y-65912947D01*
X142209121Y-66116600D01*
X142354072Y-66410567D01*
X142498885Y-66700463D01*
X142596719Y-66891906D01*
X142719160Y-67123416D01*
X142798057Y-67270761D01*
X142878885Y-67416872D01*
X143044977Y-67703382D01*
X143214719Y-67978930D01*
X143385394Y-68239495D01*
X143470232Y-68362904D01*
X143554285Y-68481060D01*
X143637211Y-68593461D01*
X143718672Y-68699606D01*
X143798329Y-68798991D01*
X143875840Y-68891114D01*
X143950868Y-68975474D01*
X144023071Y-69051567D01*
X144051540Y-69079681D01*
X144065051Y-69092419D01*
X144078060Y-69104275D01*
X144090555Y-69115247D01*
X144102521Y-69125333D01*
X144113944Y-69134533D01*
X144124810Y-69142843D01*
X144135107Y-69150264D01*
X144144819Y-69156792D01*
X144153933Y-69162426D01*
X144162435Y-69167164D01*
X144170312Y-69171005D01*
X144177548Y-69173947D01*
X144184132Y-69175989D01*
X144190048Y-69177127D01*
X144195283Y-69177362D01*
X144199823Y-69176691D01*
X144203654Y-69175112D01*
X144206762Y-69172624D01*
X144209134Y-69169225D01*
X144210756Y-69164914D01*
X144211613Y-69159688D01*
X144211692Y-69153546D01*
X144210980Y-69146486D01*
X144209461Y-69138506D01*
X144207123Y-69129606D01*
X144203951Y-69119782D01*
X144199932Y-69109034D01*
X144195052Y-69097359D01*
X144189297Y-69084757D01*
X144182653Y-69071225D01*
X144145677Y-68993639D01*
X144077470Y-68845744D01*
X143863185Y-68373572D01*
X143776618Y-68171177D01*
X143657874Y-67881752D01*
X143538652Y-67583577D01*
X143450653Y-67354926D01*
X143402252Y-67219927D01*
X143354078Y-67078705D01*
X143260531Y-66785837D01*
X143174248Y-66492804D01*
X143099466Y-66216090D01*
X143040422Y-65972176D01*
X143018125Y-65867670D01*
X143001352Y-65777545D01*
X142990631Y-65703862D01*
X142986493Y-65648680D01*
X142987058Y-65628671D01*
X142989467Y-65614060D01*
X142993787Y-65605104D01*
X143000083Y-65602062D01*
X143001396Y-65603177D01*
X143003860Y-65606450D01*
X143011987Y-65619025D01*
X143039262Y-65665211D01*
X143077851Y-65733566D01*
X143123698Y-65817036D01*
X143283956Y-66109071D01*
X143473461Y-66449442D01*
X143666337Y-66791937D01*
X143836706Y-67090343D01*
X144061498Y-67480604D01*
X144266704Y-67827342D01*
X144557757Y-68306923D01*
X144856589Y-68791718D01*
X145085130Y-69154093D01*
X145321286Y-69513595D01*
X145553210Y-69856250D01*
X145776936Y-70176670D01*
X145988494Y-70469469D01*
X146183917Y-70729259D01*
X146359238Y-70950651D01*
X146438120Y-71045266D01*
X146510488Y-71128261D01*
X146575847Y-71198963D01*
X146633700Y-71256699D01*
X146648765Y-71311177D01*
X146661199Y-71437109D01*
X146678480Y-71864586D01*
X146686155Y-72461630D01*
X146684836Y-73150743D01*
X146675138Y-73854425D01*
X146657673Y-74495179D01*
X146633054Y-74995505D01*
X146618253Y-75168789D01*
X146601894Y-75277904D01*
X146538812Y-75544436D01*
X146476631Y-75796537D01*
X146416367Y-76030537D01*
X146359041Y-76242765D01*
X146305669Y-76429551D01*
X146257271Y-76587225D01*
X146214864Y-76712115D01*
X146196226Y-76761119D01*
X146179468Y-76800551D01*
X146172706Y-76815346D01*
X146170063Y-76820402D01*
X146167925Y-76823216D01*
X146167048Y-76823623D01*
X146166301Y-76823278D01*
X146165201Y-76820076D01*
X146164607Y-76801843D01*
X146166219Y-76764430D01*
X146170112Y-76703756D01*
X146185037Y-76496280D01*
X146230373Y-75789460D01*
X146264416Y-75088331D01*
X146286942Y-74419478D01*
X146297726Y-73809488D01*
X146296542Y-73284948D01*
X146283167Y-72872445D01*
X146271837Y-72716515D01*
X146257374Y-72598565D01*
X146239751Y-72521917D01*
X146229746Y-72500120D01*
X146218940Y-72489895D01*
X146211877Y-72488012D01*
X146205197Y-72488405D01*
X146198723Y-72491711D01*
X146192278Y-72498573D01*
X146185685Y-72509630D01*
X146178768Y-72525522D01*
X146163251Y-72574371D01*
X146144314Y-72650243D01*
X146126983Y-72728993D01*
X146120542Y-72758258D01*
X146052832Y-73091205D01*
G37*
X146052832Y-73091205D02*
X145946371Y-73620598D01*
X145854864Y-74068728D01*
X145762059Y-74518520D01*
X145625928Y-75159255D01*
X145440040Y-75987264D01*
X145239692Y-76848193D01*
X145060185Y-77587686D01*
X144966440Y-77953685D01*
X144862864Y-78346394D01*
X144768701Y-78693786D01*
X144703197Y-78923833D01*
X144623227Y-79188415D01*
X144567536Y-79368982D01*
X144510016Y-79547704D01*
X144451682Y-79721738D01*
X144393548Y-79888239D01*
X144336628Y-80044363D01*
X144281935Y-80187267D01*
X144230486Y-80314105D01*
X144183293Y-80422035D01*
X144183295Y-80422035D01*
X144178456Y-80430380D01*
X144171700Y-80438668D01*
X144163162Y-80446870D01*
X144152980Y-80454957D01*
X144141287Y-80462900D01*
X144128221Y-80470669D01*
X144098510Y-80485568D01*
X144064933Y-80499419D01*
X144028576Y-80511988D01*
X143990526Y-80523040D01*
X143951869Y-80532339D01*
X143913691Y-80539651D01*
X143877080Y-80544741D01*
X143843120Y-80547375D01*
X143812899Y-80547317D01*
X143799530Y-80546205D01*
X143787502Y-80544332D01*
X143776953Y-80541669D01*
X143768017Y-80538186D01*
X143760830Y-80533853D01*
X143755529Y-80528643D01*
X143752249Y-80522525D01*
X143751125Y-80515469D01*
X143756225Y-80493032D01*
X143771034Y-80440894D01*
X143826818Y-80257078D01*
X144022366Y-79638206D01*
X144276922Y-78834116D01*
X144375074Y-78514158D01*
X144458154Y-78233944D01*
X144529423Y-77982237D01*
X144592143Y-77747801D01*
X144649573Y-77519401D01*
X144704973Y-77285801D01*
X144725957Y-77194764D01*
X144734076Y-77158441D01*
X144740525Y-77127856D01*
X144745239Y-77102717D01*
X144746925Y-77092097D01*
X144748152Y-77082728D01*
X144748913Y-77074573D01*
X144749199Y-77067596D01*
X144749001Y-77061760D01*
X144748313Y-77057028D01*
X144747125Y-77053363D01*
X144746341Y-77051919D01*
X144745429Y-77050729D01*
X144744388Y-77049787D01*
X144743217Y-77049088D01*
X144741915Y-77048629D01*
X144740481Y-77048405D01*
X144738914Y-77048411D01*
X144737213Y-77048642D01*
X144733404Y-77049763D01*
X144729046Y-77051731D01*
X144724132Y-77054509D01*
X144718652Y-77058061D01*
X144712599Y-77062349D01*
X144698740Y-77072989D01*
X144663779Y-77101495D01*
X144609391Y-77144870D01*
X144537790Y-77200123D01*
X144358857Y-77334477D01*
X144158791Y-77480981D01*
X143969406Y-77616061D01*
X143667288Y-77822238D01*
X143362972Y-78019169D01*
X143057433Y-78206435D01*
X142751649Y-78383618D01*
X142446597Y-78550297D01*
X142143251Y-78706053D01*
X141842591Y-78850467D01*
X141545591Y-78983119D01*
X141253228Y-79103590D01*
X140966480Y-79211460D01*
X140686322Y-79306311D01*
X140413731Y-79387722D01*
X140149685Y-79455274D01*
X139895158Y-79508548D01*
X139651129Y-79547124D01*
X139418573Y-79570583D01*
X139328779Y-79575586D01*
X139243533Y-79577588D01*
X139162078Y-79576351D01*
X139083657Y-79571637D01*
X139007510Y-79563207D01*
X138932880Y-79550824D01*
X138859010Y-79534248D01*
X138785141Y-79513242D01*
X138710515Y-79487568D01*
X138634375Y-79456986D01*
X138555963Y-79421260D01*
X138474521Y-79380150D01*
X138389290Y-79333419D01*
X138299513Y-79280828D01*
X138204433Y-79222139D01*
X138103291Y-79157114D01*
X137981763Y-79077835D01*
X137923228Y-79039984D01*
X137921658Y-79039496D01*
X137920962Y-79039658D01*
X137920326Y-79040090D01*
X137919233Y-79041762D01*
X137918377Y-79044508D01*
X137917760Y-79048323D01*
X137917380Y-79053202D01*
X137917332Y-79066140D01*
X137918234Y-79083286D01*
X137920085Y-79104607D01*
X137922883Y-79130068D01*
X137926628Y-79159636D01*
X137934420Y-79226038D01*
X137940954Y-79298335D01*
X137950307Y-79456896D01*
X137954794Y-79627881D01*
X137954528Y-79803854D01*
X137949618Y-79977375D01*
X137940173Y-80141008D01*
X137926305Y-80287315D01*
X137917746Y-80351648D01*
X137908123Y-80408859D01*
X137897734Y-80447078D01*
X137887391Y-80462528D01*
X137870458Y-80475758D01*
X137844566Y-80486933D01*
X137807346Y-80496217D01*
X137756429Y-80503775D01*
X137689445Y-80509771D01*
X137497804Y-80517740D01*
X137213471Y-80521440D01*
X136290923Y-80521307D01*
X135764187Y-80519656D01*
X135550665Y-80517918D01*
X135367051Y-80515024D01*
X135285680Y-80513014D01*
X135210851Y-80510561D01*
X135142252Y-80507612D01*
X135079571Y-80504117D01*
X135022498Y-80500024D01*
X134970719Y-80495281D01*
X134923925Y-80489837D01*
X134881802Y-80483641D01*
X134844040Y-80476640D01*
X134810326Y-80468784D01*
X134780350Y-80460021D01*
X134753798Y-80450299D01*
X134730361Y-80439567D01*
X134719712Y-80433806D01*
X134709726Y-80427774D01*
X134700361Y-80421463D01*
X134691581Y-80414868D01*
X134683345Y-80407981D01*
X134675615Y-80400797D01*
X134661516Y-80385511D01*
X134648972Y-80368957D01*
X134637673Y-80351084D01*
X134627306Y-80331840D01*
X134617559Y-80311175D01*
X134608121Y-80289037D01*
X134588926Y-80240134D01*
X134264176Y-79341529D01*
X133974861Y-78428265D01*
X133722001Y-77505168D01*
X133506617Y-76577066D01*
X133344842Y-75728094D01*
X133516887Y-75728094D01*
X133521872Y-75889297D01*
X133531018Y-76035219D01*
X133544471Y-76163402D01*
X133562379Y-76271384D01*
X133636166Y-76616002D01*
X133713483Y-76957501D01*
X133793795Y-77293803D01*
X133876564Y-77622829D01*
X133961255Y-77942502D01*
X134047330Y-78250743D01*
X134134254Y-78545473D01*
X134221488Y-78824614D01*
X134221489Y-78824612D01*
X134240116Y-78881550D01*
X134248573Y-78906773D01*
X134256172Y-78929006D01*
X134262699Y-78947629D01*
X134267941Y-78962023D01*
X134271683Y-78971568D01*
X134272924Y-78974329D01*
X134273711Y-78975645D01*
X134275080Y-78976738D01*
X134276231Y-78976627D01*
X134277805Y-78970723D01*
X134278291Y-78953799D01*
X134277550Y-78921717D01*
X134271816Y-78795539D01*
X134259471Y-78559103D01*
X134224193Y-77839068D01*
X134196153Y-77146229D01*
X134175107Y-76473795D01*
X134160811Y-75814978D01*
X134156956Y-75594153D01*
X134155106Y-75504203D01*
X134153140Y-75426281D01*
X134150930Y-75359178D01*
X134148351Y-75301683D01*
X134145274Y-75252586D01*
X134141574Y-75210678D01*
X134139451Y-75192041D01*
X134137124Y-75174748D01*
X134134578Y-75158647D01*
X134131797Y-75143587D01*
X134128766Y-75129417D01*
X134125467Y-75115986D01*
X134121886Y-75103141D01*
X134118006Y-75090732D01*
X134113813Y-75078609D01*
X134109289Y-75066618D01*
X134099188Y-75042434D01*
X134087576Y-75016968D01*
X134074328Y-74989011D01*
X134018005Y-74861405D01*
X133992662Y-74795955D01*
X133969032Y-74728622D01*
X133946992Y-74658816D01*
X133926419Y-74585950D01*
X133889178Y-74428680D01*
X133856318Y-74252101D01*
X133826852Y-74051502D01*
X133799790Y-73822174D01*
X133774143Y-73559405D01*
X133768590Y-73498512D01*
X133764058Y-73454250D01*
X133762007Y-73438127D01*
X133760009Y-73425888D01*
X133757996Y-73417441D01*
X133756964Y-73414610D01*
X133755903Y-73412694D01*
X133754804Y-73411680D01*
X133753660Y-73411556D01*
X133752462Y-73412312D01*
X133751201Y-73413936D01*
X133749870Y-73416416D01*
X133748459Y-73419742D01*
X133745365Y-73428882D01*
X133741853Y-73441266D01*
X133737854Y-73456801D01*
X133728131Y-73496961D01*
X133694646Y-73649703D01*
X133663560Y-73816677D01*
X133635017Y-73995423D01*
X133609167Y-74183482D01*
X133566128Y-74577701D01*
X133535618Y-74979660D01*
X133518813Y-75369682D01*
X133516887Y-75728094D01*
X133344842Y-75728094D01*
X133329730Y-75648788D01*
X133192358Y-74725162D01*
X133095523Y-73811015D01*
X133062625Y-73359006D01*
X133040244Y-72911176D01*
X133036500Y-72824775D01*
X133032744Y-72763060D01*
X133030818Y-72741459D01*
X133028837Y-72726030D01*
X133026784Y-72716773D01*
X133025724Y-72714459D01*
X133024640Y-72713687D01*
X133023529Y-72714459D01*
X133022389Y-72716773D01*
X133020014Y-72726030D01*
X133017496Y-72741459D01*
X133014819Y-72763060D01*
X133008916Y-72824775D01*
X133002166Y-72911176D01*
X133000485Y-72931381D01*
X132998489Y-72950491D01*
X132996194Y-72968497D01*
X132993620Y-72985390D01*
X132990784Y-73001163D01*
X132987703Y-73015806D01*
X132984396Y-73029310D01*
X132980880Y-73041666D01*
X132977172Y-73052867D01*
X132973292Y-73062903D01*
X132969255Y-73071765D01*
X132965081Y-73079444D01*
X132960787Y-73085933D01*
X132956391Y-73091222D01*
X132951910Y-73095302D01*
X132947362Y-73098165D01*
X132942766Y-73099802D01*
X132938138Y-73100204D01*
X132933497Y-73099363D01*
X132928861Y-73097269D01*
X132924246Y-73093914D01*
X132919671Y-73089289D01*
X132915154Y-73083386D01*
X132910713Y-73076195D01*
X132906365Y-73067709D01*
X132902127Y-73057918D01*
X132898019Y-73046813D01*
X132894057Y-73034386D01*
X132890259Y-73020628D01*
X132886643Y-73005530D01*
X132883227Y-72989083D01*
X132880029Y-72971280D01*
X132876735Y-72953773D01*
X132873636Y-72941897D01*
X132870731Y-72935640D01*
X132869351Y-72934617D01*
X132868021Y-72934994D01*
X132865508Y-72939946D01*
X132863191Y-72950487D01*
X132859151Y-72988293D01*
X132855908Y-73048328D01*
X132853468Y-73130508D01*
X132851837Y-73234749D01*
X132851020Y-73360968D01*
X132850732Y-73427665D01*
X132850263Y-73487649D01*
X132849589Y-73541171D01*
X132848685Y-73588487D01*
X132847524Y-73629850D01*
X132846082Y-73665513D01*
X132845247Y-73681286D01*
X132844333Y-73695730D01*
X132843335Y-73708875D01*
X132842251Y-73720755D01*
X132841078Y-73731399D01*
X132839811Y-73740840D01*
X132838450Y-73749110D01*
X132836989Y-73756241D01*
X132835426Y-73762263D01*
X132833757Y-73767210D01*
X132831980Y-73771112D01*
X132831050Y-73772681D01*
X132830092Y-73774001D01*
X132829104Y-73775076D01*
X132828088Y-73775909D01*
X132827042Y-73776505D01*
X132825967Y-73776868D01*
X132824861Y-73777001D01*
X132823724Y-73776909D01*
X132822556Y-73776595D01*
X132821357Y-73776063D01*
X132820125Y-73775319D01*
X132818862Y-73774364D01*
X132816236Y-73771842D01*
X132813477Y-73768530D01*
X132810580Y-73764458D01*
X132801173Y-73746852D01*
X132790785Y-73720934D01*
X132767429Y-73645891D01*
X132741239Y-73542795D01*
X132712943Y-73415112D01*
X132683266Y-73266308D01*
X132652935Y-73099849D01*
X132622678Y-72919201D01*
X132593220Y-72727831D01*
X132589204Y-72701476D01*
X132585159Y-72676589D01*
X132581192Y-72653737D01*
X132577416Y-72633485D01*
X132573939Y-72616400D01*
X132570872Y-72603048D01*
X132569526Y-72597949D01*
X132568324Y-72593995D01*
X132567279Y-72591258D01*
X132566406Y-72589807D01*
X132557661Y-72585806D01*
X132549691Y-72592339D01*
X132542480Y-72609797D01*
X132536013Y-72638571D01*
X132525249Y-72731639D01*
X132517277Y-72874676D01*
X132511974Y-73070816D01*
X132509218Y-73323194D01*
X132510853Y-74009197D01*
X132521343Y-74660230D01*
X132532999Y-74942446D01*
X132551465Y-75229318D01*
X132578640Y-75545990D01*
X132616427Y-75917604D01*
X132731440Y-76926228D01*
X132837302Y-77774876D01*
X132984468Y-78901799D01*
X133122936Y-79929771D01*
X133202703Y-80481566D01*
X133205136Y-80495757D01*
X133205890Y-80501499D01*
X133206237Y-80506422D01*
X133206233Y-80508596D01*
X133206098Y-80510589D01*
X133205824Y-80512409D01*
X133205400Y-80514064D01*
X133204817Y-80515561D01*
X133204065Y-80516908D01*
X133203135Y-80518114D01*
X133202018Y-80519186D01*
X133200703Y-80520132D01*
X133199182Y-80520960D01*
X133197445Y-80521678D01*
X133195483Y-80522293D01*
X133193285Y-80522814D01*
X133190844Y-80523248D01*
X133185188Y-80523889D01*
X133178442Y-80524277D01*
X133170527Y-80524477D01*
X133150892Y-80524560D01*
X133140863Y-80524528D01*
X133132006Y-80524395D01*
X133124238Y-80524106D01*
X133117472Y-80523608D01*
X133114439Y-80523264D01*
X133111625Y-80522846D01*
X133109019Y-80522350D01*
X133106611Y-80521767D01*
X133104390Y-80521091D01*
X133102345Y-80520315D01*
X133100467Y-80519433D01*
X133098744Y-80518438D01*
X133097166Y-80517322D01*
X133095723Y-80516080D01*
X133094402Y-80514703D01*
X133093195Y-80513187D01*
X133092091Y-80511523D01*
X133091078Y-80509705D01*
X133090146Y-80507726D01*
X133089285Y-80505580D01*
X133088485Y-80503260D01*
X133087733Y-80500758D01*
X133086337Y-80495184D01*
X133085011Y-80488805D01*
X133083671Y-80481566D01*
X132967464Y-79659429D01*
X132789727Y-78335135D01*
X132662738Y-77342417D01*
X132562613Y-76502153D01*
X132487136Y-75783476D01*
X132434091Y-75155518D01*
X132401261Y-74587413D01*
X132386431Y-74048294D01*
X132387385Y-73507293D01*
X132401905Y-72933543D01*
X132409438Y-72675727D01*
X132413028Y-72448494D01*
X132412429Y-72245937D01*
X132407397Y-72062145D01*
X132397685Y-71891208D01*
X132383048Y-71727218D01*
X132363241Y-71564264D01*
X132338017Y-71396437D01*
X132336581Y-71392562D01*
X132334448Y-71394074D01*
X132328202Y-71412537D01*
X132308567Y-71506159D01*
X132246950Y-71879693D01*
X132167393Y-72424499D01*
X132084123Y-73048033D01*
X132066161Y-73188015D01*
X132058608Y-73244836D01*
X132051793Y-73293666D01*
X132048612Y-73315269D01*
X132045556Y-73335094D01*
X132042604Y-73353217D01*
X132039736Y-73369711D01*
X132036932Y-73384650D01*
X132034173Y-73398107D01*
X132031438Y-73410157D01*
X132028707Y-73420873D01*
X132025960Y-73430328D01*
X132023178Y-73438598D01*
X132020339Y-73445755D01*
X132018892Y-73448939D01*
X132017424Y-73451873D01*
X132015932Y-73454566D01*
X132014413Y-73457027D01*
X132012866Y-73459265D01*
X132011287Y-73461289D01*
X132009673Y-73463110D01*
X132008024Y-73464735D01*
X132006335Y-73466174D01*
X132004605Y-73467436D01*
X132002830Y-73468532D01*
X132001009Y-73469469D01*
X131999139Y-73470257D01*
X131997218Y-73470905D01*
X131995242Y-73471423D01*
X131993210Y-73471819D01*
X131988966Y-73472285D01*
X131984465Y-73472377D01*
X131979689Y-73472168D01*
X131969225Y-73471143D01*
X131962805Y-73470272D01*
X131957007Y-73469050D01*
X131951701Y-73467213D01*
X131946756Y-73464501D01*
X131942042Y-73460652D01*
X131937427Y-73455403D01*
X131932782Y-73448494D01*
X131927976Y-73439661D01*
X131922877Y-73428644D01*
X131917356Y-73415181D01*
X131904522Y-73379867D01*
X131888431Y-73331627D01*
X131868035Y-73268364D01*
X131712386Y-72748245D01*
X131566394Y-72192839D01*
X131432169Y-71613299D01*
X131311824Y-71020780D01*
X131207470Y-70426436D01*
X131178192Y-70227854D01*
X133572682Y-70227854D01*
X133573529Y-70241733D01*
X133581023Y-70294975D01*
X133596470Y-70384370D01*
X133652264Y-70682060D01*
X133681305Y-70837346D01*
X133704919Y-70971876D01*
X133723881Y-71092034D01*
X133738968Y-71204205D01*
X133750956Y-71314773D01*
X133760621Y-71430123D01*
X133768739Y-71556639D01*
X133776086Y-71700706D01*
X133824832Y-72658458D01*
X133850046Y-73060161D01*
X133877300Y-73416628D01*
X133907704Y-73732515D01*
X133942368Y-74012481D01*
X133982403Y-74261185D01*
X134004781Y-74375269D01*
X134028917Y-74483285D01*
X134054952Y-74585814D01*
X134083023Y-74683438D01*
X134113268Y-74776740D01*
X134145828Y-74866303D01*
X134180840Y-74952708D01*
X134218444Y-75036539D01*
X134258778Y-75118376D01*
X134301980Y-75198802D01*
X134348190Y-75278401D01*
X134397547Y-75357753D01*
X134506254Y-75518048D01*
X134629211Y-75684346D01*
X134767529Y-75861306D01*
X134799279Y-75901446D01*
X134831207Y-75942263D01*
X134859598Y-75978982D01*
X134880738Y-76006827D01*
X135021999Y-76184666D01*
X135205576Y-76398106D01*
X135421887Y-76637132D01*
X135661349Y-76891728D01*
X135914380Y-77151878D01*
X136171398Y-77407567D01*
X136422818Y-77648779D01*
X136659059Y-77865498D01*
X136784906Y-77977946D01*
X136936132Y-78112367D01*
X137089206Y-78243950D01*
X137243187Y-78372052D01*
X137397133Y-78496027D01*
X137550102Y-78615229D01*
X137701152Y-78729013D01*
X137849342Y-78836732D01*
X137993729Y-78937743D01*
X138017669Y-78953799D01*
X138133372Y-79031398D01*
X138267329Y-79117053D01*
X138394657Y-79194062D01*
X138514416Y-79261779D01*
X138625663Y-79319559D01*
X138727456Y-79366757D01*
X138818853Y-79402726D01*
X138898913Y-79426822D01*
X138898913Y-79426823D01*
X138921493Y-79431665D01*
X138947970Y-79436259D01*
X139010550Y-79444588D01*
X139082516Y-79451569D01*
X139159733Y-79456966D01*
X139238067Y-79460539D01*
X139313382Y-79462050D01*
X139381543Y-79461260D01*
X139438415Y-79457931D01*
X139701736Y-79424940D01*
X139976703Y-79374565D01*
X140262211Y-79307320D01*
X140557152Y-79223721D01*
X140860422Y-79124284D01*
X141170914Y-79009523D01*
X141487523Y-78879954D01*
X141809142Y-78736092D01*
X142134667Y-78578452D01*
X142462990Y-78407549D01*
X142793006Y-78223900D01*
X143123609Y-78028018D01*
X143453693Y-77820419D01*
X143782152Y-77601619D01*
X144107881Y-77372133D01*
X144429774Y-77132475D01*
X144687742Y-76935275D01*
X144726930Y-76905405D01*
X144742766Y-76892745D01*
X144756459Y-76880838D01*
X144768284Y-76869110D01*
X144778514Y-76856987D01*
X144787421Y-76843895D01*
X144795279Y-76829261D01*
X144802360Y-76812511D01*
X144808938Y-76793071D01*
X144815286Y-76770368D01*
X144821676Y-76743829D01*
X144835679Y-76676944D01*
X144853129Y-76587827D01*
X144959211Y-75985582D01*
X145045561Y-75365190D01*
X145112102Y-74727993D01*
X145158761Y-74075333D01*
X145185463Y-73408552D01*
X145192134Y-72728993D01*
X145178698Y-72037996D01*
X145145081Y-71336906D01*
X145141001Y-71271960D01*
X145138895Y-71245521D01*
X145136343Y-71222369D01*
X145133045Y-71201953D01*
X145131023Y-71192598D01*
X145128701Y-71183721D01*
X145126043Y-71175252D01*
X145123010Y-71167122D01*
X145119566Y-71159262D01*
X145115672Y-71151604D01*
X145111291Y-71144078D01*
X145106386Y-71136616D01*
X145100918Y-71129148D01*
X145094851Y-71121606D01*
X145088146Y-71113920D01*
X145080767Y-71106022D01*
X145063834Y-71089314D01*
X145043750Y-71070930D01*
X145020215Y-71050317D01*
X144961592Y-71000203D01*
X144694571Y-70764204D01*
X144433926Y-70517703D01*
X144179859Y-70260985D01*
X143932568Y-69994339D01*
X143692254Y-69718051D01*
X143459116Y-69432409D01*
X143233355Y-69137698D01*
X143015170Y-68834207D01*
X142804760Y-68522223D01*
X142602327Y-68202031D01*
X142408070Y-67873920D01*
X142222188Y-67538177D01*
X142044881Y-67195087D01*
X141876350Y-66844939D01*
X141716794Y-66488019D01*
X141566413Y-66124614D01*
X141521351Y-66011218D01*
X141488230Y-65928230D01*
X141475570Y-65896910D01*
X141465203Y-65871718D01*
X141456898Y-65852162D01*
X141450426Y-65837751D01*
X141447804Y-65832321D01*
X141445555Y-65827993D01*
X141443647Y-65824706D01*
X141442054Y-65822397D01*
X141440745Y-65821007D01*
X141440189Y-65820636D01*
X141439693Y-65820472D01*
X141439254Y-65820507D01*
X141438868Y-65820733D01*
X141438241Y-65821726D01*
X141437784Y-65823392D01*
X141437468Y-65825668D01*
X141437143Y-65831807D01*
X141436915Y-65848707D01*
X141439559Y-65995199D01*
X141452882Y-66164599D01*
X141476297Y-66354648D01*
X141509217Y-66563088D01*
X141601222Y-67026105D01*
X141724199Y-67535579D01*
X141873453Y-68073440D01*
X142044286Y-68621618D01*
X142232001Y-69162043D01*
X142431902Y-69676645D01*
X142518739Y-69886148D01*
X142555080Y-69972527D01*
X142587344Y-70047828D01*
X142616010Y-70112931D01*
X142641560Y-70168714D01*
X142653316Y-70193385D01*
X142657996Y-70202895D01*
X142664473Y-70216056D01*
X142675091Y-70236836D01*
X142685229Y-70255836D01*
X142694949Y-70273165D01*
X142704310Y-70288932D01*
X142713373Y-70303249D01*
X142722196Y-70316224D01*
X142730840Y-70327967D01*
X142739366Y-70338589D01*
X142747833Y-70348200D01*
X142756302Y-70356908D01*
X142764832Y-70364824D01*
X142773483Y-70372057D01*
X142782316Y-70378719D01*
X142791390Y-70384917D01*
X142800766Y-70390763D01*
X142810504Y-70396366D01*
X142831304Y-70407282D01*
X142895255Y-70440113D01*
X142965256Y-70477343D01*
X143038845Y-70517577D01*
X143113564Y-70559422D01*
X143186952Y-70601486D01*
X143256550Y-70642373D01*
X143319897Y-70680691D01*
X143374535Y-70715046D01*
X143408274Y-70736448D01*
X143423193Y-70745574D01*
X143436995Y-70753730D01*
X143449816Y-70760974D01*
X143461795Y-70767366D01*
X143473068Y-70772965D01*
X143483773Y-70777831D01*
X143494046Y-70782021D01*
X143504025Y-70785597D01*
X143513847Y-70788616D01*
X143523650Y-70791139D01*
X143533570Y-70793223D01*
X143543744Y-70794930D01*
X143554310Y-70796317D01*
X143565406Y-70797444D01*
X143584861Y-70798616D01*
X143607663Y-70799035D01*
X143633219Y-70798762D01*
X143660934Y-70797855D01*
X143720462Y-70794381D01*
X143781492Y-70789091D01*
X143839267Y-70782461D01*
X143889033Y-70774968D01*
X143909427Y-70771048D01*
X143926034Y-70767091D01*
X143938261Y-70763157D01*
X143942546Y-70761217D01*
X143945514Y-70759305D01*
X143948163Y-70757213D01*
X143950704Y-70755436D01*
X143951939Y-70754668D01*
X143953154Y-70753979D01*
X143954352Y-70753371D01*
X143955535Y-70752844D01*
X143956704Y-70752399D01*
X143957864Y-70752035D01*
X143959016Y-70751754D01*
X143960162Y-70751555D01*
X143961305Y-70751438D01*
X143962448Y-70751405D01*
X143963593Y-70751456D01*
X143964742Y-70751590D01*
X143965899Y-70751809D01*
X143967064Y-70752113D01*
X143968241Y-70752501D01*
X143969432Y-70752976D01*
X143970640Y-70753536D01*
X143971867Y-70754182D01*
X143973115Y-70754915D01*
X143974387Y-70755734D01*
X143975686Y-70756641D01*
X143977013Y-70757636D01*
X143979765Y-70759891D01*
X143982660Y-70762500D01*
X143985720Y-70765469D01*
X143990796Y-70771284D01*
X143992777Y-70774197D01*
X143994383Y-70777119D01*
X143995610Y-70780052D01*
X143996455Y-70782999D01*
X143996916Y-70785963D01*
X143996989Y-70788947D01*
X143996671Y-70791954D01*
X143995959Y-70794987D01*
X143994850Y-70798050D01*
X143993341Y-70801144D01*
X143991429Y-70804274D01*
X143989110Y-70807441D01*
X143983243Y-70813903D01*
X143975714Y-70820553D01*
X143966498Y-70827416D01*
X143955572Y-70834515D01*
X143942911Y-70841874D01*
X143928490Y-70849519D01*
X143912284Y-70857472D01*
X143894269Y-70865757D01*
X143874421Y-70874400D01*
X143863393Y-70879509D01*
X143853923Y-70884775D01*
X143845974Y-70890179D01*
X143839509Y-70895698D01*
X143834494Y-70901313D01*
X143830892Y-70907003D01*
X143828667Y-70912747D01*
X143827782Y-70918523D01*
X143828202Y-70924312D01*
X143829891Y-70930092D01*
X143832812Y-70935843D01*
X143836930Y-70941543D01*
X143842207Y-70947173D01*
X143848609Y-70952710D01*
X143864641Y-70963427D01*
X143884736Y-70973527D01*
X143908606Y-70982844D01*
X143935962Y-70991212D01*
X143966515Y-70998463D01*
X143999977Y-71004433D01*
X144036058Y-71008953D01*
X144074470Y-71011858D01*
X144114925Y-71012982D01*
X144142098Y-71013847D01*
X144154088Y-71014815D01*
X144165022Y-71016122D01*
X144174904Y-71017756D01*
X144183739Y-71019702D01*
X144191534Y-71021949D01*
X144198294Y-71024482D01*
X144204023Y-71027290D01*
X144208727Y-71030358D01*
X144212412Y-71033674D01*
X144215083Y-71037225D01*
X144216746Y-71040998D01*
X144217405Y-71044979D01*
X144217066Y-71049156D01*
X144215735Y-71053515D01*
X144213416Y-71058044D01*
X144210116Y-71062729D01*
X144205839Y-71067557D01*
X144200591Y-71072516D01*
X144194378Y-71077591D01*
X144187204Y-71082771D01*
X144179075Y-71088042D01*
X144169996Y-71093390D01*
X144149012Y-71104269D01*
X144124293Y-71115302D01*
X144095883Y-71126386D01*
X144063825Y-71137416D01*
X144055909Y-71140549D01*
X144050111Y-71144104D01*
X144046360Y-71148054D01*
X144044589Y-71152371D01*
X144044728Y-71157030D01*
X144046708Y-71162002D01*
X144050460Y-71167262D01*
X144055916Y-71172783D01*
X144071661Y-71184500D01*
X144093390Y-71196939D01*
X144120553Y-71209884D01*
X144152596Y-71223123D01*
X144188968Y-71236440D01*
X144229117Y-71249622D01*
X144272491Y-71262454D01*
X144318538Y-71274722D01*
X144366706Y-71286211D01*
X144416442Y-71296708D01*
X144467196Y-71305998D01*
X144518414Y-71313867D01*
X144539082Y-71317197D01*
X144556645Y-71321012D01*
X144564267Y-71323089D01*
X144571119Y-71325271D01*
X144577202Y-71327554D01*
X144582518Y-71329931D01*
X144587070Y-71332399D01*
X144590860Y-71334951D01*
X144593889Y-71337583D01*
X144596160Y-71340288D01*
X144597674Y-71343062D01*
X144598434Y-71345900D01*
X144598441Y-71348796D01*
X144597697Y-71351744D01*
X144596205Y-71354741D01*
X144593966Y-71357780D01*
X144590983Y-71360855D01*
X144587257Y-71363963D01*
X144582791Y-71367097D01*
X144577585Y-71370253D01*
X144571643Y-71373424D01*
X144564966Y-71376606D01*
X144549417Y-71382982D01*
X144530952Y-71389337D01*
X144509588Y-71395630D01*
X144485341Y-71401817D01*
X144443897Y-71411885D01*
X144409290Y-71420653D01*
X144395681Y-71424254D01*
X144385138Y-71427178D01*
X144378114Y-71429305D01*
X144376062Y-71430033D01*
X144375060Y-71430518D01*
X144374957Y-71430841D01*
X144375101Y-71431444D01*
X144376111Y-71433466D01*
X144380851Y-71440564D01*
X144388906Y-71451347D01*
X144399904Y-71465347D01*
X144413473Y-71482099D01*
X144429241Y-71501136D01*
X144446834Y-71521992D01*
X144465881Y-71544201D01*
X144549861Y-71642077D01*
X144623526Y-71729574D01*
X144686953Y-71806933D01*
X144740222Y-71874392D01*
X144783413Y-71932191D01*
X144801253Y-71957543D01*
X144816603Y-71980569D01*
X144829473Y-72001300D01*
X144839872Y-72019766D01*
X144847811Y-72035996D01*
X144853299Y-72050020D01*
X144856346Y-72061869D01*
X144856962Y-72071572D01*
X144855158Y-72079159D01*
X144853350Y-72082169D01*
X144850942Y-72084661D01*
X144847933Y-72086639D01*
X144844325Y-72088106D01*
X144835316Y-72089525D01*
X144823926Y-72088949D01*
X144810164Y-72086406D01*
X144794040Y-72081926D01*
X144775564Y-72075541D01*
X144754746Y-72067279D01*
X144731596Y-72057170D01*
X144678339Y-72031533D01*
X144615871Y-71998869D01*
X144489019Y-71930956D01*
X144437433Y-71903889D01*
X144393107Y-71881275D01*
X144355566Y-71863008D01*
X144339191Y-71855472D01*
X144324334Y-71848984D01*
X144310936Y-71843531D01*
X144298937Y-71839098D01*
X144288277Y-71835674D01*
X144278898Y-71833245D01*
X144270740Y-71831798D01*
X144263743Y-71831319D01*
X144260662Y-71831439D01*
X144257848Y-71831796D01*
X144255296Y-71832389D01*
X144252996Y-71833216D01*
X144250943Y-71834275D01*
X144249128Y-71835565D01*
X144247544Y-71837084D01*
X144246183Y-71838830D01*
X144245039Y-71840802D01*
X144244103Y-71842999D01*
X144242827Y-71848057D01*
X144242298Y-71853993D01*
X144242454Y-71860792D01*
X144243238Y-71868441D01*
X144244589Y-71876928D01*
X144246448Y-71886240D01*
X144248755Y-71896362D01*
X144254478Y-71918989D01*
X144265730Y-71963662D01*
X144274450Y-72002529D01*
X144280519Y-72035605D01*
X144282524Y-72049977D01*
X144283821Y-72062908D01*
X144284398Y-72074400D01*
X144284238Y-72084455D01*
X144283328Y-72093076D01*
X144281653Y-72100263D01*
X144279197Y-72106020D01*
X144275947Y-72110349D01*
X144271887Y-72113252D01*
X144267004Y-72114730D01*
X144261281Y-72114786D01*
X144254705Y-72113423D01*
X144247260Y-72110641D01*
X144238933Y-72106444D01*
X144229708Y-72100834D01*
X144219571Y-72093812D01*
X144208507Y-72085381D01*
X144196500Y-72075543D01*
X144169604Y-72051654D01*
X144138765Y-72022162D01*
X144103865Y-71987083D01*
X144064787Y-71946436D01*
X143830148Y-71710467D01*
X143596480Y-71498106D01*
X143363830Y-71309367D01*
X143132245Y-71144260D01*
X143016867Y-71070573D01*
X142901772Y-71002799D01*
X142786968Y-70940940D01*
X142672460Y-70884996D01*
X142558253Y-70834970D01*
X142444354Y-70790863D01*
X142330769Y-70752676D01*
X142217503Y-70720412D01*
X142104562Y-70694071D01*
X141991953Y-70673655D01*
X141879681Y-70659166D01*
X141767752Y-70650605D01*
X141656172Y-70647974D01*
X141544948Y-70651274D01*
X141434083Y-70660507D01*
X141323586Y-70675674D01*
X141213462Y-70696777D01*
X141103715Y-70723818D01*
X140994354Y-70756797D01*
X140885383Y-70795717D01*
X140776808Y-70840579D01*
X140668635Y-70891384D01*
X140560871Y-70948134D01*
X140453520Y-71010831D01*
X140411454Y-71034809D01*
X140378836Y-71049500D01*
X140366015Y-71053451D01*
X140355487Y-71055188D01*
X140347233Y-71054745D01*
X140341228Y-71052157D01*
X140337451Y-71047461D01*
X140335880Y-71040692D01*
X140336491Y-71031886D01*
X140339262Y-71021077D01*
X140351198Y-70993595D01*
X140371507Y-70958530D01*
X140400010Y-70916168D01*
X140436528Y-70866791D01*
X140480883Y-70810683D01*
X140532895Y-70748130D01*
X140592385Y-70679414D01*
X140659174Y-70604821D01*
X140813932Y-70439135D01*
X140846670Y-70404818D01*
X140859686Y-70390970D01*
X140870545Y-70379143D01*
X140879306Y-70369200D01*
X140882918Y-70364891D01*
X140886027Y-70361001D01*
X140888640Y-70357512D01*
X140890766Y-70354408D01*
X140892411Y-70351670D01*
X140893583Y-70349281D01*
X140894289Y-70347225D01*
X140894536Y-70345483D01*
X140894490Y-70344725D01*
X140894332Y-70344039D01*
X140894063Y-70343422D01*
X140893684Y-70342874D01*
X140892598Y-70341972D01*
X140891084Y-70341316D01*
X140889148Y-70340888D01*
X140886796Y-70340670D01*
X140884038Y-70340646D01*
X140880879Y-70340797D01*
X140873391Y-70341559D01*
X140864390Y-70342817D01*
X140853935Y-70344432D01*
X140836796Y-70347518D01*
X140817461Y-70351720D01*
X140773387Y-70363065D01*
X140724083Y-70377660D01*
X140671922Y-70394696D01*
X140619274Y-70413366D01*
X140568511Y-70432861D01*
X140522004Y-70452375D01*
X140482125Y-70471098D01*
X140458495Y-70482427D01*
X140447660Y-70487162D01*
X140437485Y-70491290D01*
X140427973Y-70494817D01*
X140419130Y-70497752D01*
X140410960Y-70500104D01*
X140403468Y-70501880D01*
X140396657Y-70503089D01*
X140390534Y-70503739D01*
X140385101Y-70503838D01*
X140380365Y-70503395D01*
X140376329Y-70502417D01*
X140372998Y-70500913D01*
X140370376Y-70498890D01*
X140368469Y-70496358D01*
X140367280Y-70493324D01*
X140366814Y-70489797D01*
X140367076Y-70485784D01*
X140368071Y-70481295D01*
X140369802Y-70476336D01*
X140372275Y-70470917D01*
X140375493Y-70465045D01*
X140379463Y-70458728D01*
X140384187Y-70451976D01*
X140389671Y-70444796D01*
X140395919Y-70437196D01*
X140402937Y-70429185D01*
X140410727Y-70420770D01*
X140419295Y-70411960D01*
X140438784Y-70393188D01*
X140462792Y-70371825D01*
X140487981Y-70351160D01*
X140514408Y-70331166D01*
X140542129Y-70311814D01*
X140571201Y-70293078D01*
X140601679Y-70274929D01*
X140633620Y-70257339D01*
X140667081Y-70240282D01*
X140702117Y-70223730D01*
X140738785Y-70207654D01*
X140777142Y-70192028D01*
X140817243Y-70176823D01*
X140859145Y-70162013D01*
X140902904Y-70147569D01*
X140996220Y-70119669D01*
X141023347Y-70111809D01*
X141033953Y-70108241D01*
X141038508Y-70106468D01*
X141042561Y-70104672D01*
X141046110Y-70102831D01*
X141049152Y-70100921D01*
X141051684Y-70098921D01*
X141053705Y-70096806D01*
X141055212Y-70094556D01*
X141056203Y-70092146D01*
X141056675Y-70089555D01*
X141056625Y-70086759D01*
X141056051Y-70083735D01*
X141054951Y-70080462D01*
X141053323Y-70076917D01*
X141051164Y-70073076D01*
X141048471Y-70068917D01*
X141045242Y-70064417D01*
X141037166Y-70054305D01*
X141026918Y-70042558D01*
X141014477Y-70028994D01*
X140982940Y-69995689D01*
X140895637Y-69898980D01*
X140805772Y-69789565D01*
X140713735Y-69668144D01*
X140619913Y-69535416D01*
X140524693Y-69392081D01*
X140428464Y-69238836D01*
X140234528Y-68905418D01*
X140041209Y-68540756D01*
X139851609Y-68150443D01*
X139668831Y-67740073D01*
X139495979Y-67315239D01*
X139428490Y-67141356D01*
X139417689Y-67114038D01*
X139408901Y-67092334D01*
X139401920Y-67075821D01*
X139396538Y-67064074D01*
X139394382Y-67059856D01*
X139392548Y-67056671D01*
X139391010Y-67054467D01*
X139389743Y-67053189D01*
X139389202Y-67052881D01*
X139388720Y-67052785D01*
X139388292Y-67052894D01*
X139387915Y-67053202D01*
X139387303Y-67054388D01*
X139386857Y-67056288D01*
X139386362Y-67062024D01*
X139386222Y-67069986D01*
X139386180Y-67090893D01*
X139389221Y-67184832D01*
X139400153Y-67298046D01*
X139443758Y-67574884D01*
X139513125Y-67906570D01*
X139604382Y-68278269D01*
X139713658Y-68675144D01*
X139837084Y-69082359D01*
X139970787Y-69485079D01*
X140110896Y-69868468D01*
X140127639Y-69912246D01*
X140142323Y-69951395D01*
X140154985Y-69986165D01*
X140160569Y-70001985D01*
X140165661Y-70016804D01*
X140170265Y-70030653D01*
X140174387Y-70043561D01*
X140178029Y-70055562D01*
X140181198Y-70066686D01*
X140183897Y-70076964D01*
X140186132Y-70086426D01*
X140187905Y-70095106D01*
X140189222Y-70103032D01*
X140190088Y-70110237D01*
X140190507Y-70116752D01*
X140190483Y-70122607D01*
X140190306Y-70125297D01*
X140190021Y-70127835D01*
X140189627Y-70130222D01*
X140189125Y-70132465D01*
X140188516Y-70134566D01*
X140187800Y-70136529D01*
X140186978Y-70138359D01*
X140186050Y-70140059D01*
X140185017Y-70141633D01*
X140183880Y-70143085D01*
X140182639Y-70144419D01*
X140181295Y-70145638D01*
X140179847Y-70146747D01*
X140178298Y-70147750D01*
X140176646Y-70148650D01*
X140174894Y-70149452D01*
X140173041Y-70150158D01*
X140171088Y-70150774D01*
X140166885Y-70151749D01*
X140162288Y-70152406D01*
X140157303Y-70152778D01*
X140151933Y-70152895D01*
X140145644Y-70151076D01*
X140137657Y-70145723D01*
X140116953Y-70125046D01*
X140090545Y-70092119D01*
X140059157Y-70048198D01*
X139984333Y-69932404D01*
X139898273Y-69787715D01*
X139806767Y-69624180D01*
X139715606Y-69451852D01*
X139630579Y-69280782D01*
X139557477Y-69121020D01*
X139538790Y-69078320D01*
X139519634Y-69035403D01*
X139502259Y-68997260D01*
X139488915Y-68968885D01*
X139429895Y-68839576D01*
X139368776Y-68691368D01*
X139242136Y-68345145D01*
X139112800Y-67944010D01*
X138984574Y-67501756D01*
X138861262Y-67032175D01*
X138746669Y-66549060D01*
X138644601Y-66066205D01*
X138558861Y-65597403D01*
X138554787Y-65574697D01*
X138552920Y-65566511D01*
X138551078Y-65560682D01*
X138549195Y-65557392D01*
X138548216Y-65556756D01*
X138547203Y-65556824D01*
X138546146Y-65557619D01*
X138545036Y-65559163D01*
X138542629Y-65564591D01*
X138539913Y-65573292D01*
X138536824Y-65585450D01*
X138529257Y-65620866D01*
X138519395Y-65672309D01*
X138506708Y-65741243D01*
X138462626Y-66016790D01*
X138427650Y-66309573D01*
X138401689Y-66618084D01*
X138384653Y-66940814D01*
X138376452Y-67276255D01*
X138376995Y-67622897D01*
X138403955Y-68343750D01*
X138464811Y-69091302D01*
X138558840Y-69853485D01*
X138685321Y-70618225D01*
X138760505Y-70997783D01*
X138843532Y-71373454D01*
X138859250Y-71445100D01*
X138870758Y-71507093D01*
X138878010Y-71559431D01*
X138880026Y-71581978D01*
X138880962Y-71602112D01*
X138880813Y-71619830D01*
X138879572Y-71635134D01*
X138877234Y-71648022D01*
X138873793Y-71658495D01*
X138869245Y-71666552D01*
X138863583Y-71672193D01*
X138856802Y-71675418D01*
X138848897Y-71676226D01*
X138839861Y-71674618D01*
X138829690Y-71670592D01*
X138818378Y-71664149D01*
X138805919Y-71655288D01*
X138792308Y-71644009D01*
X138777540Y-71630313D01*
X138744508Y-71595664D01*
X138706778Y-71551339D01*
X138664308Y-71497337D01*
X138617053Y-71433655D01*
X138564968Y-71360291D01*
X138536682Y-71319994D01*
X138517785Y-71296707D01*
X138512362Y-71293564D01*
X138510744Y-71294489D01*
X138509891Y-71297218D01*
X138510574Y-71308519D01*
X138514613Y-71328314D01*
X138533565Y-71396781D01*
X138568361Y-71509405D01*
X138691940Y-71894272D01*
X138713130Y-71960110D01*
X138731723Y-72018256D01*
X138747822Y-72069206D01*
X138754968Y-72092137D01*
X138761530Y-72113455D01*
X138767521Y-72133222D01*
X138772953Y-72151501D01*
X138777839Y-72168352D01*
X138782193Y-72183839D01*
X138786028Y-72198023D01*
X138789356Y-72210966D01*
X138792190Y-72222730D01*
X138794544Y-72233377D01*
X138796431Y-72242970D01*
X138797862Y-72251570D01*
X138798412Y-72255518D01*
X138798853Y-72259240D01*
X138799186Y-72262745D01*
X138799414Y-72266041D01*
X138799539Y-72269135D01*
X138799560Y-72272035D01*
X138799482Y-72274749D01*
X138799304Y-72277285D01*
X138799029Y-72279649D01*
X138798658Y-72281852D01*
X138798193Y-72283899D01*
X138797635Y-72285798D01*
X138796987Y-72287558D01*
X138796249Y-72289186D01*
X138795424Y-72290690D01*
X138794512Y-72292078D01*
X138793517Y-72293357D01*
X138792438Y-72294535D01*
X138791278Y-72295620D01*
X138790039Y-72296620D01*
X138788722Y-72297542D01*
X138787328Y-72298395D01*
X138785860Y-72299185D01*
X138784319Y-72299921D01*
X138781024Y-72301261D01*
X138777457Y-72302476D01*
X138768045Y-72303739D01*
X138756827Y-72301897D01*
X138743537Y-72296695D01*
X138727907Y-72287876D01*
X138709669Y-72275183D01*
X138688557Y-72258360D01*
X138664302Y-72237150D01*
X138636637Y-72211298D01*
X138570010Y-72144637D01*
X138486536Y-72056325D01*
X138384076Y-71944310D01*
X138260490Y-71806541D01*
X138053430Y-71566883D01*
X137853358Y-71320514D01*
X137660410Y-71067687D01*
X137474723Y-70808657D01*
X137296431Y-70543680D01*
X137125671Y-70273009D01*
X136962578Y-69996901D01*
X136807289Y-69715608D01*
X136659939Y-69429387D01*
X136520664Y-69138491D01*
X136389600Y-68843176D01*
X136266883Y-68543696D01*
X136152648Y-68240306D01*
X136047032Y-67933261D01*
X135950170Y-67622815D01*
X135862198Y-67309223D01*
X135824088Y-67165888D01*
X135817631Y-67147136D01*
X135811988Y-67136208D01*
X135809407Y-67133835D01*
X135806951Y-67133603D01*
X135804595Y-67135577D01*
X135802313Y-67139817D01*
X135797865Y-67155346D01*
X135793400Y-67180687D01*
X135783591Y-67262792D01*
X135754642Y-67566593D01*
X135734210Y-67812109D01*
X135717796Y-68074308D01*
X135705493Y-68348753D01*
X135697396Y-68631010D01*
X135693595Y-68916640D01*
X135694185Y-69201207D01*
X135699259Y-69480274D01*
X135708908Y-69749406D01*
X135714852Y-69879089D01*
X135717434Y-69931099D01*
X135719943Y-69975356D01*
X135721213Y-69994764D01*
X135722517Y-70012460D01*
X135723872Y-70028517D01*
X135725296Y-70043011D01*
X135726806Y-70056018D01*
X135728420Y-70067612D01*
X135730155Y-70077868D01*
X135732028Y-70086861D01*
X135734058Y-70094667D01*
X135736261Y-70101361D01*
X135737433Y-70104314D01*
X135738655Y-70107017D01*
X135739928Y-70109480D01*
X135741257Y-70111711D01*
X135742641Y-70113721D01*
X135744085Y-70115518D01*
X135745589Y-70117113D01*
X135747156Y-70118513D01*
X135748788Y-70119730D01*
X135750487Y-70120771D01*
X135752256Y-70121647D01*
X135754097Y-70122367D01*
X135756012Y-70122940D01*
X135758003Y-70123376D01*
X135762221Y-70123874D01*
X135766770Y-70123935D01*
X135771667Y-70123634D01*
X135776929Y-70123047D01*
X135782574Y-70122249D01*
X135795082Y-70120319D01*
X135820673Y-70117481D01*
X135848813Y-70116181D01*
X135911695Y-70117854D01*
X135981634Y-70124664D01*
X136056542Y-70135935D01*
X136110338Y-70146350D01*
X136134325Y-70150994D01*
X136212894Y-70169168D01*
X136290156Y-70189782D01*
X136364022Y-70212161D01*
X136432399Y-70235633D01*
X136493198Y-70259522D01*
X136544326Y-70283155D01*
X136583693Y-70305858D01*
X136598312Y-70316650D01*
X136609207Y-70326957D01*
X136616116Y-70336694D01*
X136618778Y-70345777D01*
X136616931Y-70354123D01*
X136610314Y-70361646D01*
X136598666Y-70368262D01*
X136581725Y-70373887D01*
X136568429Y-70377488D01*
X136563232Y-70379200D01*
X136559016Y-70381002D01*
X136557279Y-70381972D01*
X136555792Y-70383006D01*
X136554554Y-70384119D01*
X136553568Y-70385326D01*
X136552835Y-70386639D01*
X136552357Y-70388072D01*
X136552133Y-70389641D01*
X136552166Y-70391359D01*
X136552457Y-70393240D01*
X136553008Y-70395297D01*
X136553818Y-70397546D01*
X136554891Y-70400000D01*
X136557825Y-70405579D01*
X136561822Y-70412146D01*
X136566891Y-70419815D01*
X136573042Y-70428697D01*
X136588632Y-70450551D01*
X136604724Y-70474019D01*
X136621131Y-70499906D01*
X136637667Y-70527790D01*
X136654145Y-70557252D01*
X136670377Y-70587870D01*
X136686178Y-70619223D01*
X136701360Y-70650890D01*
X136715737Y-70682450D01*
X136729122Y-70713481D01*
X136741328Y-70743564D01*
X136752169Y-70772276D01*
X136761457Y-70799198D01*
X136769006Y-70823907D01*
X136774630Y-70845983D01*
X136778141Y-70865005D01*
X136779353Y-70880552D01*
X136779016Y-70887455D01*
X136777897Y-70893236D01*
X136775837Y-70897854D01*
X136774404Y-70899715D01*
X136772676Y-70901270D01*
X136770632Y-70902516D01*
X136768252Y-70903446D01*
X136765517Y-70904056D01*
X136762406Y-70904342D01*
X136754977Y-70903918D01*
X136745805Y-70902136D01*
X136734730Y-70898955D01*
X136721592Y-70894338D01*
X136706229Y-70888243D01*
X136688483Y-70880633D01*
X136645196Y-70860708D01*
X136590450Y-70834249D01*
X136527162Y-70805202D01*
X136463017Y-70779609D01*
X136398076Y-70757449D01*
X136332399Y-70738703D01*
X136266047Y-70723353D01*
X136199079Y-70711378D01*
X136131558Y-70702760D01*
X136063542Y-70697479D01*
X135995093Y-70695516D01*
X135926271Y-70696851D01*
X135857137Y-70701464D01*
X135787751Y-70709338D01*
X135718173Y-70720452D01*
X135648465Y-70734787D01*
X135578686Y-70752323D01*
X135508898Y-70773042D01*
X135439160Y-70796924D01*
X135369533Y-70823949D01*
X135230855Y-70887354D01*
X135093348Y-70963101D01*
X134957496Y-71051035D01*
X134823783Y-71151003D01*
X134692693Y-71262848D01*
X134564710Y-71386417D01*
X134440318Y-71521555D01*
X134434456Y-71528180D01*
X134428761Y-71534376D01*
X134423232Y-71540144D01*
X134417870Y-71545482D01*
X134412673Y-71550391D01*
X134407643Y-71554871D01*
X134402778Y-71558922D01*
X134398080Y-71562544D01*
X134393547Y-71565738D01*
X134389180Y-71568502D01*
X134384979Y-71570837D01*
X134380944Y-71572743D01*
X134377074Y-71574221D01*
X134373370Y-71575269D01*
X134369832Y-71575888D01*
X134366458Y-71576078D01*
X134363251Y-71575840D01*
X134360208Y-71575172D01*
X134357331Y-71574075D01*
X134354620Y-71572550D01*
X134352073Y-71570595D01*
X134349691Y-71568211D01*
X134347475Y-71565399D01*
X134345423Y-71562157D01*
X134343537Y-71558487D01*
X134341815Y-71554387D01*
X134340258Y-71549858D01*
X134338866Y-71544901D01*
X134337638Y-71539514D01*
X134336576Y-71533698D01*
X134335677Y-71527454D01*
X134334944Y-71520780D01*
X134333561Y-71507080D01*
X134332110Y-71494621D01*
X134330570Y-71483354D01*
X134329760Y-71478151D01*
X134328920Y-71473228D01*
X134328047Y-71468579D01*
X134327139Y-71464196D01*
X134326192Y-71460074D01*
X134325205Y-71456207D01*
X134324174Y-71452589D01*
X134323097Y-71449213D01*
X134321971Y-71446074D01*
X134320794Y-71443164D01*
X134319563Y-71440479D01*
X134318275Y-71438012D01*
X134316928Y-71435756D01*
X134315519Y-71433706D01*
X134314045Y-71431855D01*
X134312503Y-71430197D01*
X134310892Y-71428727D01*
X134309208Y-71427437D01*
X134307449Y-71426322D01*
X134305612Y-71425376D01*
X134303695Y-71424592D01*
X134301694Y-71423965D01*
X134299607Y-71423488D01*
X134297432Y-71423154D01*
X134295166Y-71422959D01*
X134292806Y-71422895D01*
X134283167Y-71423654D01*
X134270828Y-71425860D01*
X134256061Y-71429409D01*
X134239136Y-71434195D01*
X134199892Y-71447059D01*
X134155260Y-71463611D01*
X134107404Y-71483010D01*
X134058486Y-71504415D01*
X134010670Y-71526985D01*
X133966120Y-71549880D01*
X133925871Y-71570193D01*
X133907757Y-71578242D01*
X133890983Y-71584915D01*
X133875549Y-71590238D01*
X133861456Y-71594233D01*
X133848702Y-71596924D01*
X133837289Y-71598335D01*
X133827216Y-71598487D01*
X133818484Y-71597405D01*
X133811092Y-71595113D01*
X133805040Y-71591633D01*
X133800329Y-71586989D01*
X133796959Y-71581205D01*
X133794929Y-71574303D01*
X133794240Y-71566308D01*
X133794891Y-71557241D01*
X133796884Y-71547128D01*
X133800217Y-71535991D01*
X133804891Y-71523853D01*
X133810906Y-71510739D01*
X133818262Y-71496670D01*
X133836998Y-71465766D01*
X133861098Y-71431328D01*
X133890563Y-71393542D01*
X133925393Y-71352597D01*
X133965589Y-71308678D01*
X133999577Y-71272617D01*
X134013134Y-71257996D01*
X134024504Y-71245419D01*
X134033763Y-71234714D01*
X134037625Y-71230010D01*
X134040989Y-71225709D01*
X134043865Y-71221790D01*
X134046261Y-71218232D01*
X134048187Y-71215014D01*
X134049654Y-71212112D01*
X134050671Y-71209507D01*
X134051247Y-71207177D01*
X134051374Y-71206108D01*
X134051393Y-71205100D01*
X134051308Y-71204149D01*
X134051118Y-71203254D01*
X134050826Y-71202412D01*
X134050431Y-71201619D01*
X134049937Y-71200873D01*
X134049343Y-71200172D01*
X134047863Y-71198893D01*
X134046001Y-71197759D01*
X134043766Y-71196750D01*
X134041169Y-71195844D01*
X134038218Y-71195019D01*
X134034924Y-71194254D01*
X134027344Y-71192817D01*
X134018506Y-71191362D01*
X133999528Y-71188281D01*
X133982831Y-71185495D01*
X133968279Y-71182939D01*
X133955732Y-71180550D01*
X133950166Y-71179397D01*
X133945051Y-71178262D01*
X133940367Y-71177136D01*
X133936097Y-71176011D01*
X133932225Y-71174879D01*
X133928733Y-71173732D01*
X133925603Y-71172562D01*
X133922818Y-71171361D01*
X133920362Y-71170120D01*
X133918216Y-71168832D01*
X133916363Y-71167489D01*
X133914786Y-71166082D01*
X133913468Y-71164604D01*
X133912391Y-71163046D01*
X133911537Y-71161400D01*
X133910891Y-71159659D01*
X133910433Y-71157813D01*
X133910148Y-71155856D01*
X133910017Y-71153778D01*
X133910023Y-71151573D01*
X133910149Y-71149231D01*
X133910377Y-71146745D01*
X133911073Y-71141308D01*
X133911845Y-71136815D01*
X133912863Y-71132757D01*
X133914195Y-71129103D01*
X133915909Y-71125820D01*
X133918071Y-71122878D01*
X133920750Y-71120244D01*
X133924013Y-71117886D01*
X133927928Y-71115774D01*
X133932561Y-71113874D01*
X133937981Y-71112157D01*
X133944255Y-71110589D01*
X133951450Y-71109139D01*
X133959635Y-71107776D01*
X133968876Y-71106468D01*
X133990799Y-71103889D01*
X134003457Y-71102257D01*
X134016374Y-71100073D01*
X134029493Y-71097373D01*
X134042755Y-71094192D01*
X134056102Y-71090565D01*
X134069477Y-71086528D01*
X134096078Y-71077366D01*
X134122094Y-71066986D01*
X134147062Y-71055673D01*
X134170519Y-71043710D01*
X134192001Y-71031378D01*
X134211045Y-71018962D01*
X134219508Y-71012811D01*
X134227188Y-71006744D01*
X134234027Y-71000798D01*
X134239967Y-70995007D01*
X134244950Y-70989407D01*
X134248918Y-70984034D01*
X134251813Y-70978922D01*
X134253577Y-70974107D01*
X134254153Y-70969625D01*
X134253482Y-70965511D01*
X134251507Y-70961799D01*
X134248170Y-70958526D01*
X134243412Y-70955727D01*
X134237177Y-70953438D01*
X134205729Y-70943846D01*
X134177988Y-70934365D01*
X134153973Y-70925039D01*
X134143368Y-70920448D01*
X134133702Y-70915914D01*
X134124976Y-70911441D01*
X134117194Y-70907036D01*
X134110358Y-70902703D01*
X134104469Y-70898449D01*
X134099531Y-70894280D01*
X134095545Y-70890200D01*
X134092515Y-70886216D01*
X134090441Y-70882334D01*
X134089328Y-70878558D01*
X134089177Y-70874895D01*
X134089990Y-70871351D01*
X134091770Y-70867931D01*
X134094519Y-70864640D01*
X134098239Y-70861485D01*
X134102934Y-70858471D01*
X134108605Y-70855604D01*
X134115255Y-70852889D01*
X134122885Y-70850332D01*
X134131499Y-70847939D01*
X134141099Y-70845716D01*
X134151687Y-70843668D01*
X134163265Y-70841800D01*
X134175836Y-70840119D01*
X134189402Y-70838631D01*
X134204665Y-70836980D01*
X134219484Y-70835098D01*
X134233839Y-70832997D01*
X134247708Y-70830690D01*
X134261072Y-70828190D01*
X134273908Y-70825510D01*
X134286197Y-70822664D01*
X134297918Y-70819663D01*
X134309050Y-70816522D01*
X134319572Y-70813252D01*
X134329464Y-70809868D01*
X134338705Y-70806381D01*
X134347274Y-70802805D01*
X134355150Y-70799153D01*
X134362313Y-70795438D01*
X134368742Y-70791673D01*
X134374416Y-70787870D01*
X134379314Y-70784043D01*
X134383416Y-70780205D01*
X134386701Y-70776368D01*
X134389149Y-70772546D01*
X134390052Y-70770645D01*
X134390738Y-70768752D01*
X134391204Y-70766869D01*
X134391447Y-70764998D01*
X134391466Y-70763140D01*
X134391257Y-70761297D01*
X134390818Y-70759471D01*
X134390146Y-70757663D01*
X134389239Y-70755875D01*
X134388094Y-70754109D01*
X134386708Y-70752366D01*
X134385079Y-70750647D01*
X134381082Y-70747290D01*
X134376080Y-70744052D01*
X134370055Y-70740944D01*
X134362984Y-70737981D01*
X134354848Y-70735176D01*
X134324460Y-70725091D01*
X134297804Y-70715124D01*
X134285881Y-70710208D01*
X134274898Y-70705349D01*
X134264858Y-70700556D01*
X134255763Y-70695839D01*
X134247615Y-70691206D01*
X134240417Y-70686668D01*
X134234170Y-70682232D01*
X134228879Y-70677909D01*
X134224544Y-70673707D01*
X134221168Y-70669635D01*
X134218754Y-70665704D01*
X134217304Y-70661921D01*
X134216821Y-70658296D01*
X134217306Y-70654839D01*
X134218763Y-70651558D01*
X134221193Y-70648463D01*
X134224599Y-70645563D01*
X134228984Y-70642866D01*
X134234350Y-70640383D01*
X134240699Y-70638123D01*
X134248033Y-70636094D01*
X134256355Y-70634305D01*
X134265668Y-70632767D01*
X134275974Y-70631488D01*
X134287275Y-70630477D01*
X134299574Y-70629743D01*
X134312872Y-70629296D01*
X134327173Y-70629145D01*
X134368382Y-70628794D01*
X134384792Y-70627909D01*
X134398523Y-70626152D01*
X134404411Y-70624853D01*
X134409663Y-70623226D01*
X134414289Y-70621231D01*
X134418300Y-70618833D01*
X134421707Y-70615993D01*
X134424522Y-70612674D01*
X134426755Y-70608840D01*
X134428418Y-70604453D01*
X134429520Y-70599475D01*
X134430074Y-70593870D01*
X134430090Y-70587599D01*
X134429653Y-70581619D01*
X134546181Y-70581619D01*
X134546232Y-70586388D01*
X134546410Y-70590724D01*
X134546721Y-70594638D01*
X134547172Y-70598142D01*
X134547772Y-70601245D01*
X134548526Y-70603958D01*
X134549441Y-70606292D01*
X134550526Y-70608258D01*
X134551786Y-70609867D01*
X134553229Y-70611128D01*
X134554861Y-70612053D01*
X134556690Y-70612653D01*
X134558723Y-70612938D01*
X134560967Y-70612919D01*
X134563429Y-70612606D01*
X134566115Y-70612011D01*
X134569033Y-70611144D01*
X134572190Y-70610015D01*
X134575593Y-70608635D01*
X134579248Y-70607016D01*
X134587346Y-70603100D01*
X134596539Y-70598352D01*
X134760621Y-70512889D01*
X134910683Y-70436525D01*
X135046417Y-70369402D01*
X135167516Y-70311664D01*
X135273674Y-70263453D01*
X135364584Y-70224913D01*
X135404225Y-70209314D01*
X135439938Y-70196187D01*
X135471686Y-70185549D01*
X135499430Y-70177418D01*
X135523470Y-70171005D01*
X135532992Y-70168226D01*
X135540918Y-70165495D01*
X135544300Y-70164093D01*
X135547303Y-70162635D01*
X135549933Y-70161101D01*
X135552198Y-70159468D01*
X135554103Y-70157714D01*
X135555656Y-70155817D01*
X135556864Y-70153754D01*
X135557732Y-70151503D01*
X135558267Y-70149043D01*
X135558476Y-70146350D01*
X135558366Y-70143404D01*
X135557943Y-70140180D01*
X135557214Y-70136658D01*
X135556185Y-70132816D01*
X135553255Y-70124079D01*
X135549206Y-70113792D01*
X135544091Y-70101778D01*
X135530873Y-70071859D01*
X135466216Y-69909954D01*
X135405911Y-69727726D01*
X135350115Y-69526705D01*
X135298983Y-69308423D01*
X135252672Y-69074409D01*
X135211337Y-68826194D01*
X135144218Y-68293285D01*
X135098875Y-67721938D01*
X135076554Y-67124399D01*
X135078502Y-66512911D01*
X135105966Y-65899718D01*
X135107964Y-65869268D01*
X135109222Y-65847112D01*
X135109523Y-65839023D01*
X135109578Y-65832862D01*
X135109368Y-65828581D01*
X135109158Y-65827130D01*
X135108873Y-65826131D01*
X135108511Y-65825578D01*
X135108071Y-65825464D01*
X135107549Y-65825784D01*
X135106943Y-65826531D01*
X135105469Y-65829285D01*
X135103628Y-65833676D01*
X135101401Y-65839656D01*
X135098767Y-65847176D01*
X135092198Y-65866645D01*
X135029388Y-66110024D01*
X134962096Y-66471649D01*
X134892226Y-66935586D01*
X134821681Y-67485902D01*
X134752363Y-68106662D01*
X134686175Y-68781933D01*
X134625021Y-69495780D01*
X134570803Y-70232270D01*
X134558834Y-70403319D01*
X134549492Y-70526619D01*
X134549491Y-70526619D01*
X134548143Y-70543327D01*
X134547104Y-70558006D01*
X134546432Y-70570742D01*
X134546181Y-70581619D01*
X134429653Y-70581619D01*
X134429580Y-70580627D01*
X134427023Y-70564427D01*
X134422491Y-70544971D01*
X134416072Y-70521962D01*
X134407854Y-70495101D01*
X134386375Y-70428631D01*
X134317367Y-70206319D01*
X134248028Y-69962291D01*
X134179777Y-69702583D01*
X134114034Y-69433234D01*
X134052219Y-69160282D01*
X133995754Y-68889764D01*
X133946057Y-68627720D01*
X133904550Y-68380187D01*
X133888981Y-68287099D01*
X133876829Y-68240308D01*
X133874259Y-68237103D01*
X133871859Y-68237632D01*
X133867532Y-68250562D01*
X133860526Y-68328610D01*
X133855249Y-68485201D01*
X133851139Y-68731085D01*
X133844166Y-69533728D01*
X133841472Y-69901059D01*
X133839020Y-70183478D01*
X133837791Y-70296373D01*
X133836511Y-70392271D01*
X133835143Y-70472585D01*
X133833649Y-70538724D01*
X133831992Y-70592100D01*
X133830135Y-70634124D01*
X133829120Y-70651319D01*
X133828041Y-70666205D01*
X133826893Y-70678959D01*
X133825673Y-70689756D01*
X133824374Y-70698773D01*
X133822993Y-70706186D01*
X133821524Y-70712172D01*
X133819964Y-70716907D01*
X133818307Y-70720567D01*
X133816549Y-70723329D01*
X133814686Y-70725369D01*
X133812712Y-70726863D01*
X133803371Y-70732104D01*
X133794612Y-70735322D01*
X133786230Y-70736109D01*
X133778019Y-70734052D01*
X133769772Y-70728741D01*
X133761284Y-70719766D01*
X133752349Y-70706715D01*
X133742762Y-70689178D01*
X133732315Y-70666745D01*
X133720804Y-70639004D01*
X133693765Y-70565957D01*
X133659997Y-70466751D01*
X133617854Y-70338102D01*
X133596150Y-70272829D01*
X133581353Y-70233270D01*
X133576627Y-70223949D01*
X133574947Y-70222046D01*
X133573726Y-70222035D01*
X133572682Y-70227854D01*
X131178192Y-70227854D01*
X131121219Y-69841420D01*
X131055183Y-69276886D01*
X131011472Y-68743989D01*
X130990405Y-68400367D01*
X130986361Y-68349059D01*
X130982285Y-68310948D01*
X130977918Y-68285715D01*
X130975543Y-68277827D01*
X130972999Y-68273038D01*
X130970251Y-68271309D01*
X130967268Y-68272599D01*
X130964017Y-68276868D01*
X130960466Y-68284076D01*
X130952331Y-68307149D01*
X130942604Y-68341497D01*
X130882572Y-68585239D01*
X130782837Y-69006651D01*
X130686555Y-69450017D01*
X130595318Y-69906288D01*
X130510718Y-70366415D01*
X130434346Y-70821349D01*
X130367795Y-71262042D01*
X130312657Y-71679445D01*
X130270522Y-72064510D01*
X130261823Y-72142972D01*
X130252291Y-72205821D01*
X130241941Y-72253098D01*
X130230791Y-72284843D01*
X130224920Y-72294904D01*
X130218855Y-72301098D01*
X130212598Y-72303429D01*
X130206150Y-72301902D01*
X130199513Y-72296524D01*
X130192690Y-72287298D01*
X130178493Y-72257326D01*
X130163574Y-72212026D01*
X130147948Y-72151440D01*
X130131632Y-72075609D01*
X130114640Y-71984572D01*
X130078697Y-71757049D01*
X130040244Y-71469197D01*
X129993816Y-71033952D01*
X129962697Y-70596365D01*
X129946765Y-70157259D01*
X129945893Y-69717460D01*
X129959957Y-69277791D01*
X129988833Y-68839079D01*
X130032397Y-68402146D01*
X130090524Y-67967819D01*
X130163088Y-67536922D01*
X130249966Y-67110279D01*
X130351034Y-66688714D01*
X130466166Y-66273054D01*
X130595238Y-65864122D01*
X130738125Y-65462743D01*
X130894703Y-65069741D01*
X131064848Y-64685942D01*
X131067573Y-64682850D01*
X131072738Y-64679792D01*
X131089729Y-64673818D01*
X131114494Y-64668105D01*
X131145707Y-64662736D01*
X131182042Y-64657796D01*
X131222174Y-64653369D01*
X131308523Y-64646389D01*
X131394148Y-64642468D01*
X131433373Y-64641865D01*
X131468440Y-64642279D01*
X131498023Y-64643794D01*
X131520795Y-64646494D01*
X131535430Y-64650464D01*
X131539282Y-64652950D01*
X131540603Y-64655786D01*
X131536895Y-64673630D01*
X131526798Y-64717616D01*
X131493606Y-64857531D01*
X131442003Y-65082655D01*
X131395261Y-65308179D01*
X131353412Y-65533593D01*
X131316490Y-65758388D01*
X131284530Y-65982055D01*
X131257565Y-66204086D01*
X131235628Y-66423972D01*
X131218754Y-66641204D01*
X131206977Y-66855273D01*
X131200330Y-67065671D01*
X131198847Y-67271888D01*
X131202562Y-67473416D01*
X131211508Y-67669746D01*
X131225720Y-67860369D01*
X131245231Y-68044777D01*
X131270075Y-68222460D01*
X131279395Y-68279181D01*
X131289332Y-68335499D01*
X131299770Y-68390964D01*
X131310591Y-68445126D01*
X131321680Y-68497537D01*
X131332918Y-68547747D01*
X131344191Y-68595306D01*
X131355380Y-68639767D01*
X131366370Y-68680679D01*
X131377044Y-68717594D01*
X131387284Y-68750062D01*
X131396974Y-68777634D01*
X131405998Y-68799861D01*
X131414239Y-68816293D01*
X131418030Y-68822196D01*
X131421580Y-68826482D01*
X131424877Y-68829095D01*
X131427905Y-68829978D01*
X131431658Y-68829800D01*
X131435029Y-68828926D01*
X131438100Y-68826849D01*
X131440955Y-68823062D01*
X131443676Y-68817058D01*
X131446347Y-68808329D01*
X131451869Y-68780667D01*
X131458187Y-68736018D01*
X131465964Y-68670323D01*
X131488554Y-68459562D01*
X131555912Y-67884995D01*
X131634434Y-67330968D01*
X131722841Y-66803519D01*
X131819854Y-66308690D01*
X131924194Y-65852520D01*
X131978712Y-65640820D01*
X132034583Y-65441050D01*
X132091646Y-65253965D01*
X132149741Y-65080320D01*
X132208709Y-64920871D01*
X132268389Y-64776371D01*
X132273936Y-64765181D01*
X132280631Y-64754167D01*
X132288382Y-64743364D01*
X132297095Y-64732804D01*
X132306677Y-64722522D01*
X132317037Y-64712550D01*
X132328080Y-64702924D01*
X132339714Y-64693676D01*
X132351847Y-64684840D01*
X132364384Y-64676449D01*
X132377233Y-64668538D01*
X132390302Y-64661140D01*
X132403497Y-64654288D01*
X132416726Y-64648017D01*
X132429895Y-64642360D01*
X132442911Y-64637350D01*
X132455683Y-64633021D01*
X132468116Y-64629407D01*
X132480118Y-64626542D01*
X132491596Y-64624459D01*
X132502457Y-64623191D01*
X132512608Y-64622773D01*
X132521957Y-64623239D01*
X132530410Y-64624620D01*
X132537874Y-64626952D01*
X132544257Y-64630268D01*
X132549465Y-64634602D01*
X132553406Y-64639987D01*
X132555987Y-64646457D01*
X132557115Y-64654046D01*
X132556697Y-64662786D01*
X132554640Y-64672713D01*
X132545064Y-64719987D01*
X132526717Y-64822803D01*
X132467701Y-65172114D01*
X132405844Y-65576038D01*
X132356286Y-65965735D01*
X132319237Y-66337272D01*
X132294905Y-66686716D01*
X132283500Y-67010131D01*
X132282710Y-67160849D01*
X132285230Y-67303585D01*
X132291086Y-67437848D01*
X132300304Y-67563144D01*
X132312911Y-67678984D01*
X132328932Y-67784874D01*
X132335939Y-67823001D01*
X132342831Y-67857129D01*
X132349607Y-67887255D01*
X132356264Y-67913378D01*
X132362803Y-67935495D01*
X132366027Y-67945051D01*
X132369220Y-67953605D01*
X132372383Y-67961156D01*
X132375515Y-67967705D01*
X132378616Y-67973251D01*
X132381686Y-67977794D01*
X132384725Y-67981334D01*
X132387732Y-67983870D01*
X132390707Y-67985402D01*
X132393650Y-67985930D01*
X132396561Y-67985454D01*
X132399440Y-67983973D01*
X132402287Y-67981487D01*
X132405101Y-67977997D01*
X132407881Y-67973501D01*
X132410629Y-67967999D01*
X132413344Y-67961492D01*
X132416025Y-67953978D01*
X132418673Y-67945458D01*
X132421287Y-67935932D01*
X132423867Y-67925399D01*
X132426412Y-67913859D01*
X132543354Y-67377165D01*
X132662334Y-66870204D01*
X132781942Y-66397899D01*
X132900764Y-65965175D01*
X133017390Y-65576955D01*
X133130407Y-65238162D01*
X133185120Y-65088840D01*
X133238402Y-64953721D01*
X133290075Y-64833421D01*
X133339964Y-64728555D01*
X133347142Y-64719652D01*
X133359274Y-64711126D01*
X133376018Y-64702990D01*
X133397030Y-64695254D01*
X133450487Y-64681039D01*
X133516902Y-64668581D01*
X133593533Y-64657979D01*
X133677635Y-64649334D01*
X133766466Y-64642747D01*
X133857281Y-64638317D01*
X133947338Y-64636144D01*
X134033894Y-64636329D01*
X134114205Y-64638972D01*
X134185527Y-64644172D01*
X134245117Y-64652031D01*
X134290233Y-64662648D01*
X134306505Y-64669022D01*
X134318130Y-64676123D01*
X134324765Y-64683964D01*
X134326066Y-64692557D01*
X134295746Y-64907332D01*
X134262019Y-65195229D01*
X134227658Y-65525358D01*
X134195434Y-65866833D01*
X134168119Y-66188766D01*
X134148486Y-66460269D01*
X134139306Y-66650454D01*
X134139502Y-66705401D01*
X134143351Y-66728435D01*
X134149687Y-66734080D01*
X134155720Y-66737938D01*
X134158640Y-66739164D01*
X134161506Y-66739903D01*
X134164324Y-66740143D01*
X134167100Y-66739870D01*
X134169842Y-66739072D01*
X134172557Y-66737736D01*
X134175251Y-66735847D01*
X134177931Y-66733394D01*
X134183277Y-66726742D01*
X134188651Y-66717673D01*
X134194107Y-66706083D01*
X134199700Y-66691867D01*
X134205485Y-66674922D01*
X134211517Y-66655141D01*
X134217850Y-66632421D01*
X134224540Y-66606657D01*
X134239209Y-66545576D01*
X134314210Y-66229714D01*
X134394244Y-65907518D01*
X134475331Y-65593518D01*
X134553489Y-65302243D01*
X134624738Y-65048223D01*
X134685097Y-64845987D01*
X134730585Y-64710064D01*
X134746508Y-64671511D01*
X134757221Y-64654984D01*
X134758811Y-64654089D01*
X134759551Y-64653741D01*
X134760253Y-64653459D01*
X134760918Y-64653244D01*
X134761545Y-64653093D01*
X134762134Y-64653008D01*
X134762685Y-64652988D01*
X134763198Y-64653032D01*
X134763673Y-64653140D01*
X134764109Y-64653312D01*
X134764507Y-64653548D01*
X134764866Y-64653846D01*
X134765187Y-64654208D01*
X134765468Y-64654631D01*
X134765710Y-64655117D01*
X134765913Y-64655665D01*
X134766076Y-64656274D01*
X134766200Y-64656944D01*
X134766284Y-64657674D01*
X134766332Y-64659317D01*
X134766219Y-64661198D01*
X134765945Y-64663315D01*
X134765507Y-64665666D01*
X134764906Y-64668247D01*
X134764139Y-64671056D01*
X134758362Y-64696579D01*
X134753187Y-64730606D01*
X134744708Y-64819484D01*
X134738834Y-64928308D01*
X134735700Y-65047699D01*
X134735437Y-65168275D01*
X134738178Y-65280657D01*
X134744057Y-65375462D01*
X134748214Y-65413343D01*
X134753205Y-65443312D01*
X134755223Y-65452048D01*
X134757414Y-65460030D01*
X134759765Y-65467268D01*
X134762263Y-65473770D01*
X134764896Y-65479543D01*
X134767649Y-65484597D01*
X134770509Y-65488939D01*
X134773464Y-65492578D01*
X134776499Y-65495522D01*
X134779602Y-65497779D01*
X134782760Y-65499357D01*
X134785958Y-65500266D01*
X134789184Y-65500512D01*
X134792425Y-65500104D01*
X134795667Y-65499051D01*
X134798898Y-65497361D01*
X134802102Y-65495042D01*
X134805269Y-65492102D01*
X134808384Y-65488549D01*
X134811433Y-65484393D01*
X134814405Y-65479640D01*
X134817285Y-65474300D01*
X134820060Y-65468381D01*
X134822717Y-65461890D01*
X134825243Y-65454836D01*
X134827624Y-65447228D01*
X134831900Y-65430381D01*
X134835439Y-65411415D01*
X134838134Y-65390395D01*
X134863875Y-65145784D01*
X134876034Y-65046826D01*
X134888756Y-64961986D01*
X134895571Y-64924520D01*
X134902818Y-64890175D01*
X134910594Y-64858817D01*
X134918997Y-64830309D01*
X134928124Y-64804515D01*
X134938071Y-64781300D01*
X134948937Y-64760528D01*
X134960818Y-64742063D01*
X134973811Y-64725769D01*
X134988014Y-64711510D01*
X135003524Y-64699150D01*
X135020438Y-64688555D01*
X135038853Y-64679587D01*
X135058867Y-64672112D01*
X135080576Y-64665993D01*
X135104078Y-64661095D01*
X135129469Y-64657281D01*
X135156848Y-64654416D01*
X135217956Y-64650990D01*
X135288179Y-64649730D01*
X135368293Y-64649549D01*
X135499996Y-64650154D01*
X135553264Y-64651598D01*
X135598916Y-64654413D01*
X135619066Y-64656476D01*
X135637529Y-64659054D01*
X135654377Y-64662202D01*
X135669682Y-64665978D01*
X135683516Y-64670439D01*
X135695952Y-64675643D01*
X135707062Y-64681645D01*
X135716919Y-64688503D01*
X135725594Y-64696275D01*
X135733161Y-64705017D01*
X135739690Y-64714787D01*
X135745255Y-64725641D01*
X135749928Y-64737637D01*
X135753781Y-64750831D01*
X135756887Y-64765281D01*
X135759318Y-64781044D01*
X135761145Y-64798176D01*
X135762442Y-64816736D01*
X135763733Y-64858364D01*
X135763768Y-64906386D01*
X135763127Y-64961256D01*
X135763216Y-65057118D01*
X135765787Y-65160001D01*
X135770599Y-65267982D01*
X135777409Y-65379139D01*
X135796056Y-65603283D01*
X135819789Y-65817048D01*
X135846669Y-66005046D01*
X135860684Y-66084574D01*
X135874759Y-66151890D01*
X135888652Y-66205072D01*
X135902120Y-66242195D01*
X135908619Y-66254134D01*
X135914921Y-66261337D01*
X135920996Y-66263564D01*
X135926813Y-66260574D01*
X135927487Y-66258290D01*
X135927994Y-66253059D01*
X135928522Y-66234376D01*
X135927736Y-66168484D01*
X135924692Y-66072844D01*
X135919625Y-65957405D01*
X135912368Y-65780638D01*
X135908195Y-65609354D01*
X135907083Y-65444658D01*
X135909005Y-65287656D01*
X135913937Y-65139454D01*
X135921855Y-65001157D01*
X135932734Y-64873872D01*
X135946548Y-64758703D01*
X135951913Y-64722678D01*
X135954685Y-64708103D01*
X135957853Y-64695606D01*
X135959663Y-64690087D01*
X135961667Y-64685027D01*
X135963895Y-64680408D01*
X135966379Y-64676208D01*
X135969150Y-64672407D01*
X135972240Y-64668987D01*
X135975680Y-64665926D01*
X135979502Y-64663205D01*
X135983737Y-64660803D01*
X135988417Y-64658701D01*
X135993573Y-64656880D01*
X135999236Y-64655317D01*
X136005437Y-64653995D01*
X136012209Y-64652893D01*
X136027590Y-64651267D01*
X136045629Y-64650281D01*
X136066577Y-64649775D01*
X136118209Y-64649562D01*
X136176302Y-64649026D01*
X136199188Y-64648874D01*
X136218463Y-64649261D01*
X136234498Y-64650530D01*
X136241417Y-64651603D01*
X136247666Y-64653027D01*
X136253292Y-64654845D01*
X136258340Y-64657099D01*
X136262857Y-64659833D01*
X136266891Y-64663090D01*
X136270486Y-64666913D01*
X136273691Y-64671345D01*
X136276550Y-64676429D01*
X136279112Y-64682210D01*
X136281422Y-64688728D01*
X136283527Y-64696029D01*
X136287308Y-64713150D01*
X136290826Y-64733916D01*
X136294455Y-64758673D01*
X136303530Y-64821541D01*
X136396707Y-65382122D01*
X136509106Y-65974846D01*
X136635107Y-66576142D01*
X136769091Y-67162441D01*
X136905440Y-67710169D01*
X137038534Y-68195757D01*
X137162754Y-68595632D01*
X137219781Y-68756062D01*
X137272482Y-68886225D01*
X137283123Y-68906228D01*
X137287544Y-68909646D01*
X137291430Y-68907523D01*
X137294827Y-68898995D01*
X137297781Y-68883199D01*
X137302550Y-68826347D01*
X137306115Y-68730057D01*
X137308851Y-68587417D01*
X137313340Y-68135447D01*
X137315935Y-67865846D01*
X137319238Y-67639128D01*
X137323515Y-67449000D01*
X137329033Y-67289171D01*
X137336060Y-67153350D01*
X137344862Y-67035244D01*
X137355706Y-66928563D01*
X137368860Y-66827015D01*
X137374415Y-66785497D01*
X137378557Y-66747963D01*
X137381321Y-66712800D01*
X137382743Y-66678397D01*
X137382859Y-66643140D01*
X137381704Y-66605418D01*
X137379313Y-66563619D01*
X137375723Y-66516129D01*
X137358001Y-66250299D01*
X137346919Y-65973719D01*
X137342289Y-65696822D01*
X137343921Y-65430041D01*
X137351624Y-65183807D01*
X137365209Y-64968553D01*
X137374148Y-64875803D01*
X137384487Y-64794711D01*
X137396200Y-64726579D01*
X137409266Y-64672713D01*
X137410616Y-64669165D01*
X137412459Y-64665883D01*
X137414757Y-64662864D01*
X137417473Y-64660106D01*
X137420571Y-64657606D01*
X137424015Y-64655362D01*
X137427766Y-64653372D01*
X137431789Y-64651634D01*
X137436046Y-64650145D01*
X137440501Y-64648903D01*
X137445118Y-64647905D01*
X137449858Y-64647149D01*
X137454685Y-64646634D01*
X137459563Y-64646356D01*
X137464455Y-64646313D01*
X137469324Y-64646503D01*
X137474133Y-64646924D01*
X137478845Y-64647573D01*
X137483424Y-64648448D01*
X137487832Y-64649546D01*
X137492034Y-64650866D01*
X137495991Y-64652405D01*
X137499668Y-64654161D01*
X137503027Y-64656131D01*
X137506032Y-64658313D01*
X137508645Y-64660704D01*
X137510831Y-64663303D01*
X137512552Y-64666107D01*
X137513772Y-64669114D01*
X137514453Y-64672321D01*
X137514559Y-64675727D01*
X137514053Y-64679328D01*
X137492470Y-64783260D01*
X137474907Y-64885308D01*
X137461020Y-64989934D01*
X137450463Y-65101600D01*
X137442892Y-65224767D01*
X137437962Y-65363897D01*
X137435330Y-65523453D01*
X137434651Y-65707895D01*
X137436530Y-66025284D01*
X137443788Y-66289004D01*
X137450498Y-66407393D01*
X137459830Y-66520353D01*
X137472208Y-66630544D01*
X137488060Y-66740630D01*
X137507809Y-66853273D01*
X137531883Y-66971136D01*
X137594703Y-67233168D01*
X137679925Y-67548026D01*
X137790953Y-67937010D01*
X137956954Y-68502723D01*
X138032163Y-68751907D01*
X138101932Y-68977980D01*
X138166078Y-69180445D01*
X138224414Y-69358805D01*
X138276758Y-69512564D01*
X138322924Y-69641224D01*
X138362729Y-69744289D01*
X138395988Y-69821260D01*
X138410105Y-69849806D01*
X138422516Y-69871643D01*
X138433199Y-69886707D01*
X138442130Y-69894939D01*
X138445931Y-69896472D01*
X138449286Y-69896274D01*
X138452191Y-69894336D01*
X138454644Y-69890651D01*
X138458182Y-69878008D01*
X138459875Y-69858283D01*
X138459702Y-69831414D01*
X138457638Y-69797338D01*
X138447749Y-69707318D01*
X138422554Y-69507061D01*
X138400639Y-69319458D01*
X138343694Y-68716352D01*
X138306128Y-68127027D01*
X138287828Y-67557163D01*
X138288683Y-67012441D01*
X138296259Y-66751283D01*
X138308582Y-66498540D01*
X138325638Y-66254923D01*
X138347413Y-66021142D01*
X138373894Y-65797906D01*
X138405066Y-65585926D01*
X138440915Y-65385911D01*
X138481428Y-65198572D01*
X138501714Y-65112427D01*
X138517322Y-65052648D01*
X138523999Y-65033626D01*
X138530257Y-65022373D01*
X138533308Y-65019783D01*
X138536348Y-65019282D01*
X138539409Y-65020919D01*
X138542521Y-65024744D01*
X138549029Y-65039152D01*
X138556120Y-65062899D01*
X138564045Y-65096377D01*
X138573055Y-65139979D01*
X138624951Y-65423468D01*
X138681207Y-65722999D01*
X138738735Y-66006320D01*
X138797043Y-66271463D01*
X138855641Y-66516464D01*
X138914036Y-66739355D01*
X138971737Y-66938170D01*
X139028253Y-67110943D01*
X139055912Y-67186949D01*
X139083090Y-67255708D01*
X139101151Y-67298195D01*
X139117868Y-67335259D01*
X139133145Y-67366877D01*
X139146882Y-67393027D01*
X139158984Y-67413686D01*
X139169353Y-67428834D01*
X139173857Y-67434333D01*
X139177890Y-67438447D01*
X139181442Y-67441171D01*
X139184499Y-67442503D01*
X139187050Y-67442441D01*
X139189082Y-67440981D01*
X139190583Y-67438121D01*
X139191541Y-67433859D01*
X139191944Y-67428190D01*
X139191780Y-67421113D01*
X139189699Y-67402723D01*
X139185202Y-67378667D01*
X139178192Y-67348921D01*
X139168571Y-67313464D01*
X139156240Y-67272274D01*
X139105833Y-67102327D01*
X139058454Y-66926030D01*
X139014075Y-66743255D01*
X138972672Y-66553873D01*
X138934217Y-66357759D01*
X138898683Y-66154784D01*
X138866045Y-65944819D01*
X138836276Y-65727739D01*
X138828336Y-65660428D01*
X138820266Y-65582004D01*
X138804798Y-65405214D01*
X138791990Y-65224165D01*
X138787245Y-65140415D01*
X138783959Y-65065649D01*
X138780508Y-64975618D01*
X138776682Y-64886488D01*
X138772947Y-64808549D01*
X138769766Y-64752088D01*
X138769569Y-64740502D01*
X138770468Y-64729410D01*
X138772394Y-64718827D01*
X138775280Y-64708771D01*
X138779056Y-64699256D01*
X138783654Y-64690299D01*
X138789006Y-64681916D01*
X138795043Y-64674124D01*
X138801697Y-64666937D01*
X138808899Y-64660372D01*
X138816581Y-64654445D01*
X138824675Y-64649173D01*
X138833111Y-64644570D01*
X138841821Y-64640654D01*
X138850738Y-64637441D01*
X138859792Y-64634945D01*
X138868915Y-64633184D01*
X138878039Y-64632173D01*
X138887094Y-64631928D01*
X138896013Y-64632466D01*
X138904727Y-64633802D01*
X138913168Y-64635953D01*
X138921267Y-64638934D01*
X138928956Y-64642762D01*
X138936166Y-64647453D01*
X138942829Y-64653022D01*
X138948876Y-64659486D01*
X138954238Y-64666860D01*
X138958848Y-64675161D01*
X138962637Y-64684405D01*
X138965536Y-64694608D01*
X138967478Y-64705786D01*
X138991105Y-64881934D01*
X139018309Y-65055822D01*
X139049216Y-65227846D01*
X139083949Y-65398399D01*
X139122636Y-65567876D01*
X139165399Y-65736672D01*
X139212366Y-65905181D01*
X139263659Y-66073799D01*
X139319406Y-66242919D01*
X139379730Y-66412937D01*
X139444757Y-66584247D01*
X139514612Y-66757243D01*
X139589420Y-66932321D01*
X139669306Y-67109875D01*
X139844812Y-67473989D01*
X139913679Y-67609698D01*
X139965677Y-67708044D01*
X139985633Y-67743348D01*
X140001709Y-67769481D01*
X140014018Y-67786500D01*
X140018795Y-67791609D01*
X140022673Y-67794461D01*
X140025665Y-67795062D01*
X140027787Y-67793421D01*
X140029051Y-67789543D01*
X140029471Y-67783436D01*
X140027840Y-67764564D01*
X140026679Y-67757912D01*
X140747812Y-67757912D01*
X140748478Y-67777487D01*
X140751360Y-67805187D01*
X140762874Y-67884820D01*
X140780553Y-67996541D01*
X140818637Y-68222083D01*
X140861907Y-68449315D01*
X140910307Y-68678009D01*
X140963782Y-68907936D01*
X141022277Y-69138867D01*
X141085735Y-69370573D01*
X141154101Y-69602825D01*
X141227320Y-69835395D01*
X141251140Y-69907436D01*
X141261564Y-69936565D01*
X141271536Y-69961518D01*
X141276478Y-69972526D01*
X141281458Y-69982607D01*
X141286527Y-69991800D01*
X141291734Y-70000145D01*
X141297132Y-70007681D01*
X141302769Y-70014446D01*
X141308696Y-70020481D01*
X141314964Y-70025823D01*
X141321624Y-70030513D01*
X141328724Y-70034589D01*
X141336317Y-70038090D01*
X141344453Y-70041056D01*
X141353181Y-70043526D01*
X141362553Y-70045539D01*
X141372618Y-70047133D01*
X141383427Y-70048349D01*
X141407481Y-70049801D01*
X141435116Y-70050207D01*
X141502746Y-70049134D01*
X141584586Y-70048799D01*
X141666264Y-70051384D01*
X141747262Y-70056826D01*
X141827062Y-70065062D01*
X141905146Y-70076030D01*
X141980999Y-70089666D01*
X142054101Y-70105907D01*
X142089459Y-70114985D01*
X142123936Y-70124690D01*
X142164399Y-70137127D01*
X142211005Y-70152270D01*
X142257990Y-70168205D01*
X142299590Y-70183019D01*
X142308665Y-70186303D01*
X142317367Y-70189342D01*
X142325657Y-70192127D01*
X142333495Y-70194649D01*
X142340842Y-70196897D01*
X142347656Y-70198864D01*
X142353897Y-70200539D01*
X142359527Y-70201915D01*
X142364504Y-70202980D01*
X142368789Y-70203727D01*
X142372342Y-70204145D01*
X142373831Y-70204229D01*
X142375122Y-70204227D01*
X142376210Y-70204138D01*
X142377090Y-70203962D01*
X142377756Y-70203697D01*
X142378205Y-70203341D01*
X142378430Y-70202895D01*
X142378427Y-70202356D01*
X142378191Y-70201723D01*
X142377717Y-70200996D01*
X142334768Y-70147636D01*
X142247712Y-70040447D01*
X142117008Y-69876254D01*
X141985580Y-69703993D01*
X141854142Y-69524696D01*
X141723407Y-69339394D01*
X141594092Y-69149119D01*
X141466909Y-68954904D01*
X141342574Y-68757781D01*
X141221802Y-68558781D01*
X141132698Y-68407501D01*
X141049522Y-68263289D01*
X140975169Y-68131224D01*
X140912535Y-68016385D01*
X140849264Y-67897809D01*
X140802956Y-67812944D01*
X140785600Y-67783069D01*
X140771811Y-67761520D01*
X140761362Y-67748264D01*
X140757320Y-67744735D01*
X140754029Y-67743266D01*
X140751461Y-67743854D01*
X140749588Y-67746493D01*
X140748381Y-67751181D01*
X140747812Y-67757912D01*
X140026679Y-67757912D01*
X140023004Y-67736860D01*
X140015078Y-67700382D01*
X140004173Y-67655186D01*
X139973877Y-67538865D01*
X139918228Y-67324412D01*
X139864753Y-67105472D01*
X139814081Y-66885065D01*
X139766843Y-66666208D01*
X139723668Y-66451919D01*
X139685186Y-66245217D01*
X139652028Y-66049119D01*
X139624824Y-65866645D01*
X139609138Y-65749775D01*
X139596409Y-65647376D01*
X139586219Y-65554262D01*
X139578151Y-65465247D01*
X139571786Y-65375144D01*
X139566707Y-65278765D01*
X139562495Y-65170925D01*
X139558733Y-65046437D01*
X139556594Y-64975542D01*
X139554186Y-64908489D01*
X139551589Y-64846813D01*
X139548887Y-64792044D01*
X139546162Y-64745717D01*
X139543496Y-64709365D01*
X139540971Y-64684519D01*
X139539787Y-64676890D01*
X139538670Y-64672713D01*
X139537151Y-64668915D01*
X139536378Y-64665555D01*
X139536558Y-64662605D01*
X139537901Y-64660039D01*
X139540614Y-64657831D01*
X139544904Y-64655954D01*
X139550982Y-64654382D01*
X139559053Y-64653087D01*
X139569327Y-64652045D01*
X139582012Y-64651227D01*
X139615446Y-64650161D01*
X139661021Y-64649676D01*
X139720400Y-64649562D01*
X139783877Y-64649659D01*
X139809620Y-64649889D01*
X139831772Y-64650337D01*
X139841597Y-64650666D01*
X139850639Y-64651076D01*
X139858935Y-64651577D01*
X139866524Y-64652178D01*
X139873445Y-64652888D01*
X139879734Y-64653716D01*
X139885431Y-64654672D01*
X139890573Y-64655763D01*
X139895198Y-64657000D01*
X139899345Y-64658391D01*
X139903052Y-64659946D01*
X139906356Y-64661674D01*
X139909296Y-64663583D01*
X139911910Y-64665683D01*
X139914236Y-64667982D01*
X139916312Y-64670491D01*
X139918177Y-64673218D01*
X139919868Y-64676171D01*
X139921423Y-64679361D01*
X139922881Y-64682796D01*
X139924279Y-64686486D01*
X139925657Y-64690439D01*
X139928500Y-64699171D01*
X140050966Y-65052869D01*
X140203757Y-65448506D01*
X140379331Y-65869567D01*
X140570144Y-66299539D01*
X140768654Y-66721908D01*
X140967317Y-67120160D01*
X141158592Y-67477782D01*
X141334933Y-67778260D01*
X141415843Y-67907057D01*
X141448574Y-67958019D01*
X141476516Y-68000161D01*
X141499939Y-68033588D01*
X141519112Y-68058402D01*
X141527189Y-68067611D01*
X141534305Y-68074707D01*
X141540494Y-68079701D01*
X141545789Y-68082607D01*
X141550224Y-68083438D01*
X141553834Y-68082207D01*
X141556650Y-68078926D01*
X141558708Y-68073608D01*
X141560041Y-68066267D01*
X141560683Y-68056916D01*
X141560028Y-68032233D01*
X141557014Y-67999664D01*
X141551909Y-67959312D01*
X141536510Y-67855674D01*
X141470475Y-67414036D01*
X141409271Y-66977527D01*
X141353723Y-66553260D01*
X141304656Y-66148349D01*
X141262896Y-65769907D01*
X141229266Y-65425049D01*
X141204591Y-65120887D01*
X141189697Y-64864536D01*
X141189791Y-64844862D01*
X141191684Y-64825639D01*
X141195272Y-64806913D01*
X141200451Y-64788731D01*
X141207117Y-64771142D01*
X141215166Y-64754192D01*
X141224494Y-64737928D01*
X141234996Y-64722398D01*
X141246569Y-64707649D01*
X141259109Y-64693728D01*
X141272510Y-64680682D01*
X141286670Y-64668559D01*
X141301485Y-64657406D01*
X141316849Y-64647269D01*
X141332659Y-64638197D01*
X141348812Y-64630236D01*
X141365201Y-64623434D01*
X141381725Y-64617838D01*
X141398278Y-64613495D01*
X141414757Y-64610452D01*
X141431057Y-64608757D01*
X141447074Y-64608457D01*
X141462705Y-64609598D01*
X141477844Y-64612229D01*
X141492389Y-64616397D01*
X141506234Y-64622148D01*
X141519276Y-64629530D01*
X141531411Y-64638590D01*
X141542534Y-64649376D01*
X141552542Y-64661934D01*
X141561330Y-64676312D01*
X141568794Y-64692557D01*
X141577162Y-64713426D01*
X141587434Y-64738466D01*
X141598309Y-64764529D01*
X141608484Y-64788468D01*
X141763512Y-65147927D01*
X141802562Y-65237340D01*
X141826661Y-65291177D01*
X141856688Y-65357322D01*
X141886412Y-65423468D01*
X141990330Y-65651739D01*
X142110873Y-65912947D01*
X142209121Y-66116600D01*
X142354072Y-66410567D01*
X142498885Y-66700463D01*
X142596719Y-66891906D01*
X142719160Y-67123416D01*
X142798057Y-67270761D01*
X142878885Y-67416872D01*
X143044977Y-67703382D01*
X143214719Y-67978930D01*
X143385394Y-68239495D01*
X143470232Y-68362904D01*
X143554285Y-68481060D01*
X143637211Y-68593461D01*
X143718672Y-68699606D01*
X143798329Y-68798991D01*
X143875840Y-68891114D01*
X143950868Y-68975474D01*
X144023071Y-69051567D01*
X144051540Y-69079681D01*
X144065051Y-69092419D01*
X144078060Y-69104275D01*
X144090555Y-69115247D01*
X144102521Y-69125333D01*
X144113944Y-69134533D01*
X144124810Y-69142843D01*
X144135107Y-69150264D01*
X144144819Y-69156792D01*
X144153933Y-69162426D01*
X144162435Y-69167164D01*
X144170312Y-69171005D01*
X144177548Y-69173947D01*
X144184132Y-69175989D01*
X144190048Y-69177127D01*
X144195283Y-69177362D01*
X144199823Y-69176691D01*
X144203654Y-69175112D01*
X144206762Y-69172624D01*
X144209134Y-69169225D01*
X144210756Y-69164914D01*
X144211613Y-69159688D01*
X144211692Y-69153546D01*
X144210980Y-69146486D01*
X144209461Y-69138506D01*
X144207123Y-69129606D01*
X144203951Y-69119782D01*
X144199932Y-69109034D01*
X144195052Y-69097359D01*
X144189297Y-69084757D01*
X144182653Y-69071225D01*
X144145677Y-68993639D01*
X144077470Y-68845744D01*
X143863185Y-68373572D01*
X143776618Y-68171177D01*
X143657874Y-67881752D01*
X143538652Y-67583577D01*
X143450653Y-67354926D01*
X143402252Y-67219927D01*
X143354078Y-67078705D01*
X143260531Y-66785837D01*
X143174248Y-66492804D01*
X143099466Y-66216090D01*
X143040422Y-65972176D01*
X143018125Y-65867670D01*
X143001352Y-65777545D01*
X142990631Y-65703862D01*
X142986493Y-65648680D01*
X142987058Y-65628671D01*
X142989467Y-65614060D01*
X142993787Y-65605104D01*
X143000083Y-65602062D01*
X143001396Y-65603177D01*
X143003860Y-65606450D01*
X143011987Y-65619025D01*
X143039262Y-65665211D01*
X143077851Y-65733566D01*
X143123698Y-65817036D01*
X143283956Y-66109071D01*
X143473461Y-66449442D01*
X143666337Y-66791937D01*
X143836706Y-67090343D01*
X144061498Y-67480604D01*
X144266704Y-67827342D01*
X144557757Y-68306923D01*
X144856589Y-68791718D01*
X145085130Y-69154093D01*
X145321286Y-69513595D01*
X145553210Y-69856250D01*
X145776936Y-70176670D01*
X145988494Y-70469469D01*
X146183917Y-70729259D01*
X146359238Y-70950651D01*
X146438120Y-71045266D01*
X146510488Y-71128261D01*
X146575847Y-71198963D01*
X146633700Y-71256699D01*
X146648765Y-71311177D01*
X146661199Y-71437109D01*
X146678480Y-71864586D01*
X146686155Y-72461630D01*
X146684836Y-73150743D01*
X146675138Y-73854425D01*
X146657673Y-74495179D01*
X146633054Y-74995505D01*
X146618253Y-75168789D01*
X146601894Y-75277904D01*
X146538812Y-75544436D01*
X146476631Y-75796537D01*
X146416367Y-76030537D01*
X146359041Y-76242765D01*
X146305669Y-76429551D01*
X146257271Y-76587225D01*
X146214864Y-76712115D01*
X146196226Y-76761119D01*
X146179468Y-76800551D01*
X146172706Y-76815346D01*
X146170063Y-76820402D01*
X146167925Y-76823216D01*
X146167048Y-76823623D01*
X146166301Y-76823278D01*
X146165201Y-76820076D01*
X146164607Y-76801843D01*
X146166219Y-76764430D01*
X146170112Y-76703756D01*
X146185037Y-76496280D01*
X146230373Y-75789460D01*
X146264416Y-75088331D01*
X146286942Y-74419478D01*
X146297726Y-73809488D01*
X146296542Y-73284948D01*
X146283167Y-72872445D01*
X146271837Y-72716515D01*
X146257374Y-72598565D01*
X146239751Y-72521917D01*
X146229746Y-72500120D01*
X146218940Y-72489895D01*
X146211877Y-72488012D01*
X146205197Y-72488405D01*
X146198723Y-72491711D01*
X146192278Y-72498573D01*
X146185685Y-72509630D01*
X146178768Y-72525522D01*
X146163251Y-72574371D01*
X146144314Y-72650243D01*
X146126983Y-72728993D01*
X146120542Y-72758258D01*
X146052832Y-73091205D01*
G36*
X144818061Y-66543091D02*
G01*
X144818496Y-66543195D01*
X144818945Y-66543361D01*
X144819406Y-66543586D01*
X144819879Y-66543871D01*
X144820855Y-66544611D01*
X144821865Y-66545573D01*
X144822901Y-66546746D01*
X144823956Y-66548121D01*
X144825022Y-66549688D01*
X144826090Y-66551438D01*
X144827153Y-66553361D01*
X144828202Y-66555447D01*
X144829231Y-66557688D01*
X144830230Y-66560072D01*
X144831193Y-66562590D01*
X145070461Y-67117930D01*
X145378259Y-67817947D01*
X145457951Y-67996541D01*
X145508992Y-68110560D01*
X145553296Y-68208208D01*
X145595895Y-68301970D01*
X145642835Y-68406645D01*
X145852922Y-68867439D01*
X146071128Y-69337643D01*
X146100045Y-69398899D01*
X146123725Y-69449555D01*
X146139726Y-69484351D01*
X146144082Y-69494156D01*
X146145602Y-69498023D01*
X146262327Y-69742965D01*
X146527555Y-70289646D01*
X146576146Y-70389786D01*
X146595805Y-70431124D01*
X146612659Y-70467648D01*
X146626924Y-70500115D01*
X146638815Y-70529280D01*
X146648548Y-70555898D01*
X146656337Y-70580726D01*
X146662399Y-70604519D01*
X146666947Y-70628033D01*
X146670199Y-70652025D01*
X146672368Y-70677248D01*
X146673670Y-70704460D01*
X146674321Y-70734416D01*
X146674529Y-70805584D01*
X146674884Y-70889116D01*
X146673460Y-70946809D01*
X146670815Y-70964478D01*
X146668788Y-70970257D01*
X146666206Y-70973900D01*
X146663007Y-70975334D01*
X146659127Y-70974482D01*
X146654503Y-70971271D01*
X146649072Y-70965627D01*
X146635533Y-70946740D01*
X146618005Y-70917226D01*
X146568956Y-70823934D01*
X146400706Y-70483624D01*
X146220142Y-70112221D01*
X146046625Y-69744455D01*
X145880486Y-69381085D01*
X145722052Y-69022867D01*
X145571652Y-68670557D01*
X145429616Y-68324912D01*
X145296272Y-67986689D01*
X145171950Y-67656644D01*
X145119954Y-67510873D01*
X145061394Y-67339823D01*
X144941981Y-66976256D01*
X144889829Y-66810922D01*
X144848512Y-66674676D01*
X144822382Y-66581112D01*
X144816371Y-66554583D01*
X144815787Y-66543821D01*
X144816121Y-66543532D01*
X144816474Y-66543312D01*
X144816846Y-66543159D01*
X144817234Y-66543072D01*
X144817640Y-66543050D01*
X144818061Y-66543091D01*
G37*
X144818061Y-66543091D02*
X144818496Y-66543195D01*
X144818945Y-66543361D01*
X144819406Y-66543586D01*
X144819879Y-66543871D01*
X144820855Y-66544611D01*
X144821865Y-66545573D01*
X144822901Y-66546746D01*
X144823956Y-66548121D01*
X144825022Y-66549688D01*
X144826090Y-66551438D01*
X144827153Y-66553361D01*
X144828202Y-66555447D01*
X144829231Y-66557688D01*
X144830230Y-66560072D01*
X144831193Y-66562590D01*
X145070461Y-67117930D01*
X145378259Y-67817947D01*
X145457951Y-67996541D01*
X145508992Y-68110560D01*
X145553296Y-68208208D01*
X145595895Y-68301970D01*
X145642835Y-68406645D01*
X145852922Y-68867439D01*
X146071128Y-69337643D01*
X146100045Y-69398899D01*
X146123725Y-69449555D01*
X146139726Y-69484351D01*
X146144082Y-69494156D01*
X146145602Y-69498023D01*
X146262327Y-69742965D01*
X146527555Y-70289646D01*
X146576146Y-70389786D01*
X146595805Y-70431124D01*
X146612659Y-70467648D01*
X146626924Y-70500115D01*
X146638815Y-70529280D01*
X146648548Y-70555898D01*
X146656337Y-70580726D01*
X146662399Y-70604519D01*
X146666947Y-70628033D01*
X146670199Y-70652025D01*
X146672368Y-70677248D01*
X146673670Y-70704460D01*
X146674321Y-70734416D01*
X146674529Y-70805584D01*
X146674884Y-70889116D01*
X146673460Y-70946809D01*
X146670815Y-70964478D01*
X146668788Y-70970257D01*
X146666206Y-70973900D01*
X146663007Y-70975334D01*
X146659127Y-70974482D01*
X146654503Y-70971271D01*
X146649072Y-70965627D01*
X146635533Y-70946740D01*
X146618005Y-70917226D01*
X146568956Y-70823934D01*
X146400706Y-70483624D01*
X146220142Y-70112221D01*
X146046625Y-69744455D01*
X145880486Y-69381085D01*
X145722052Y-69022867D01*
X145571652Y-68670557D01*
X145429616Y-68324912D01*
X145296272Y-67986689D01*
X145171950Y-67656644D01*
X145119954Y-67510873D01*
X145061394Y-67339823D01*
X144941981Y-66976256D01*
X144889829Y-66810922D01*
X144848512Y-66674676D01*
X144822382Y-66581112D01*
X144816371Y-66554583D01*
X144815787Y-66543821D01*
X144816121Y-66543532D01*
X144816474Y-66543312D01*
X144816846Y-66543159D01*
X144817234Y-66543072D01*
X144817640Y-66543050D01*
X144818061Y-66543091D01*
G36*
X138753812Y-78163530D02*
G01*
X138802982Y-78165990D01*
X138857355Y-78170038D01*
X138916746Y-78175693D01*
X139049858Y-78191898D01*
X139057869Y-78193243D01*
X139065196Y-78194977D01*
X139071843Y-78197080D01*
X139077817Y-78199534D01*
X139083125Y-78202321D01*
X139087773Y-78205422D01*
X139091769Y-78208819D01*
X139095118Y-78212493D01*
X139097827Y-78216426D01*
X139099903Y-78220599D01*
X139101352Y-78224995D01*
X139102181Y-78229594D01*
X139102396Y-78234378D01*
X139102004Y-78239329D01*
X139101012Y-78244429D01*
X139099426Y-78249658D01*
X139097252Y-78254998D01*
X139094497Y-78260432D01*
X139091168Y-78265940D01*
X139087271Y-78271504D01*
X139082813Y-78277106D01*
X139077800Y-78282728D01*
X139072240Y-78288350D01*
X139066137Y-78293954D01*
X139059500Y-78299522D01*
X139052334Y-78305036D01*
X139044647Y-78310477D01*
X139036444Y-78315827D01*
X139027732Y-78321067D01*
X139018519Y-78326179D01*
X139008809Y-78331144D01*
X138998611Y-78335944D01*
X138998612Y-78335944D01*
X138983771Y-78341238D01*
X138966802Y-78344777D01*
X138947887Y-78346606D01*
X138927210Y-78346773D01*
X138904953Y-78345323D01*
X138881301Y-78342305D01*
X138856435Y-78337764D01*
X138830540Y-78331749D01*
X138803798Y-78324304D01*
X138776392Y-78315478D01*
X138748507Y-78305318D01*
X138720324Y-78293869D01*
X138692027Y-78281179D01*
X138663800Y-78267295D01*
X138635825Y-78252263D01*
X138608286Y-78236131D01*
X138588226Y-78222316D01*
X138575371Y-78209889D01*
X138571588Y-78204202D01*
X138569538Y-78198869D01*
X138569197Y-78193892D01*
X138570544Y-78189274D01*
X138573555Y-78185016D01*
X138578208Y-78181121D01*
X138592348Y-78174430D01*
X138612782Y-78169218D01*
X138639327Y-78165504D01*
X138671802Y-78163306D01*
X138710024Y-78162642D01*
X138753812Y-78163530D01*
G37*
X138753812Y-78163530D02*
X138802982Y-78165990D01*
X138857355Y-78170038D01*
X138916746Y-78175693D01*
X139049858Y-78191898D01*
X139057869Y-78193243D01*
X139065196Y-78194977D01*
X139071843Y-78197080D01*
X139077817Y-78199534D01*
X139083125Y-78202321D01*
X139087773Y-78205422D01*
X139091769Y-78208819D01*
X139095118Y-78212493D01*
X139097827Y-78216426D01*
X139099903Y-78220599D01*
X139101352Y-78224995D01*
X139102181Y-78229594D01*
X139102396Y-78234378D01*
X139102004Y-78239329D01*
X139101012Y-78244429D01*
X139099426Y-78249658D01*
X139097252Y-78254998D01*
X139094497Y-78260432D01*
X139091168Y-78265940D01*
X139087271Y-78271504D01*
X139082813Y-78277106D01*
X139077800Y-78282728D01*
X139072240Y-78288350D01*
X139066137Y-78293954D01*
X139059500Y-78299522D01*
X139052334Y-78305036D01*
X139044647Y-78310477D01*
X139036444Y-78315827D01*
X139027732Y-78321067D01*
X139018519Y-78326179D01*
X139008809Y-78331144D01*
X138998611Y-78335944D01*
X138998612Y-78335944D01*
X138983771Y-78341238D01*
X138966802Y-78344777D01*
X138947887Y-78346606D01*
X138927210Y-78346773D01*
X138904953Y-78345323D01*
X138881301Y-78342305D01*
X138856435Y-78337764D01*
X138830540Y-78331749D01*
X138803798Y-78324304D01*
X138776392Y-78315478D01*
X138748507Y-78305318D01*
X138720324Y-78293869D01*
X138692027Y-78281179D01*
X138663800Y-78267295D01*
X138635825Y-78252263D01*
X138608286Y-78236131D01*
X138588226Y-78222316D01*
X138575371Y-78209889D01*
X138571588Y-78204202D01*
X138569538Y-78198869D01*
X138569197Y-78193892D01*
X138570544Y-78189274D01*
X138573555Y-78185016D01*
X138578208Y-78181121D01*
X138592348Y-78174430D01*
X138612782Y-78169218D01*
X138639327Y-78165504D01*
X138671802Y-78163306D01*
X138710024Y-78162642D01*
X138753812Y-78163530D01*
G36*
X146670213Y-79464126D02*
G01*
X146671281Y-79494527D01*
X146673094Y-79608297D01*
X146674769Y-79986574D01*
X146674330Y-80164151D01*
X146673289Y-80235997D01*
X146671260Y-80297597D01*
X146669773Y-80324802D01*
X146667916Y-80349741D01*
X146665647Y-80372513D01*
X146662927Y-80393216D01*
X146659712Y-80411949D01*
X146655964Y-80428810D01*
X146651639Y-80443899D01*
X146646698Y-80457312D01*
X146641099Y-80469150D01*
X146634801Y-80479509D01*
X146627762Y-80488490D01*
X146619943Y-80496190D01*
X146611301Y-80502708D01*
X146601795Y-80508142D01*
X146591385Y-80512592D01*
X146580029Y-80516154D01*
X146567686Y-80518929D01*
X146554316Y-80521014D01*
X146539876Y-80522508D01*
X146524326Y-80523510D01*
X146489730Y-80524429D01*
X146450201Y-80524560D01*
X146376098Y-80524502D01*
X146346162Y-80524364D01*
X146320553Y-80524095D01*
X146309274Y-80523898D01*
X146298959Y-80523652D01*
X146289571Y-80523351D01*
X146281069Y-80522991D01*
X146273415Y-80522565D01*
X146266570Y-80522068D01*
X146260495Y-80521495D01*
X146255150Y-80520840D01*
X146250498Y-80520098D01*
X146246498Y-80519263D01*
X146244731Y-80518809D01*
X146243112Y-80518330D01*
X146241637Y-80517825D01*
X146240301Y-80517294D01*
X146239099Y-80516735D01*
X146238025Y-80516148D01*
X146237077Y-80515533D01*
X146236247Y-80514888D01*
X146235532Y-80514214D01*
X146234926Y-80513508D01*
X146234426Y-80512772D01*
X146234025Y-80512003D01*
X146233719Y-80511202D01*
X146233503Y-80510367D01*
X146233372Y-80509499D01*
X146233321Y-80508595D01*
X146233346Y-80507656D01*
X146233442Y-80506681D01*
X146233826Y-80504620D01*
X146234433Y-80502406D01*
X146235225Y-80500035D01*
X146237208Y-80494795D01*
X146281009Y-80390223D01*
X146370063Y-80180603D01*
X146423940Y-80052956D01*
X146480982Y-79915661D01*
X146534388Y-79785208D01*
X146577354Y-79678084D01*
X146611201Y-79592953D01*
X146639775Y-79522382D01*
X146660067Y-79473713D01*
X146666166Y-79459887D01*
X146668040Y-79456003D01*
X146669067Y-79454291D01*
X146670213Y-79464126D01*
G37*
X146670213Y-79464126D02*
X146671281Y-79494527D01*
X146673094Y-79608297D01*
X146674769Y-79986574D01*
X146674330Y-80164151D01*
X146673289Y-80235997D01*
X146671260Y-80297597D01*
X146669773Y-80324802D01*
X146667916Y-80349741D01*
X146665647Y-80372513D01*
X146662927Y-80393216D01*
X146659712Y-80411949D01*
X146655964Y-80428810D01*
X146651639Y-80443899D01*
X146646698Y-80457312D01*
X146641099Y-80469150D01*
X146634801Y-80479509D01*
X146627762Y-80488490D01*
X146619943Y-80496190D01*
X146611301Y-80502708D01*
X146601795Y-80508142D01*
X146591385Y-80512592D01*
X146580029Y-80516154D01*
X146567686Y-80518929D01*
X146554316Y-80521014D01*
X146539876Y-80522508D01*
X146524326Y-80523510D01*
X146489730Y-80524429D01*
X146450201Y-80524560D01*
X146376098Y-80524502D01*
X146346162Y-80524364D01*
X146320553Y-80524095D01*
X146309274Y-80523898D01*
X146298959Y-80523652D01*
X146289571Y-80523351D01*
X146281069Y-80522991D01*
X146273415Y-80522565D01*
X146266570Y-80522068D01*
X146260495Y-80521495D01*
X146255150Y-80520840D01*
X146250498Y-80520098D01*
X146246498Y-80519263D01*
X146244731Y-80518809D01*
X146243112Y-80518330D01*
X146241637Y-80517825D01*
X146240301Y-80517294D01*
X146239099Y-80516735D01*
X146238025Y-80516148D01*
X146237077Y-80515533D01*
X146236247Y-80514888D01*
X146235532Y-80514214D01*
X146234926Y-80513508D01*
X146234426Y-80512772D01*
X146234025Y-80512003D01*
X146233719Y-80511202D01*
X146233503Y-80510367D01*
X146233372Y-80509499D01*
X146233321Y-80508595D01*
X146233346Y-80507656D01*
X146233442Y-80506681D01*
X146233826Y-80504620D01*
X146234433Y-80502406D01*
X146235225Y-80500035D01*
X146237208Y-80494795D01*
X146281009Y-80390223D01*
X146370063Y-80180603D01*
X146423940Y-80052956D01*
X146480982Y-79915661D01*
X146534388Y-79785208D01*
X146577354Y-79678084D01*
X146611201Y-79592953D01*
X146639775Y-79522382D01*
X146660067Y-79473713D01*
X146666166Y-79459887D01*
X146668040Y-79456003D01*
X146669067Y-79454291D01*
X146670213Y-79464126D01*
%TD*%
D11*
%TO.C,J2*%
X117761000Y-64877000D03*
D12*
X112611000Y-61877000D03*
D11*
X112921000Y-64877000D03*
D12*
X118071000Y-61877000D03*
%TD*%
D13*
%TO.C,MH1*%
X123825000Y-105645000D03*
%TD*%
D14*
%TO.C,MH2*%
X123825000Y-80645000D03*
%TD*%
M02*
